<mxfile host="app.diagrams.net" agent="Mozilla/5.0 (Windows NT 10.0; Win64; x64) AppleWebKit/537.36 (KHTML, like Gecko) Chrome/131.0.0.0 Safari/537.36 Edg/131.0.0.0" version="26.1.0">
  <diagram name="Page-1" id="VBkAUE8vVQKIZSMZAMJK">
    <mxGraphModel dx="2276" dy="2911" grid="1" gridSize="10" guides="1" tooltips="1" connect="1" arrows="1" fold="1" page="1" pageScale="1" pageWidth="850" pageHeight="1100" math="0" shadow="0">
      <root>
        <mxCell id="0" />
        <mxCell id="1" parent="0" />
        <mxCell id="mxeymXjgRgd7a33eONCe-1" value="AWS Cloud" style="points=[[0,0],[0.25,0],[0.5,0],[0.75,0],[1,0],[1,0.25],[1,0.5],[1,0.75],[1,1],[0.75,1],[0.5,1],[0.25,1],[0,1],[0,0.75],[0,0.5],[0,0.25]];outlineConnect=0;gradientColor=none;html=1;whiteSpace=wrap;fontSize=12;fontStyle=0;container=0;pointerEvents=0;collapsible=0;recursiveResize=0;shape=mxgraph.aws4.group;grIcon=mxgraph.aws4.group_aws_cloud_alt;strokeColor=#232F3E;fillColor=none;verticalAlign=top;align=left;spacingLeft=30;fontColor=#232F3E;dashed=0;" vertex="1" parent="1">
          <mxGeometry x="-680" y="-1440" width="2240" height="1760" as="geometry" />
        </mxCell>
        <mxCell id="mxeymXjgRgd7a33eONCe-2" value="" style="rounded=0;whiteSpace=wrap;html=1;" vertex="1" parent="1">
          <mxGeometry x="1258" y="386" width="295" height="330" as="geometry" />
        </mxCell>
        <mxCell id="mxeymXjgRgd7a33eONCe-3" value="BOI BlueZone" style="points=[[0,0],[0.25,0],[0.5,0],[0.75,0],[1,0],[1,0.25],[1,0.5],[1,0.75],[1,1],[0.75,1],[0.5,1],[0.25,1],[0,1],[0,0.75],[0,0.5],[0,0.25]];outlineConnect=0;gradientColor=none;html=1;whiteSpace=wrap;fontSize=12;fontStyle=0;container=0;pointerEvents=0;collapsible=0;recursiveResize=0;shape=mxgraph.aws4.group;grIcon=mxgraph.aws4.group_corporate_data_center;strokeColor=#7D8998;fillColor=none;verticalAlign=top;align=left;spacingLeft=30;fontColor=#5A6C86;dashed=0;" vertex="1" parent="1">
          <mxGeometry x="-640" y="426" width="1760" height="290" as="geometry" />
        </mxCell>
        <mxCell id="mxeymXjgRgd7a33eONCe-4" value="BOI AWS CSSP" style="points=[[0,0],[0.25,0],[0.5,0],[0.75,0],[1,0],[1,0.25],[1,0.5],[1,0.75],[1,1],[0.75,1],[0.5,1],[0.25,1],[0,1],[0,0.75],[0,0.5],[0,0.25]];outlineConnect=0;gradientColor=none;html=1;whiteSpace=wrap;fontSize=12;fontStyle=0;container=0;pointerEvents=0;collapsible=0;recursiveResize=0;shape=mxgraph.aws4.group;grIcon=mxgraph.aws4.group_aws_cloud_alt;strokeColor=#232F3E;fillColor=none;verticalAlign=top;align=left;spacingLeft=30;fontColor=#232F3E;dashed=0;" vertex="1" parent="1">
          <mxGeometry x="-640" y="-1040" width="1760" height="1320" as="geometry" />
        </mxCell>
        <mxCell id="mxeymXjgRgd7a33eONCe-5" style="edgeStyle=orthogonalEdgeStyle;rounded=1;orthogonalLoop=1;jettySize=auto;html=1;entryX=1;entryY=0.5;entryDx=0;entryDy=0;startArrow=classic;startFill=1;endArrow=none;endFill=0;curved=0;strokeColor=#FF0000;" edge="1" parent="1" source="mxeymXjgRgd7a33eONCe-141" target="mxeymXjgRgd7a33eONCe-46">
          <mxGeometry relative="1" as="geometry">
            <Array as="points">
              <mxPoint x="1293" y="-560" />
              <mxPoint x="966" y="-560" />
            </Array>
          </mxGeometry>
        </mxCell>
        <mxCell id="mxeymXjgRgd7a33eONCe-6" value="&lt;font style=&quot;font-size: 9px;&quot;&gt;Cluster Connectivity Manager (CCM)&lt;/font&gt;&lt;div style=&quot;font-size: 9px;&quot;&gt;&lt;div&gt;&lt;div&gt;&lt;font style=&quot;font-size: 9px;&quot;&gt;HTTPS / TLS 1.2&lt;/font&gt;&lt;/div&gt;&lt;div&gt;&lt;font style=&quot;font-size: 9px;&quot;&gt;mTLS&lt;/font&gt;&lt;/div&gt;&lt;div&gt;&lt;font style=&quot;font-size: 9px;&quot;&gt;Port 443&lt;/font&gt;&lt;/div&gt;&lt;/div&gt;&lt;/div&gt;" style="edgeLabel;html=1;align=center;verticalAlign=middle;resizable=0;points=[];" vertex="1" connectable="0" parent="mxeymXjgRgd7a33eONCe-5">
          <mxGeometry x="0.118" y="1" relative="1" as="geometry">
            <mxPoint x="219" y="63" as="offset" />
          </mxGeometry>
        </mxCell>
        <mxCell id="mxeymXjgRgd7a33eONCe-7" value="Cloudera Control Plane (Cloudera&#39;s AWS account)" style="points=[[0,0],[0.25,0],[0.5,0],[0.75,0],[1,0],[1,0.25],[1,0.5],[1,0.75],[1,1],[0.75,1],[0.5,1],[0.25,1],[0,1],[0,0.75],[0,0.5],[0,0.25]];outlineConnect=0;gradientColor=none;html=1;whiteSpace=wrap;fontSize=12;fontStyle=0;container=0;pointerEvents=0;collapsible=0;recursiveResize=0;shape=mxgraph.aws4.group;grIcon=mxgraph.aws4.group_aws_cloud_alt;strokeColor=#232F3E;fillColor=none;verticalAlign=top;align=left;spacingLeft=30;fontColor=#232F3E;dashed=0;" vertex="1" parent="1">
          <mxGeometry x="1285.5" y="-400.41" width="240" height="480" as="geometry" />
        </mxCell>
        <mxCell id="mxeymXjgRgd7a33eONCe-8" style="edgeStyle=orthogonalEdgeStyle;rounded=0;orthogonalLoop=1;jettySize=auto;html=1;strokeColor=#FF0000;" edge="1" parent="1" source="mxeymXjgRgd7a33eONCe-10" target="mxeymXjgRgd7a33eONCe-141">
          <mxGeometry relative="1" as="geometry" />
        </mxCell>
        <mxCell id="mxeymXjgRgd7a33eONCe-9" value="SAML 2.0&amp;nbsp; IDP to Cloudera UMS&lt;div&gt;HTTPS / TLS 1.2&lt;br&gt;&lt;/div&gt;&lt;div&gt;Port 443&lt;/div&gt;" style="edgeLabel;html=1;align=center;verticalAlign=middle;resizable=0;points=[];" vertex="1" connectable="0" parent="mxeymXjgRgd7a33eONCe-8">
          <mxGeometry x="0.3715" y="-2" relative="1" as="geometry">
            <mxPoint as="offset" />
          </mxGeometry>
        </mxCell>
        <mxCell id="mxeymXjgRgd7a33eONCe-10" value="Azure Active Directory" style="image;aspect=fixed;html=1;points=[];align=center;fontSize=12;image=img/lib/azure2/identity/Azure_Active_Directory.svg;" vertex="1" parent="1">
          <mxGeometry x="1370.5" y="519" width="70" height="64" as="geometry" />
        </mxCell>
        <mxCell id="mxeymXjgRgd7a33eONCe-11" value="Azure" style="verticalLabelPosition=bottom;html=1;verticalAlign=top;align=center;strokeColor=none;fillColor=#00BEF2;shape=mxgraph.azure.cloud;" vertex="1" parent="1">
          <mxGeometry x="1253" y="372.04999999999995" width="50" height="32.5" as="geometry" />
        </mxCell>
        <mxCell id="mxeymXjgRgd7a33eONCe-12" value="BOI VIP Account" style="points=[[0,0],[0.25,0],[0.5,0],[0.75,0],[1,0],[1,0.25],[1,0.5],[1,0.75],[1,1],[0.75,1],[0.5,1],[0.25,1],[0,1],[0,0.75],[0,0.5],[0,0.25]];outlineConnect=0;gradientColor=none;html=1;whiteSpace=wrap;fontSize=12;fontStyle=0;container=0;pointerEvents=0;collapsible=0;recursiveResize=0;shape=mxgraph.aws4.group;grIcon=mxgraph.aws4.group_account;strokeColor=#CD2264;fillColor=none;verticalAlign=top;align=left;spacingLeft=30;fontColor=#CD2264;dashed=0;" vertex="1" parent="1">
          <mxGeometry x="-25" y="-1359" width="490" height="160" as="geometry" />
        </mxCell>
        <mxCell id="mxeymXjgRgd7a33eONCe-13" value="B2B Firewall" style="image;aspect=fixed;perimeter=ellipsePerimeter;html=1;align=center;shadow=0;dashed=0;spacingTop=3;image=img/lib/active_directory/firewall.svg;" vertex="1" parent="1">
          <mxGeometry x="1100" y="339.96" width="39.4" height="64.59" as="geometry" />
        </mxCell>
        <mxCell id="mxeymXjgRgd7a33eONCe-14" value="Teradata Platform (&lt;span style=&quot;background-color: initial;&quot;&gt;AIX BBIIPAA1A/B)&lt;/span&gt;" style="rounded=0;whiteSpace=wrap;html=1;verticalAlign=bottom;" vertex="1" parent="1">
          <mxGeometry x="249" y="446" width="480" height="240" as="geometry" />
        </mxCell>
        <mxCell id="mxeymXjgRgd7a33eONCe-15" value="Enterprise Data Warehouse" style="rounded=0;whiteSpace=wrap;html=1;verticalAlign=bottom;" vertex="1" parent="1">
          <mxGeometry x="434" y="466" width="280" height="190" as="geometry" />
        </mxCell>
        <mxCell id="mxeymXjgRgd7a33eONCe-16" value="ACQ Layer" style="shape=datastore;whiteSpace=wrap;html=1;strokeColor=#FF0000;" vertex="1" parent="1">
          <mxGeometry x="633.4" y="486" width="60" height="60" as="geometry" />
        </mxCell>
        <mxCell id="mxeymXjgRgd7a33eONCe-17" value="IDL" style="shape=datastore;whiteSpace=wrap;html=1;strokeColor=#FF0000;" vertex="1" parent="1">
          <mxGeometry x="544.0000000000001" y="486" width="60" height="60" as="geometry" />
        </mxCell>
        <mxCell id="mxeymXjgRgd7a33eONCe-18" value="CIE" style="shape=datastore;whiteSpace=wrap;html=1;strokeColor=#FF0000;" vertex="1" parent="1">
          <mxGeometry x="544.0000000000001" y="566" width="60" height="60" as="geometry" />
        </mxCell>
        <mxCell id="mxeymXjgRgd7a33eONCe-19" value="CIE Publication" style="shape=datastore;whiteSpace=wrap;html=1;strokeColor=#FF0000;" vertex="1" parent="1">
          <mxGeometry x="454.0000000000001" y="566" width="60" height="60" as="geometry" />
        </mxCell>
        <mxCell id="mxeymXjgRgd7a33eONCe-20" value="IAL" style="shape=datastore;whiteSpace=wrap;html=1;strokeColor=#FF0000;" vertex="1" parent="1">
          <mxGeometry x="454.0000000000001" y="486" width="60" height="60" as="geometry" />
        </mxCell>
        <mxCell id="mxeymXjgRgd7a33eONCe-21" value="Daily File Extract" style="rounded=0;whiteSpace=wrap;html=1;verticalAlign=bottom;" vertex="1" parent="1">
          <mxGeometry x="269" y="466" width="80" height="190" as="geometry" />
        </mxCell>
        <mxCell id="mxeymXjgRgd7a33eONCe-22" value="Customer &amp;amp;&lt;div&gt;Account Data&lt;/div&gt;" style="verticalLabelPosition=bottom;html=1;verticalAlign=top;align=center;strokeColor=none;fillColor=#00BEF2;shape=mxgraph.azure.cloud_services_configuration_file;pointerEvents=1;" vertex="1" parent="1">
          <mxGeometry x="292.25" y="498.5" width="33.5" height="35" as="geometry" />
        </mxCell>
        <mxCell id="mxeymXjgRgd7a33eONCe-23" value="Control-M Agent&lt;div&gt;(v8.x)&lt;/div&gt;" style="rounded=0;whiteSpace=wrap;html=1;" vertex="1" parent="1">
          <mxGeometry x="359" y="566" width="60" height="40" as="geometry" />
        </mxCell>
        <mxCell id="mxeymXjgRgd7a33eONCe-24" style="edgeStyle=orthogonalEdgeStyle;rounded=1;orthogonalLoop=1;jettySize=auto;html=1;entryX=1;entryY=0.5;entryDx=0;entryDy=0;entryPerimeter=0;curved=0;strokeColor=#FF0000;" edge="1" parent="1" source="mxeymXjgRgd7a33eONCe-20" target="mxeymXjgRgd7a33eONCe-22">
          <mxGeometry relative="1" as="geometry" />
        </mxCell>
        <mxCell id="mxeymXjgRgd7a33eONCe-25" value="GCFR&lt;div&gt;Extract&lt;/div&gt;" style="edgeLabel;html=1;align=center;verticalAlign=middle;resizable=0;points=[];" vertex="1" connectable="0" parent="mxeymXjgRgd7a33eONCe-24">
          <mxGeometry x="-0.3794" y="1" relative="1" as="geometry">
            <mxPoint x="-25" y="-1" as="offset" />
          </mxGeometry>
        </mxCell>
        <mxCell id="mxeymXjgRgd7a33eONCe-26" style="edgeStyle=orthogonalEdgeStyle;rounded=1;orthogonalLoop=1;jettySize=auto;html=1;strokeColor=#FF0000;curved=0;exitX=0.84;exitY=0.28;exitDx=0;exitDy=0;exitPerimeter=0;" edge="1" parent="1" source="mxeymXjgRgd7a33eONCe-165" target="mxeymXjgRgd7a33eONCe-181">
          <mxGeometry relative="1" as="geometry">
            <mxPoint x="837.5" y="490.99999999999955" as="sourcePoint" />
            <Array as="points">
              <mxPoint x="1030" y="575" />
              <mxPoint x="1030" y="-940" />
            </Array>
          </mxGeometry>
        </mxCell>
        <mxCell id="mxeymXjgRgd7a33eONCe-27" value="&lt;font style=&quot;font-size: 9px;&quot;&gt;Admin Access to Edge Nodes (via&amp;nbsp; SM)&lt;/font&gt;&lt;div style=&quot;font-size: 9px;&quot;&gt;&lt;div&gt;&lt;font style=&quot;font-size: 9px;&quot;&gt;HTTPS/TLS 1.2&lt;/font&gt;&lt;/div&gt;&lt;div&gt;AWS IAM&lt;/div&gt;&lt;/div&gt;" style="edgeLabel;html=1;align=center;verticalAlign=middle;resizable=0;points=[];" vertex="1" connectable="0" parent="mxeymXjgRgd7a33eONCe-26">
          <mxGeometry x="0.8753" y="2" relative="1" as="geometry">
            <mxPoint y="-25" as="offset" />
          </mxGeometry>
        </mxCell>
        <mxCell id="mxeymXjgRgd7a33eONCe-28" style="edgeStyle=orthogonalEdgeStyle;rounded=1;orthogonalLoop=1;jettySize=auto;html=1;exitX=0.5;exitY=1;exitDx=0;exitDy=0;curved=0;strokeColor=#FF0000;" edge="1" parent="1" source="mxeymXjgRgd7a33eONCe-33" target="mxeymXjgRgd7a33eONCe-77">
          <mxGeometry relative="1" as="geometry" />
        </mxCell>
        <mxCell id="mxeymXjgRgd7a33eONCe-29" value="&lt;font style=&quot;font-size: 9px;&quot;&gt;Mulesoft to&amp;nbsp; Phoenix Query Server&lt;/font&gt;&lt;div style=&quot;font-size: 9px;&quot;&gt;&lt;font style=&quot;font-size: 9px;&quot;&gt;JDBC over HTTPS / TLS 1.2&lt;/font&gt;&lt;/div&gt;&lt;div style=&quot;font-size: 9px;&quot;&gt;&lt;font style=&quot;font-size: 9px;&quot;&gt;Port 8765&lt;/font&gt;&lt;/div&gt;&lt;div style=&quot;font-size: 9px;&quot;&gt;&lt;font style=&quot;font-size: 9px;&quot;&gt;Kerberos&lt;/font&gt;&lt;/div&gt;" style="edgeLabel;html=1;align=center;verticalAlign=middle;resizable=0;points=[];" vertex="1" connectable="0" parent="mxeymXjgRgd7a33eONCe-28">
          <mxGeometry x="0.0934" y="1" relative="1" as="geometry">
            <mxPoint x="1" y="160" as="offset" />
          </mxGeometry>
        </mxCell>
        <mxCell id="mxeymXjgRgd7a33eONCe-30" value="VPC" style="points=[[0,0],[0.25,0],[0.5,0],[0.75,0],[1,0],[1,0.25],[1,0.5],[1,0.75],[1,1],[0.75,1],[0.5,1],[0.25,1],[0,1],[0,0.75],[0,0.5],[0,0.25]];outlineConnect=0;gradientColor=none;html=1;whiteSpace=wrap;fontSize=12;fontStyle=0;container=0;pointerEvents=0;collapsible=0;recursiveResize=0;shape=mxgraph.aws4.group;grIcon=mxgraph.aws4.group_vpc2;strokeColor=#8C4FFF;fillColor=none;verticalAlign=top;align=left;spacingLeft=30;fontColor=#AAB7B8;dashed=0;" vertex="1" parent="1">
          <mxGeometry y="-1336.5" width="440" height="115" as="geometry" />
        </mxCell>
        <mxCell id="mxeymXjgRgd7a33eONCe-31" style="edgeStyle=orthogonalEdgeStyle;rounded=1;orthogonalLoop=1;jettySize=auto;html=1;entryX=0.25;entryY=0;entryDx=0;entryDy=0;curved=0;strokeColor=#FF9933;dashed=1;jumpStyle=none;" edge="1" parent="1" source="mxeymXjgRgd7a33eONCe-33" target="mxeymXjgRgd7a33eONCe-46">
          <mxGeometry relative="1" as="geometry">
            <Array as="points">
              <mxPoint x="250" y="-1110" />
              <mxPoint x="300" y="-1110" />
              <mxPoint x="300" y="-810" />
              <mxPoint x="724" y="-810" />
            </Array>
          </mxGeometry>
        </mxCell>
        <mxCell id="mxeymXjgRgd7a33eONCe-32" value="&lt;font style=&quot;font-size: 9px;&quot;&gt;Mulesoft to DNS&amp;nbsp;&lt;/font&gt;&lt;div&gt;&lt;div style=&quot;font-size: 9px;&quot;&gt;UDP Port 53&lt;/div&gt;&lt;div style=&quot;font-size: 9px;&quot;&gt;&lt;br&gt;&lt;/div&gt;&lt;/div&gt;" style="edgeLabel;html=1;align=center;verticalAlign=middle;resizable=0;points=[];" vertex="1" connectable="0" parent="mxeymXjgRgd7a33eONCe-31">
          <mxGeometry x="0.6025" relative="1" as="geometry">
            <mxPoint x="99" y="10" as="offset" />
          </mxGeometry>
        </mxCell>
        <mxCell id="mxeymXjgRgd7a33eONCe-33" value="Mulesoft Runtime Environment" style="rounded=0;whiteSpace=wrap;html=1;container=0;" vertex="1" parent="1">
          <mxGeometry x="160" y="-1309" width="120" height="60" as="geometry" />
        </mxCell>
        <mxCell id="mxeymXjgRgd7a33eONCe-34" value="" style="shape=image;verticalLabelPosition=bottom;labelBackgroundColor=default;verticalAlign=top;aspect=fixed;imageAspect=0;image=data:image/jpeg,/9j/4AAQSkZJRgABAQAAAQABAAD/2wCEAAkGBxMTEhUSEBMVFRUVFxUVFxUXFRUXFRUVFhcXFxYVFRcYHSggGBolHRYXITIhJSkrLi4uFx8zODMtNygtLisBCgoKDg0OGxAQGy0mHyYtLS8vLS0tLS0tLS0tLS0tLS0tLS0tLS0tLS0tLS0tLS0tLS0tLS0tLS0tLS0tLS0tLf/AABEIAOEA4QMBIgACEQEDEQH/xAAbAAEAAgMBAQAAAAAAAAAAAAAABgcBBAUCA//EAEYQAAEDAQMIBwYDBwMCBwAAAAEAAgMRBAYxBRIhQVFhcYEHEyJSkaGxFCMyQmLBcoLRM0NTorLC4SSS8BfSFRY0RGOTs//EABsBAAMBAQEBAQAAAAAAAAAAAAAFBgQDAgEH/8QANhEAAQMBBAcHBAICAwEAAAAAAQACAwQFETFBEhMhUWFxkYGhscHR4fAUIjLxIzMVYiRCkkP/2gAMAwEAAhEDEQA/ALxREQhEREIREWChCyi8Z1MVF8tX0hiq2L3r9xo0cXa+S6RxPkNzBeuM08cLdKQ3D5hvUpquJlG9FmhqHSBzh8rBnHho0DmVXOVbwWi0ftJCG9xvZbzAx51XLaK6AK11D9EzisvOQ9g9fZI57cyib2n0HqpxbekI4QwgfU51T/tb+q4dqvfbH/vc38DQPM1K8WC6lql/dFo2uNB4HT5Lu2Xo9P72YDc1tfM/ou11FFuv7SfNZ77SqNo0gP8AyPJRaXK87vimkP5nfqtZ87zi9x4uJVjRXBsw+J0jvzAegW025ViH7onjJJ+q+f5CnadgPQeaP8RWP/Jw7XE+AKq1srhg5w5lbMeVJm/DK8fmd+qso3MsX8E//ZJ/3LWluJZT8Oe3g6vqCj/I05xB6D3X0WPVt/Fw7HEeShtmvXa2fvi7c4B3mRVdex3/AJRomiY/e1xafA1BW3auj0fupzwc0HzH6Lh265trj0hgkH0ur5GhX0Oopt3S70XwstKnw0rv/Xqpnk++Vlk0FxjOxw0f7hULvskDhVpBB1gghUfNC5pzXtLTscCD4FbOTspzQGsMjm7gag8WnQVylssHbG7r6/tdobbeDdM3tGw9D7K6wsqD5Fv211G2luae+2pb+ZuI81MYZ2vaHMcHNOBBqD4JZLBJEbni5PKeqinF8Zv4ZjmF90WAsrktCIiIQiIiEIiIhCIiIQiIsEoQhXOyxleKzMz5XUrg0aXOOwD7rRvNeNllbQUdKR2WbPqdsHqqwt9tkmeZJXFzj4AbANQW6koXTfc7Y3x5JVX2m2n+xm13cOfoupl6801pJbXMj1MBx/EdfDBcezwOe4NjaXOODWip8l2LvXZltRzvgi1vIx3MGvjgrIyTkeKztzYm02uOlzuJTCWqiphoRjbu9SlFPQz1rtbKdhzOfIeeCh+R7hvdR1pdmjuAhzubsByqpjk3I0MApFGGnvYuPFx0ro0WUomqZZfyOzdgFQ09FDB+Ddu/ErFFlEXBa0REQhEREIRYosohC1LZYo5Rmysa8bwD4HUolle4TTV1leWnuvJI4B2I51U4WKLrFPJEfsN3h0wWeelinF0jb+OfXFUjb8nywOzJmFh34HgcCtjI+WZrM6sTtGtp0tdxGo7xpVu26xxytLJWB7TqP22FV7eK5r4qyWer48S3F7R/cPPim8NdHMNCUXE9D6fNoU9U2ZLTnWQkkDqPX5sUvu9eSK1Cg7EgxjJ08Wn5gu4CqKilLSHNJDgagg0IO0FWJdO9nW0htBAkwa7AP3HY71WWroDHe+PDdmFus+1RLdHLsdkcj6FTJFgFZS1O0REQhEREIRERCFglcC9N4G2VlBR0rh2G7PqduHmt7LeVGWeJ0r9WhrdbnHABVFlC2vmkdLIaucfDYBsAW6ipNc7Sd+I7+CVWnX/Tt0Gfke7jz3ey+VondI4vkcXOcaknEqW3Tul1lJrSCGYtZrfvdsbu1+q5d2espaJx2AasafnPeP0+vrYy1Vtbo/xRdp8gsNm2bp3TTYZA58T6dq8RxgAAAADQABQAbAvdEqublrLEVmZnSnSfhaPicdgH3ShrS43AbVQve1jS5xuAXRzl6VYtvtMbQ2R2iIGhib3TiSdblZEMzXtDmmrXAEEYEHArtNTPhu08/lyzUtbFU6Whl8v5L7IiLgtaIiIQiIiEIiIhCLFUqq9vPe2RtozbM6jYiQ7W17sHA7hhxqu0ED5naLVmqqplMzSfvuVhJRR67t547SM09iUYsJ0Hew6xuxUhBXN7HMdouFxXWKZkrQ9hvCht67oiSstmAEmLmYNfvGx3qq7cCDQggg4HQQR6FXsoffK7PWgzwD3o+Jo/eD/u9Uyoq4tuZIdmR3JNadmB4MsQ25jfy4rzcu8/W0gmPvAOw8/OBqP1DzUyBVEscQagkEGoOBBGHAq1LpZeFpjo79qygcO8NTxx9V5r6TV/yMGzMbl6sq0NaNVIduR3+48FI0WKrKWp2iIiEIvLzTSvSil/cr9VD1TDR8tRvDR8R54c10ijMjwxuJXGeZsMZkdgFD73ZaNpmOafdsq1g1Ha7n6JdLIXtMvaHumULzt2MHH0XHghc9zWMFXOIa0byaBXBkPJjbPE2JuI0uPeccT/AM2BOqqUU0QjZjgPMqaoad1bOZZcBtPHcPXgt6NgAAAoBQADAAagvoUC5uXcqss0RkfpODW10uccAP8AmpImtJIAxVS97WNLnbAFq3ky+yys70jvgZt3nY1VblC3STPMkrs5x8ANgGobkyhbnzSOklNXO8ANQGwBaqo6SkbA3/bP0HBRtfXuqXXDY0YDzPHwRTvo+y5/7WQ7TGfNzPuOagi+kMpY4OYaOaQQdhGBXWohE0ZaezmuNHUup5RIO3iFelVlci72VRaYWyCgcOy8bHjHlrHFdYKXc0tJacQreN7XtD24HasoiL4vaIiIQiIta12lsbHSPNGtBJO4IXwkDaVxL5Zb9nhzWH3klQ3a0fM/l6lVWt/LWU3WiZ0r9ehre6BgP+ayVz1S0dPqY7jicfTsUXaNX9RLePxGHr2+Fy9MeQQWkgjSCNBBGsFWPdG9PXUhnIEo+F2qQfZ27Wq2WWuIIINCDUEaCCMCF6qaZs7bjjkV4o6x9M/SbhmN6vcIVGrn3h9pZmSftWDtfW3vj7/5UlU3JG6Nxa4bVZwzMmYHsOwqur+3fzHe0xDsuPvAMGuPz8Ccd/FRjJeUHwStljxadI7zTi08Vc1oga9rmPFWuBBG0FU/l7JjrPM6I1oNLSfmYcD9uIKcUE+tYYn/ALHt4KdtWkMMgnj2XnoffxVuWG1NljbJGatcKj9DvW2q86OsrZrnWZx0O7TNzvmbzGnkVYaVVEJhkLOnJPaOpFREJBjnz+bUREXFab14Kp+8uUvaLS+QHsg5rPwt0A89J5qyL22/qbLI4GjiM1vF2jRwFTyVRNGocAE3suLGQ8h5+Snrcn/GIcz4DzU06Ocl5z3Whw0M7LPxEdo8ho5qwwudkKwCCBkQxA7W9x0u8yV0Sl9TNrZS7pyCb0NPqIQzPE8z8uXl7qCpwCqS9eWjaZiQfdsq1g3a3cT6UUyv9lbqoBE09qao4NHxeNQOZVZpjZlP/wDU8h5ny6pPbVXedQ3mfIefRYRETdTyIiIQu5dLLPs0wLj7t9A8bBqdy9Kq2muqARgVRKsW4GW89ns8h7TBVhPzN2cR6USm0qa8a1vb6qgsasuOodnhz3efVTRFgLKTKkREWChCyq66QMt57vZoz2W6ZCNbtTeWPHgpTejLAs0JcKdY7ssG/vcBiqkLiSSTUnSScSTiUzs6n0nax2Aw5+3ikVs1mi3UNxOPLd2+HNeURE8UwiIiELaybbXwyNljPaaa7iNYO4hXFku3NmibKzBwrwOsHeDoVJqZ9HWVM2R1ncdD+0zc8YgcRp/Klto0+mzTGI8PZObHqtXJqj+Lu4++HRWKVE+kDJfWQdc0dqLSd7D8XhjyKlgXzljDgWuFQQQRtBxSaKQxvDxkqWohE0ZjdmqRs1odG9sjNDmkOHEK6LBaxLGyVuD2h3CupU9laxGGaSI/I4gb24tPhRTjo2t2dE+E4xnOH4X/AOQfFN7RjEkQlbl4FT1jymKZ0Ls/EeymaJVEjvVOoD0mWv8AZQjVnPI/lb/cuBc+x9ba4hqac88Gio881fW/Noz7ZJT5A1ngKnzJXX6MrNV80uxrWDmST6BPh/DRcbvH9qVP/ItK44aXc39KwQhWVpZUtXVRSSdxrncwNA8UiAv2BVJIAvKq6+GUOutUhB7LDmN4Nx86riL0TXScdfFeVWRsDGhoyUBNKZXl5zN6L00VNBidAG0rypVcDJfWzmV4q2GhG95+Hwx8F5mlETC85L3TQmaQRjNRq0QOY4seM1zTQg4gr5KwekDImc32mMaWijwNY1O5enBV+vNNOJow7PPmulbSmnlLDhkd4WFsWK1Oie2Rho5hqP0O44c1rouxAIuKygkG8K6cj5SbaImys14jW12sFb4VWXJy31E2Y8+7lIB2NfgHfY8titMKZqqcwyaOWStqCrFTEHZjYefusr5SyBoLnGgAJJOAA0kr6FQXpBy1QeyxnSaGQjZiGc9BP+V4giMrwwLrVVDaeIyO/Z3KMXlyubTMX6cwdlg2N28Tj4bFyERVEbAxoa3AKGkkdI4vdiUWVhSm42ROul62Qe7jIOnBztQ4DHwXmaURMLzkvdPA6eQRtxPy/sUctNndG7Ne0tcKEg46QCPIr4lWJ0i5Lzo22ho0so129pOg8ifNV2VzpZ9dGHdV2raU00pZllyRfeyWgxvbI3Fjg4cjgvgi0EA7CsgJBvCvGy2gSMa9uD2hw4EVWwo1cK159kaCamNzm8q5zfJwHJSVScjNB5buKvoJdbG2TeAVW/SRY82WOUfOC08WHR5O8loXDtfV2tg1SBzT/UPNvmpb0hWfOsmdTTG5ruR7J9VXNgtBjkY8fK5rvAhOqX+alLDxHmFNV3/HrxIP9T5HzV3ovj7U3aspHc7cqfWM3qm8tyZ1omdte/8AqKnfRvHSzOd3pD5ABV5a3Ve87S4+ZVnXAb/oo95kP87h9k7tC8U7Ry8FMWT91Y53Bx6kDzUkUav/ADZtjcBi9zG+YJ8gpKod0lu/08Y2v9GlK6QXzs5p/Xu0aaQ8Cq3RZWFTqGRWzcmxdVZGVFC+rz+bDyAVTgV0DXoV42WLNYxvda0eAolVqvua1u839E+sKMGR79wA6/pepGAggioOgjUQdqqS9GRjZZiwfs3Vcw/TrbxGHgrgXGvLkgWmEsweNLHbHbOBwWCjqNTJwOPqm1o0YqYrh+Qw8x8zVPovckZaS1wIIJBBxBGggrwqQG/aotFaFx8t9dF1Tz7yMDi5mp3HUeW1VetzJdvdBK2WPFpw1OGtp4rNVwCaO7MbR84rdQVZppQ7I7Dy9lbF4Mqts0LpHY4Nb3nnAffkqgnmc9znvNXOJJO0lde9WXfapQW1EbBRoOOnFx3/AKLhrlQ02qZe7E/Ll2tSt18ui38Rhx4+nXNERFuStbNgsbppGxRirnGg3DWTuAVxZKyeyCJkTMGjHWTrcd5KjtwsidXH7RIO3IOyO6zHxOg8gpgkFfU61+g3AeKrbJo9THrHfk7uHzata3WUSxvjdg9paeYoqSljLXFpxaSDxBoVepVO3qhzLXO0d+v+4B33XWy3/c5vas9uxgtY/iR1XJQIidKaU66MJtMzNzHeoP2U/Va9GrqWh42xnyc1WUp20BdOezwVlZDtKlbzPiuTeeHPssw/+NxHFozh6KnFd2Um1ikG1jx/KVSLVtso3scOISy3h/Iw8D4+6k//AJmRRlFr+ki3JT9XLvX1tAo9w2OcPMq0LhH/AEUXGT/9HKtssR5s8rdj3f1FWB0cyVspHdkcPEA/dZrQ204PEeBTKyPtq3N4OHePRSxQ3pMb7mM/X/aVMlFekOGtkLu49h5Grf7gldIbp2c09tBt9LIOB7tqrFYQoqdQ6+1m+NvEeoV4hUQrvydMHxMePma0+ICT2qPwPPyVFYLv7G8vNbSxRZRKFRKvukHIdD7TGNBoJANRwD/seShCvG0QNe1zHirXAgjaCqfy9kp1mmdE7DFju8w4HjqPBO7NqdJurdiMOXt4KXtij0H65uBx4H38VzURE0SNEREIRd+6GRfaZu0Pdx0L9hOpnPXuC4tngc9zWMFXOIaBtJVwZByW2zQtibpOLnd5xxKw19RqmaIxPcE0suj18mk4fa3vOQ8yulRekRTysFgqpb7/APrZvyf0NVtqmLxWjrLVM8a3OHJvZHomVltOtJ4eYSS3XXQNH+3kVzURE9Uspb0aitpcdkbv6mqzFXvRjD7yZ+xrW+JJ+ysJT1om+oPZ4KxscXUo5nxWrlA0iefod6FUe1XPeKXMs0ztkb/EggeZVM6lrsoXNceIS23j97BwPj7Isrs/+AvRMNfHvHVJtRJuXq+dnzLZKO8Q8fmAr51Ug6MbR+2j/C4eYP2Wv0lWSkkUo+ZpYeLTUeTj4LmXHtvV2tgOEgcw8xUeYHisbhraLs8D7Jo0/T2ltwLu537VsLm5fsvW2aVg0ksdT8QFR5gLohCkYJBBCqHtDmlpzVDouneGwdRaJI9QdVv4XaR+nJcxVjHBzQ4YFfn72Fji12I2IrO6P7fn2bqye1ES38p0tPDEflVYrs3Wyv7NO15+B3Zf+Hvcjp8VmrYDLEQMRtHzittm1IgnDjgdh5b+xXAi+UbwQCNIOkHaDgV9VNq1RR69+RfaYTmj3jKlu/azn60UhWCvbHljg5uIXOWNsjCx2BVEEbfBYVhXguY6WYyQuY0O0ua6vx6yKaj61XN/6f2j+JH/ADfoqBldC5oJcAdykJLKqWuIDbxvF3qoegUw/wCn0/8AFi/m/RfSy3Akz29bIzMqM4NzqkbBUa8F6NbABfpBeRZlUf8Aoe71W30fZEoPapBpdURg6m6388Bu4qcr5xMDQGtFANAAwAC+qn5pTK8vPwKtpadsEQjbljxO9ERYK5LQufly3CCCSU4tHZ3uOho8aKma7VLukDLPWPFnYezGavO1+zl6ncoeU/s6Esj0ji7wyUjbFSJZtFuDdnbmiIvccZcQ1oqXEADaSaAJhelKsno5s2bZi/XI9x5N7I8wVLVpZMsghijiHyNa3iQNJ8VuqUmk1kjnbyr2mi1UTY9wHuo1f2fNsbh3i0edT5AqsLPEXvawYuc1viQFNOky11dFCDgHPI49lvo5cO5dk6y2RDU2rzwaNHmQnNH/AB0peeJ8gpy0f5q4Rj/UeZVnf+GNRbtUSTSdvVJqItwUdvzYetsriB2oyHjgNDvIlVbFKWua5ugtIcDvBqFeD2hwIOBFDwKpnLFgME74j8rjm7wdLT4JtZct4MZ5jzSG3ISHNmHLtG0fOCt/JtrE0TJW4OAPPWORqFtFQfo4ypVrrM46W1ezgT2gOZrzU5CWzxaqQs3eCd0k4nhbJvx5596hPSLkvOYy0NxZod+E/CeR/qVeq8rTC17HMeKtcC0jaDoVO5byY6zzOidXQatPeYcHf811TWzJ726o4jDkkNtUui/XNwOw8/cd656IiaJEprcq8wZSzzmjcI3n5fodu2FWECqIUqu5e98FI5qyR4A4uYN1fiG5KaygJJfH2j0VBZtqhoEU2GR9fXqrPRaOT8oxTNz4Xhw3YjcRiDxW6EnIINxVE1wcLwVlERfF6RERCERF8Z52saXPcGgYkmg8ShfCbl9VFb33lEDTFEazOGk/wxtO/YOa5l4b7VBjsnAykf0g+pUGe4kkkkkmpJNSTtJ1lNaSgJIfKNm5IrQtZrRq4Tt37uXqhO1eUROlMoFKbg5L620daR2ItPF5+EchU+CjUMTnuDWAlziAANZOpW/kDJQs8LYxQnF57zzieGrgFgtCo1ceiMT4ZprZNLrZtM4N29uXr2LqhEKjt9cqdRZnZp7cnZbtFfiPIeZCQxsL3BozVXNK2Jhe7ABV5eO39faZJBgTmt/C3QP15qV9Gth0STnXRjeWlx9PBQRjCSA0VJIAG0nQArlyJYOogjiHyt073HS4+JKc2g8RQiNufgPgU1ZMZmqXTOy29pW+iURI7uKqVmihPSLknOY20MGlnZf+AnQeR9VN18Z4g9pa4Va4EEbQdC7QymJ4eMlnqoBPEYzn3HIql8nW10MrJWYsNeI1tPEVCuPJ9sbNG2Vhq1wqPuDvB0KpMv5JdZpnRHDFju8w4cxgeC7Nxsu9S/qZD7uQ9knBjzo8Do5pvWwiaISx7bh1HzzU9ZlSaaYwSbAT0PocOisxcC9mQhaYuzQSsqWHbtYTsPqu+EKSxvcxwc3EKllibKwseNhVFSMLSWuBBBIIOIIxBXhWVe+6/X1mhFJRi3ASAf3b1W72EEgggjQQdBBGohUtNUtnbeMcwouso30z9F2GR3ryiLK0LGp50Z2P9tMfpYOXad6hTxcG5tl6uyRDW8GQ/n0jyou8piqk05nO4+CuaCLVUzG8L+u1ERFnWtEREIRRy/Vj6yyPOuMh44DQfIlSNfC0wB7HMdg5paeBFCvcbyx4duK5TxiWNzDmCFRqL6SxlpLXYtJaeINCvmqzFQF12KIimV0Lql5E9obRg0sYfmPecO7u1+vKaZsLdJ37Wimpnzv0GfriVv3Du9mD2mUdoj3bTi0HFx3nVu4qbhAimZpXSvL3K1pqdkEYjZ+zvXlzqAkqpL2ZX9pnLmn3bOwzeNbuZ8gFKb+5ezG+zRHtuHvCPlafl4n04qA2Wzuke2Ngq5xDQN5TSz6fRGud2csz5dUitir03fTs7eeQ+Z8lJbgZJ62brnDsRYb3nDwx8FZy52RMmts8LYm6tJPeccSuil9VPrpC7LLknFBTfTwhmeJ5+2CIiLOtiLFFlEIXCvRkMWqIgUEjdLDv1tO4qp5oi0lrgQQSCDiCMQVehCiF87tdcDNCPegdpo/eAf3DzwTGgq9WdB+B7iktq2frhrYx9wxG8eo9l87k3l6wCzzHtgdhx+cDUfqHmpmqJBINdIIPAgj0KsW6d7BLSGc0kwa/VJx2O9V7rqLRJkjGzMbvncudmWmHARSnbkd/A8VMaKN3lusy0jPZRkvepoduePvipJVEujkdG4OadqczQsmYWPF4VJZRyfJA/MmaWu8iNrTrC+djgMj2RjF5DfE0VzW+wRzMzJWBw36jtBxB3hR6wXNbDaWTMfVjanMd8QNCBQ6xp1pvHabSw6Qud3H0U9LYr2yDQN7SRfvA81KYow1oa3QAABwAoF9FgLKSqmRERCEREQhEREIVSX2snV2yTY+jx+bHzBXGihc9wawFzjoAAqTwVnXnuz7XJE7PDA0Oa/RVxFQW5urb4ro5HyJDZhSJoqcXnS88T9gnDLRayFoxdd87lNyWRJJUOODb778Tt27Bz3qO3auYGES2qhdiI8WtP1d47sOKm1EolUrlmfK7SeU9p6aOBmhGNnjzRcG9GX22aPRQyu+Buz6nbh5peW8cdlbT4pSOyzZ9Ttg9VVtttb5XmSV2c52kk+g2DctdHRmU6Tvx8UvtK0hADHGfu8PfgvFomL3F7zVziTU4knWrCuLkDqm+0SDtvHZB+Rp17ifRcq5V2esLbRO3sDSxp+c6nH6Rq2qxgu9fVA/xMwz9B8yWayaA36+XsHn6dUosoiUqgRERCEREQhFiiyiEKHXtup1tZrOAJMXNwD942O9VXT2EEhwIIOkHQQRt2FXqVH7x3ZjtQzh2JRg8DQdzxrHmmVJXmO5kmGR3JJaFlCW+SL8sxv8AdRm7d83RgR2qrmYCTFzR9XeG/Hip/Z52PaHscHNOkEGoKpzKmTZbO/MmaRsPyne0616yTliazuzon02tOkO4j7jStM9AyUacRHkfTw5LHS2rJAdXOCQOo9fFXSiiOSL8QyUbP7p23Fp56ualMUrXAOaQ4HAggg8CEokifGbni5UMNRHML4zf8zX1RYqsrmuyIiIQiIiEIiIhCLFUKj2Vr2WeGoDusd3WUIB3uwC9sjc83NF65yzMiGk8gBSB7gMTRQy8V9WsrHZqOdgZMWt/D3j5cVFst3lntNQ52ZH/AA24H8Rxd6blyrLZnyODI2uc44ACp/wN6a09nhv3zdMu0+nVT9XbDn/ZT7OOfYPh5LE8znkue4ucdJJNSTtJUtundIyETWltGYtjOLt7hqbu1rrXbua2Kkloo9+Ibi1nHvHyUvAXmrrwRoRdfIevRdKCyjfrZ8d3mfTqsNbSgAoAvaIlKoEREQhEREIRERCEREQhFgrKIQtW12RkrSyRoc04givhsKg+WriOFXWV1R/DcdI/C7Xz8VYSLtDUSQm9h7MlmqaOKoF0g7cx84qjLVZnxuzZGuY4anCh/wAr7WDKUsJrDI5m4HQeIOgq47ZZI5G5srA8bCAfDYovlG4UTqmB7ozsPab+o8U0jtGN40ZRd3jokM1jTRnShdf3H0XIsF/pm6JoxJvFWO+4Pku9Zb9WV3x58Z3tqPFtVFbbcu1M+FrZBta4V5h1CuLarDLGaSRubxaQPFe/pqSbawjsPl7Ln9bX0+yQHtHmPVWxBeKyvwnZ+Y5p/mottuUYThLGfzt/VUmsUXg2Uw4OPRdRb0mbB1Ku52UIRjJH/vb+q1pcvWZvxTx8A4E+A0qmqIvgspubj0X029JkwdT7K07RfWyNweXcGn1dRcS3dILjohhA2Oca/wArf1UNhsz3mjGFx+lpPouvY7o2uT91mDa4hvlpPkun0dLFteep8guf+Rrp9jB0afE3rVyll20T/tZXEd0dlvgMea50bCSGtBJOgACpPAKeZPuA3G0SZ30tFBzcf0ClWTckwwfso2t1VxceLjpK8vtCGIaMYv5bB87F9jsmpmOlM67mbz6dVA8i3Imlo6c9UzZi88sG8/BTzJeSYbO3NhYBtOLncSuiiWT1Uk35HZuGCeU1BDT/AIDbvOPt2LAWURZ1sRERCEREQhEREIRERCEREQhEREIRERC+FeQslEXw4L7ksLzaPhKwi9f9l4d+JVc3q1qJIio6L+oKKrv7UXcu18SIulT/AFFcqf8AsCs/Jn7MLcKIpk/kVcQf1jkvIXoIi8DNdVlERfV8CIiIX1EREIRERCEREQhf/9k=;container=0;" vertex="1" parent="1">
          <mxGeometry x="260" y="-1326.5" width="35" height="35" as="geometry" />
        </mxCell>
        <mxCell id="mxeymXjgRgd7a33eONCe-35" value="BOI Cloudera&amp;nbsp;&lt;span style=&quot;background-color: initial;&quot;&gt;CDP Account&lt;/span&gt;" style="points=[[0,0],[0.25,0],[0.5,0],[0.75,0],[1,0],[1,0.25],[1,0.5],[1,0.75],[1,1],[0.75,1],[0.5,1],[0.25,1],[0,1],[0,0.75],[0,0.5],[0,0.25]];outlineConnect=0;gradientColor=none;html=1;whiteSpace=wrap;fontSize=12;fontStyle=0;container=0;pointerEvents=0;collapsible=0;recursiveResize=0;shape=mxgraph.aws4.group;grIcon=mxgraph.aws4.group_account;strokeColor=#CD2264;fillColor=none;verticalAlign=top;align=left;spacingLeft=30;fontColor=#CD2264;dashed=0;" vertex="1" parent="1">
          <mxGeometry x="-600" y="-830.41" width="1600" height="910" as="geometry" />
        </mxCell>
        <mxCell id="mxeymXjgRgd7a33eONCe-36" style="edgeStyle=orthogonalEdgeStyle;rounded=1;orthogonalLoop=1;jettySize=auto;html=1;strokeColor=#FF0000;align=center;verticalAlign=middle;fontFamily=Helvetica;fontSize=11;fontColor=default;labelBackgroundColor=default;endArrow=classic;curved=0;" edge="1" parent="1" source="mxeymXjgRgd7a33eONCe-37" target="mxeymXjgRgd7a33eONCe-129">
          <mxGeometry relative="1" as="geometry">
            <Array as="points">
              <mxPoint x="220" y="60" />
              <mxPoint x="98" y="60" />
            </Array>
          </mxGeometry>
        </mxCell>
        <mxCell id="mxeymXjgRgd7a33eONCe-37" value="BOI CSSP&amp;nbsp;&lt;div&gt;Networking&amp;nbsp;&lt;/div&gt;&lt;div&gt;Account&lt;/div&gt;" style="points=[[0,0],[0.25,0],[0.5,0],[0.75,0],[1,0],[1,0.25],[1,0.5],[1,0.75],[1,1],[0.75,1],[0.5,1],[0.25,1],[0,1],[0,0.75],[0,0.5],[0,0.25]];outlineConnect=0;gradientColor=none;html=1;whiteSpace=wrap;fontSize=12;fontStyle=0;container=0;pointerEvents=0;collapsible=0;recursiveResize=0;shape=mxgraph.aws4.group;grIcon=mxgraph.aws4.group_account;strokeColor=#CD2264;fillColor=none;verticalAlign=top;align=left;spacingLeft=30;fontColor=#CD2264;dashed=0;" vertex="1" parent="1">
          <mxGeometry x="-25" y="119" width="490" height="120" as="geometry" />
        </mxCell>
        <mxCell id="mxeymXjgRgd7a33eONCe-38" value="VPC" style="points=[[0,0],[0.25,0],[0.5,0],[0.75,0],[1,0],[1,0.25],[1,0.5],[1,0.75],[1,1],[0.75,1],[0.5,1],[0.25,1],[0,1],[0,0.75],[0,0.5],[0,0.25]];outlineConnect=0;gradientColor=none;html=1;whiteSpace=wrap;fontSize=12;fontStyle=0;container=0;pointerEvents=0;collapsible=0;recursiveResize=0;shape=mxgraph.aws4.group;grIcon=mxgraph.aws4.group_vpc2;strokeColor=#8C4FFF;fillColor=none;verticalAlign=top;align=left;spacingLeft=30;fontColor=#AAB7B8;dashed=0;" vertex="1" parent="1">
          <mxGeometry x="120" y="-989.59" width="200" height="99.18" as="geometry" />
        </mxCell>
        <mxCell id="mxeymXjgRgd7a33eONCe-39" value="Transit Gateway" style="sketch=0;points=[[0,0,0],[0.25,0,0],[0.5,0,0],[0.75,0,0],[1,0,0],[0,1,0],[0.25,1,0],[0.5,1,0],[0.75,1,0],[1,1,0],[0,0.25,0],[0,0.5,0],[0,0.75,0],[1,0.25,0],[1,0.5,0],[1,0.75,0]];outlineConnect=0;fontColor=#232F3E;fillColor=#8C4FFF;strokeColor=#ffffff;dashed=0;verticalLabelPosition=bottom;verticalAlign=top;align=center;html=1;fontSize=12;fontStyle=0;aspect=fixed;shape=mxgraph.aws4.resourceIcon;resIcon=mxgraph.aws4.transit_gateway;container=0;" vertex="1" parent="1">
          <mxGeometry x="385.25" y="-964" width="48" height="48" as="geometry" />
        </mxCell>
        <mxCell id="mxeymXjgRgd7a33eONCe-40" value="BOI Fortigate Firewall" style="image;aspect=fixed;perimeter=ellipsePerimeter;html=1;align=center;shadow=0;dashed=0;spacingTop=3;image=img/lib/active_directory/firewall.svg;container=0;" vertex="1" parent="1">
          <mxGeometry x="200.3" y="-986.6800000000001" width="39.4" height="64.59" as="geometry" />
        </mxCell>
        <mxCell id="mxeymXjgRgd7a33eONCe-41" value="BOI CSSP&amp;nbsp;&lt;div&gt;&lt;span style=&quot;background-color: initial;&quot;&gt;Networking&amp;nbsp;&lt;/span&gt;&lt;div&gt;Account&lt;/div&gt;&lt;/div&gt;" style="points=[[0,0],[0.25,0],[0.5,0],[0.75,0],[1,0],[1,0.25],[1,0.5],[1,0.75],[1,1],[0.75,1],[0.5,1],[0.25,1],[0,1],[0,0.75],[0,0.5],[0,0.25]];outlineConnect=0;gradientColor=none;html=1;whiteSpace=wrap;fontSize=12;fontStyle=0;container=0;pointerEvents=0;collapsible=0;recursiveResize=0;shape=mxgraph.aws4.group;grIcon=mxgraph.aws4.group_account;strokeColor=#CD2264;fillColor=none;verticalAlign=top;align=left;spacingLeft=30;fontColor=#CD2264;dashed=0;" vertex="1" parent="1">
          <mxGeometry x="-25" y="-1000" width="490" height="120" as="geometry" />
        </mxCell>
        <mxCell id="mxeymXjgRgd7a33eONCe-42" value="Cloudera CDP VPC" style="points=[[0,0],[0.25,0],[0.5,0],[0.75,0],[1,0],[1,0.25],[1,0.5],[1,0.75],[1,1],[0.75,1],[0.5,1],[0.25,1],[0,1],[0,0.75],[0,0.5],[0,0.25]];outlineConnect=0;gradientColor=none;html=1;whiteSpace=wrap;fontSize=12;fontStyle=0;container=0;pointerEvents=0;collapsible=0;recursiveResize=0;shape=mxgraph.aws4.group;grIcon=mxgraph.aws4.group_vpc2;strokeColor=#8C4FFF;fillColor=none;verticalAlign=top;align=left;spacingLeft=30;fontColor=#AAB7B8;dashed=0;" vertex="1" parent="1">
          <mxGeometry x="-350" y="-737.5" width="1240" height="580" as="geometry" />
        </mxCell>
        <mxCell id="mxeymXjgRgd7a33eONCe-43" style="edgeStyle=orthogonalEdgeStyle;rounded=1;orthogonalLoop=1;jettySize=auto;html=1;curved=0;dashed=1;strokeColor=#FF9933;exitX=0.25;exitY=1;exitDx=0;exitDy=0;entryX=0.25;entryY=0;entryDx=0;entryDy=0;entryPerimeter=0;" edge="1" parent="1" source="mxeymXjgRgd7a33eONCe-46" target="mxeymXjgRgd7a33eONCe-114">
          <mxGeometry relative="1" as="geometry">
            <mxPoint x="645.2500000000002" y="-400" as="sourcePoint" />
            <mxPoint x="222.75000000000023" y="-340" as="targetPoint" />
            <Array as="points">
              <mxPoint x="724" y="-400" />
              <mxPoint x="460" y="-400" />
              <mxPoint x="460" y="-350" />
              <mxPoint x="397" y="-350" />
            </Array>
          </mxGeometry>
        </mxCell>
        <mxCell id="mxeymXjgRgd7a33eONCe-44" style="edgeStyle=orthogonalEdgeStyle;rounded=1;orthogonalLoop=1;jettySize=auto;html=1;entryX=0.25;entryY=0;entryDx=0;entryDy=0;dashed=1;curved=0;strokeColor=#FF9933;" edge="1" parent="1" source="mxeymXjgRgd7a33eONCe-46" target="mxeymXjgRgd7a33eONCe-56">
          <mxGeometry relative="1" as="geometry">
            <Array as="points">
              <mxPoint x="724" y="-400" />
              <mxPoint x="724" y="-400" />
            </Array>
          </mxGeometry>
        </mxCell>
        <mxCell id="mxeymXjgRgd7a33eONCe-45" value="&lt;div style=&quot;font-size: 9px;&quot;&gt;CCM&lt;/div&gt;&lt;font style=&quot;font-size: 9px;&quot;&gt;HTTPS /&amp;nbsp;TLS 1.2&lt;/font&gt;&lt;div style=&quot;font-size: 9px;&quot;&gt;&lt;font style=&quot;font-size: 9px;&quot;&gt;Port 443&lt;/font&gt;&lt;/div&gt;" style="edgeLabel;html=1;align=center;verticalAlign=middle;resizable=0;points=[];" vertex="1" connectable="0" parent="mxeymXjgRgd7a33eONCe-44">
          <mxGeometry x="-0.2221" y="-1" relative="1" as="geometry">
            <mxPoint x="-3" y="-3" as="offset" />
          </mxGeometry>
        </mxCell>
        <mxCell id="mxeymXjgRgd7a33eONCe-46" value="&lt;font color=&quot;#ff0000&quot;&gt;FreeIPA&lt;/font&gt;" style="rounded=0;whiteSpace=wrap;html=1;verticalAlign=top;" vertex="1" parent="1">
          <mxGeometry x="685" y="-719" width="155" height="269" as="geometry" />
        </mxCell>
        <mxCell id="mxeymXjgRgd7a33eONCe-47" value="&lt;font style=&quot;font-size: 10px;&quot;&gt;PAM/SSSD&lt;/font&gt;" style="rounded=0;whiteSpace=wrap;html=1;" vertex="1" parent="1">
          <mxGeometry x="722.5" y="-693" width="80" height="30" as="geometry" />
        </mxCell>
        <mxCell id="mxeymXjgRgd7a33eONCe-48" value="&lt;font style=&quot;font-size: 10px;&quot;&gt;Kerberos KDC&lt;/font&gt;" style="rounded=0;whiteSpace=wrap;html=1;" vertex="1" parent="1">
          <mxGeometry x="722.5" y="-653" width="80" height="30" as="geometry" />
        </mxCell>
        <mxCell id="mxeymXjgRgd7a33eONCe-49" value="&lt;font style=&quot;font-size: 10px;&quot;&gt;DNS&lt;/font&gt;" style="rounded=0;whiteSpace=wrap;html=1;" vertex="1" parent="1">
          <mxGeometry x="722.5" y="-613" width="80" height="30" as="geometry" />
        </mxCell>
        <mxCell id="mxeymXjgRgd7a33eONCe-50" value="&lt;font style=&quot;font-size: 10px;&quot;&gt;Certificate Authority&lt;/font&gt;" style="rounded=0;whiteSpace=wrap;html=1;" vertex="1" parent="1">
          <mxGeometry x="722.5" y="-573" width="80" height="30" as="geometry" />
        </mxCell>
        <mxCell id="mxeymXjgRgd7a33eONCe-51" value="&lt;font style=&quot;font-size: 10px;&quot;&gt;LDAP&lt;/font&gt;" style="rounded=0;whiteSpace=wrap;html=1;" vertex="1" parent="1">
          <mxGeometry x="722.5" y="-491" width="80" height="30" as="geometry" />
        </mxCell>
        <mxCell id="mxeymXjgRgd7a33eONCe-52" style="edgeStyle=orthogonalEdgeStyle;rounded=1;orthogonalLoop=1;jettySize=auto;html=1;curved=0;strokeColor=#FF0000;exitX=1;exitY=0.5;exitDx=0;exitDy=0;jumpStyle=line;" edge="1" parent="1" source="mxeymXjgRgd7a33eONCe-177" target="mxeymXjgRgd7a33eONCe-100">
          <mxGeometry relative="1" as="geometry">
            <mxPoint x="717.52" y="-289.3600000000001" as="sourcePoint" />
            <mxPoint x="-420" y="-674.5" as="targetPoint" />
            <Array as="points">
              <mxPoint x="960" y="-270" />
              <mxPoint x="960" y="-770" />
              <mxPoint x="-430" y="-770" />
            </Array>
          </mxGeometry>
        </mxCell>
        <mxCell id="mxeymXjgRgd7a33eONCe-53" value="&lt;font style=&quot;font-size: 9px;&quot;&gt;Ranger Audit Logs&lt;/font&gt;&lt;div style=&quot;font-size: 9px;&quot;&gt;&lt;font style=&quot;font-size: 9px;&quot;&gt;&amp;nbsp;to S3&lt;/font&gt;&lt;/div&gt;&lt;div style=&quot;font-size: 9px;&quot;&gt;&lt;font style=&quot;font-size: 9px;&quot;&gt;HTTPS/TLS 1.2&lt;/font&gt;&lt;/div&gt;&lt;div style=&quot;font-size: 9px;&quot;&gt;&lt;font style=&quot;font-size: 9px;&quot;&gt;AWS IAM&lt;/font&gt;&lt;/div&gt;" style="edgeLabel;html=1;align=center;verticalAlign=middle;resizable=0;points=[];" vertex="1" connectable="0" parent="mxeymXjgRgd7a33eONCe-52">
          <mxGeometry x="-0.8075" relative="1" as="geometry">
            <mxPoint y="-16" as="offset" />
          </mxGeometry>
        </mxCell>
        <mxCell id="mxeymXjgRgd7a33eONCe-54" style="edgeStyle=orthogonalEdgeStyle;rounded=0;orthogonalLoop=1;jettySize=auto;html=1;strokeColor=#FF0000;entryX=0.942;entryY=1.002;entryDx=0;entryDy=0;entryPerimeter=0;" edge="1" parent="1" target="mxeymXjgRgd7a33eONCe-46">
          <mxGeometry relative="1" as="geometry">
            <Array as="points" />
            <mxPoint x="831" y="-340" as="sourcePoint" />
            <mxPoint x="831" y="-400" as="targetPoint" />
          </mxGeometry>
        </mxCell>
        <mxCell id="mxeymXjgRgd7a33eONCe-55" value="&lt;font style=&quot;font-size: 9px;&quot;&gt;SSSD/PAM&lt;/font&gt;&lt;div style=&quot;font-size: 9px;&quot;&gt;&lt;font style=&quot;font-size: 9px;&quot;&gt;LDAPs / TLS 1.2&amp;nbsp;&lt;/font&gt;&lt;/div&gt;&lt;div style=&quot;font-size: 9px;&quot;&gt;&lt;font style=&quot;font-size: 9px;&quot;&gt;Port 636&lt;/font&gt;&lt;/div&gt;&lt;div style=&quot;font-size: 9px;&quot;&gt;&lt;font style=&quot;font-size: 9px;&quot;&gt;Kerberos&lt;/font&gt;&lt;/div&gt;" style="edgeLabel;html=1;align=center;verticalAlign=middle;resizable=0;points=[];" vertex="1" connectable="0" parent="mxeymXjgRgd7a33eONCe-54">
          <mxGeometry x="0.2734" relative="1" as="geometry">
            <mxPoint x="44" y="-2" as="offset" />
          </mxGeometry>
        </mxCell>
        <mxCell id="mxeymXjgRgd7a33eONCe-56" value="&lt;font color=&quot;#ff0000&quot;&gt;CDP Data Lake&lt;/font&gt;" style="rounded=0;whiteSpace=wrap;html=1;verticalAlign=top;" vertex="1" parent="1">
          <mxGeometry x="685" y="-390" width="155" height="210" as="geometry" />
        </mxCell>
        <mxCell id="mxeymXjgRgd7a33eONCe-57" value="&lt;font style=&quot;font-size: 10px;&quot;&gt;Apache&amp;nbsp;&lt;/font&gt;&lt;div&gt;&lt;font style=&quot;font-size: 10px;&quot;&gt;Ranger&lt;/font&gt;&lt;/div&gt;" style="rounded=0;whiteSpace=wrap;html=1;" vertex="1" parent="1">
          <mxGeometry x="722.5" y="-284.5" width="80" height="30" as="geometry" />
        </mxCell>
        <mxCell id="mxeymXjgRgd7a33eONCe-58" value="&lt;font style=&quot;font-size: 10px;&quot;&gt;Apache&amp;nbsp;&lt;/font&gt;&lt;div style=&quot;font-size: 10px;&quot;&gt;&lt;font style=&quot;font-size: 10px;&quot;&gt;Atlas&lt;/font&gt;&lt;/div&gt;" style="rounded=0;whiteSpace=wrap;html=1;" vertex="1" parent="1">
          <mxGeometry x="722.5" y="-249.5" width="80" height="30" as="geometry" />
        </mxCell>
        <mxCell id="mxeymXjgRgd7a33eONCe-59" style="edgeStyle=orthogonalEdgeStyle;rounded=1;orthogonalLoop=1;jettySize=auto;html=1;curved=0;dashed=1;strokeColor=#FF9933;" edge="1" parent="1" source="mxeymXjgRgd7a33eONCe-61" target="mxeymXjgRgd7a33eONCe-148">
          <mxGeometry relative="1" as="geometry" />
        </mxCell>
        <mxCell id="mxeymXjgRgd7a33eONCe-60" value="&lt;div style=&quot;font-size: 9px;&quot;&gt;&lt;font style=&quot;font-size: 9px;&quot;&gt;Hive Metadata DB&lt;/font&gt;&lt;/div&gt;&lt;div style=&quot;font-size: 9px;&quot;&gt;&lt;font style=&quot;font-size: 9px;&quot;&gt;JDBC / TLS 1.2&lt;br&gt;&lt;/font&gt;&lt;/div&gt;&lt;div style=&quot;font-size: 9px;&quot;&gt;&lt;font style=&quot;font-size: 9px;&quot;&gt;Port 5432&lt;/font&gt;&lt;/div&gt;&lt;div style=&quot;font-size: 9px;&quot;&gt;&lt;font style=&quot;font-size: 9px;&quot;&gt;Username / Password&lt;/font&gt;&lt;/div&gt;" style="edgeLabel;html=1;align=center;verticalAlign=middle;resizable=0;points=[];" vertex="1" connectable="0" parent="mxeymXjgRgd7a33eONCe-59">
          <mxGeometry x="-0.1127" relative="1" as="geometry">
            <mxPoint y="6" as="offset" />
          </mxGeometry>
        </mxCell>
        <mxCell id="mxeymXjgRgd7a33eONCe-61" value="&lt;font style=&quot;font-size: 10px;&quot;&gt;Hive Metastore&lt;/font&gt;" style="rounded=0;whiteSpace=wrap;html=1;" vertex="1" parent="1">
          <mxGeometry x="722.5" y="-213.5" width="80" height="30" as="geometry" />
        </mxCell>
        <mxCell id="mxeymXjgRgd7a33eONCe-62" value="&lt;font style=&quot;font-size: 10px;&quot;&gt;HDFS / EBS&lt;/font&gt;" style="shape=datastore;whiteSpace=wrap;html=1;strokeColor=#FF0000;" vertex="1" parent="1">
          <mxGeometry x="790" y="-248.38" width="70" height="27.75" as="geometry" />
        </mxCell>
        <mxCell id="mxeymXjgRgd7a33eONCe-63" style="edgeStyle=orthogonalEdgeStyle;rounded=0;orthogonalLoop=1;jettySize=auto;html=1;strokeColor=#FF0000;" edge="1" parent="1" source="mxeymXjgRgd7a33eONCe-77" target="mxeymXjgRgd7a33eONCe-100">
          <mxGeometry relative="1" as="geometry">
            <Array as="points">
              <mxPoint x="-170" y="-640" />
              <mxPoint x="-170" y="-640" />
            </Array>
          </mxGeometry>
        </mxCell>
        <mxCell id="mxeymXjgRgd7a33eONCe-64" value="&lt;div style=&quot;font-size: 9px;&quot;&gt;&lt;font style=&quot;font-size: 9px;&quot;&gt;HBase Region Server to S3 (HFiles)&lt;/font&gt;&lt;/div&gt;&lt;div style=&quot;font-size: 9px;&quot;&gt;&lt;font style=&quot;font-size: 9px;&quot;&gt;HTTPS / TLS 1.2&lt;/font&gt;&lt;/div&gt;&lt;div style=&quot;font-size: 9px;&quot;&gt;&lt;font style=&quot;font-size: 9px;&quot;&gt;AWS IAM&lt;/font&gt;&lt;/div&gt;" style="edgeLabel;html=1;align=center;verticalAlign=middle;resizable=0;points=[];" vertex="1" connectable="0" parent="mxeymXjgRgd7a33eONCe-63">
          <mxGeometry x="0.0657" y="3" relative="1" as="geometry">
            <mxPoint x="-42" y="-1" as="offset" />
          </mxGeometry>
        </mxCell>
        <mxCell id="mxeymXjgRgd7a33eONCe-65" style="edgeStyle=orthogonalEdgeStyle;rounded=1;orthogonalLoop=1;jettySize=auto;html=1;curved=0;strokeColor=#FF0000;entryX=0;entryY=0.5;entryDx=0;entryDy=0;" edge="1" parent="1" source="mxeymXjgRgd7a33eONCe-77" target="mxeymXjgRgd7a33eONCe-56">
          <mxGeometry relative="1" as="geometry">
            <mxPoint x="565" y="-290" as="targetPoint" />
            <Array as="points">
              <mxPoint x="490" y="-480" />
              <mxPoint x="490" y="-285" />
            </Array>
          </mxGeometry>
        </mxCell>
        <mxCell id="mxeymXjgRgd7a33eONCe-66" value="&lt;font style=&quot;font-size: 9px;&quot;&gt;Atlas Hook&lt;/font&gt;&lt;div style=&quot;font-size: 9px;&quot;&gt;&lt;font style=&quot;font-size: 9px;&quot;&gt;Kafka / TLS 1.2&lt;/font&gt;&lt;/div&gt;&lt;div style=&quot;font-size: 9px;&quot;&gt;&lt;font style=&quot;font-size: 9px;&quot;&gt;Port 9094&lt;/font&gt;&lt;/div&gt;&lt;div style=&quot;font-size: 9px;&quot;&gt;&lt;font style=&quot;font-size: 9px;&quot;&gt;Kerberos&lt;/font&gt;&lt;/div&gt;" style="edgeLabel;html=1;align=center;verticalAlign=middle;resizable=0;points=[];" vertex="1" connectable="0" parent="mxeymXjgRgd7a33eONCe-65">
          <mxGeometry x="0.441" relative="1" as="geometry">
            <mxPoint x="-19" as="offset" />
          </mxGeometry>
        </mxCell>
        <mxCell id="mxeymXjgRgd7a33eONCe-67" style="edgeStyle=orthogonalEdgeStyle;rounded=0;orthogonalLoop=1;jettySize=auto;html=1;entryX=0.652;entryY=0.002;entryDx=0;entryDy=0;dashed=1;strokeColor=#FF9933;entryPerimeter=0;" edge="1" parent="1" source="mxeymXjgRgd7a33eONCe-77" target="mxeymXjgRgd7a33eONCe-89">
          <mxGeometry relative="1" as="geometry">
            <Array as="points">
              <mxPoint x="280" y="-405" />
              <mxPoint x="281" y="-405" />
            </Array>
          </mxGeometry>
        </mxCell>
        <mxCell id="mxeymXjgRgd7a33eONCe-68" value="&lt;font style=&quot;font-size: 9px;&quot;&gt;Edge Node to&amp;nbsp;&lt;/font&gt;&lt;span style=&quot;font-size: 9px;&quot;&gt;Airflow (CDE CLI)&lt;/span&gt;&lt;div style=&quot;font-size: 9px;&quot;&gt;&lt;font style=&quot;font-size: 9px;&quot;&gt;HTTPS / TLS 1.2&lt;/font&gt;&lt;/div&gt;&lt;div style=&quot;font-size: 9px;&quot;&gt;&lt;font style=&quot;font-size: 9px;&quot;&gt;Port 443&lt;/font&gt;&lt;/div&gt;&lt;div style=&quot;font-size: 9px;&quot;&gt;&lt;font style=&quot;font-size: 9px;&quot;&gt;Secure Token&lt;/font&gt;&lt;/div&gt;" style="edgeLabel;html=1;align=center;verticalAlign=middle;resizable=0;points=[];" vertex="1" connectable="0" parent="mxeymXjgRgd7a33eONCe-67">
          <mxGeometry x="-0.2927" y="-1" relative="1" as="geometry">
            <mxPoint x="7" y="-15" as="offset" />
          </mxGeometry>
        </mxCell>
        <mxCell id="mxeymXjgRgd7a33eONCe-69" style="edgeStyle=orthogonalEdgeStyle;rounded=1;orthogonalLoop=1;jettySize=auto;html=1;curved=0;dashed=1;strokeColor=#FF9933;jumpStyle=line;" edge="1" parent="1" source="mxeymXjgRgd7a33eONCe-77" target="mxeymXjgRgd7a33eONCe-135">
          <mxGeometry relative="1" as="geometry">
            <Array as="points">
              <mxPoint x="430" y="-180" />
              <mxPoint x="430" y="-180" />
            </Array>
          </mxGeometry>
        </mxCell>
        <mxCell id="mxeymXjgRgd7a33eONCe-70" value="&lt;font style=&quot;font-size: 9px;&quot;&gt;Edge Node to S3&amp;nbsp;&lt;/font&gt;&lt;div&gt;&lt;span style=&quot;font-size: 9px;&quot;&gt;HTTPS/TLS 1.2&lt;/span&gt;&lt;div style=&quot;font-size: 9px;&quot;&gt;&lt;div&gt;&lt;font style=&quot;font-size: 9px;&quot;&gt;AWS IAM&lt;/font&gt;&lt;/div&gt;&lt;/div&gt;&lt;/div&gt;" style="edgeLabel;html=1;align=center;verticalAlign=middle;resizable=0;points=[];" vertex="1" connectable="0" parent="mxeymXjgRgd7a33eONCe-69">
          <mxGeometry x="-0.7685" y="-2" relative="1" as="geometry">
            <mxPoint x="12" y="-12" as="offset" />
          </mxGeometry>
        </mxCell>
        <mxCell id="mxeymXjgRgd7a33eONCe-71" style="edgeStyle=orthogonalEdgeStyle;rounded=1;orthogonalLoop=1;jettySize=auto;html=1;entryX=1;entryY=0.25;entryDx=0;entryDy=0;dashed=1;curved=0;strokeColor=#FF9933;jumpStyle=line;" edge="1" parent="1" source="mxeymXjgRgd7a33eONCe-77" target="mxeymXjgRgd7a33eONCe-104">
          <mxGeometry relative="1" as="geometry">
            <Array as="points">
              <mxPoint x="-120" y="-490" />
              <mxPoint x="-120" y="-295" />
            </Array>
          </mxGeometry>
        </mxCell>
        <mxCell id="mxeymXjgRgd7a33eONCe-72" value="&lt;font style=&quot;font-size: 9px;&quot;&gt;Edge Node Bash Logs to S3 (AWS CLI)&lt;/font&gt;&lt;div style=&quot;font-size: 9px;&quot;&gt;&lt;div&gt;&lt;div&gt;&lt;font style=&quot;font-size: 9px;&quot;&gt;HTTPS / TLS 1.2&lt;/font&gt;&lt;/div&gt;&lt;div&gt;&lt;font style=&quot;font-size: 9px;&quot;&gt;AWS IAM&amp;nbsp;&lt;/font&gt;&lt;/div&gt;&lt;/div&gt;&lt;/div&gt;" style="edgeLabel;html=1;align=center;verticalAlign=middle;resizable=0;points=[];" vertex="1" connectable="0" parent="mxeymXjgRgd7a33eONCe-71">
          <mxGeometry x="0.6705" relative="1" as="geometry">
            <mxPoint x="52" y="3" as="offset" />
          </mxGeometry>
        </mxCell>
        <mxCell id="mxeymXjgRgd7a33eONCe-73" style="edgeStyle=orthogonalEdgeStyle;rounded=1;orthogonalLoop=1;jettySize=auto;html=1;strokeColor=#FF0000;curved=0;" edge="1" parent="1" source="mxeymXjgRgd7a33eONCe-77" target="mxeymXjgRgd7a33eONCe-56">
          <mxGeometry relative="1" as="geometry">
            <Array as="points">
              <mxPoint x="640" y="-540" />
              <mxPoint x="640" y="-320" />
            </Array>
          </mxGeometry>
        </mxCell>
        <mxCell id="mxeymXjgRgd7a33eONCe-74" value="&lt;font style=&quot;font-size: 9px;&quot;&gt;&lt;font style=&quot;font-size: 9px;&quot;&gt;Ranger&amp;nbsp; Audit to&amp;nbsp;&lt;/font&gt;Solr&lt;/font&gt;&lt;div style=&quot;font-size: 9px;&quot;&gt;&lt;span style=&quot;font-size: 9px;&quot;&gt;HTTPS / TLS 1.2&lt;/span&gt;&lt;div style=&quot;&quot;&gt;&lt;font style=&quot;font-size: 9px;&quot;&gt;Port 8985&lt;/font&gt;&lt;/div&gt;&lt;/div&gt;&lt;div style=&quot;font-size: 9px;&quot;&gt;&lt;font style=&quot;font-size: 9px;&quot;&gt;Kerberos&lt;/font&gt;&lt;/div&gt;" style="edgeLabel;html=1;align=center;verticalAlign=middle;resizable=0;points=[];" vertex="1" connectable="0" parent="mxeymXjgRgd7a33eONCe-73">
          <mxGeometry x="-0.7893" y="1" relative="1" as="geometry">
            <mxPoint x="32" y="26" as="offset" />
          </mxGeometry>
        </mxCell>
        <mxCell id="mxeymXjgRgd7a33eONCe-75" style="edgeStyle=orthogonalEdgeStyle;rounded=0;orthogonalLoop=1;jettySize=auto;html=1;strokeColor=#FF0000;" edge="1" parent="1" source="mxeymXjgRgd7a33eONCe-77" target="mxeymXjgRgd7a33eONCe-46">
          <mxGeometry relative="1" as="geometry">
            <Array as="points">
              <mxPoint x="530" y="-660" />
              <mxPoint x="530" y="-660" />
            </Array>
          </mxGeometry>
        </mxCell>
        <mxCell id="mxeymXjgRgd7a33eONCe-76" value="&lt;font style=&quot;font-size: 9px;&quot;&gt;SSSD/PAM&lt;/font&gt;&lt;div style=&quot;font-size: 9px;&quot;&gt;&lt;font style=&quot;font-size: 9px;&quot;&gt;LDAPs / TLS 1.2&lt;/font&gt;&lt;/div&gt;&lt;div style=&quot;font-size: 9px;&quot;&gt;&lt;font style=&quot;font-size: 9px;&quot;&gt;Port 636&lt;/font&gt;&lt;/div&gt;&lt;div style=&quot;font-size: 9px;&quot;&gt;&lt;font style=&quot;font-size: 9px;&quot;&gt;Kerberos&lt;/font&gt;&lt;/div&gt;" style="edgeLabel;html=1;align=center;verticalAlign=middle;resizable=0;points=[];" vertex="1" connectable="0" parent="mxeymXjgRgd7a33eONCe-75">
          <mxGeometry x="0.1459" y="1" relative="1" as="geometry">
            <mxPoint x="-65" y="-1" as="offset" />
          </mxGeometry>
        </mxCell>
        <mxCell id="mxeymXjgRgd7a33eONCe-77" value="&lt;font color=&quot;#ff0000&quot;&gt;CDP Operational Datastore&lt;/font&gt;" style="rounded=0;whiteSpace=wrap;html=1;verticalAlign=top;" vertex="1" parent="1">
          <mxGeometry x="-10" y="-719" width="460" height="249" as="geometry" />
        </mxCell>
        <mxCell id="mxeymXjgRgd7a33eONCe-78" style="edgeStyle=orthogonalEdgeStyle;rounded=0;orthogonalLoop=1;jettySize=auto;html=1;exitX=0.5;exitY=0;exitDx=0;exitDy=0;strokeColor=#FF0000;" edge="1" parent="1">
          <mxGeometry relative="1" as="geometry">
            <Array as="points">
              <mxPoint x="91.38" y="-341" />
              <mxPoint x="91.38" y="-341" />
            </Array>
            <mxPoint x="91.38" y="-341" as="sourcePoint" />
            <mxPoint x="91.38" y="-471" as="targetPoint" />
          </mxGeometry>
        </mxCell>
        <mxCell id="mxeymXjgRgd7a33eONCe-79" value="&lt;div style=&quot;font-size: 9px;&quot;&gt;&lt;font style=&quot;font-size: 9px;&quot;&gt;Spark READ / WRITES to HBase&lt;/font&gt;&lt;/div&gt;&lt;font style=&quot;font-size: 9px;&quot;&gt;Phoenix Data Source API&lt;/font&gt;&lt;div style=&quot;font-size: 9px;&quot;&gt;RPC / SASL QoP&amp;nbsp;&lt;/div&gt;&lt;div style=&quot;font-size: 9px;&quot;&gt;Ports 16000,16020&lt;/div&gt;&lt;div style=&quot;font-size: 9px;&quot;&gt;Kerberos&lt;br&gt;&lt;/div&gt;" style="edgeLabel;html=1;align=center;verticalAlign=middle;resizable=0;points=[];" vertex="1" connectable="0" parent="mxeymXjgRgd7a33eONCe-78">
          <mxGeometry x="0.0667" y="-1" relative="1" as="geometry">
            <mxPoint x="-1" y="1" as="offset" />
          </mxGeometry>
        </mxCell>
        <mxCell id="mxeymXjgRgd7a33eONCe-80" style="edgeStyle=orthogonalEdgeStyle;rounded=1;orthogonalLoop=1;jettySize=auto;html=1;curved=0;strokeColor=#FF9933;dashed=1;" edge="1" parent="1" source="mxeymXjgRgd7a33eONCe-89" target="mxeymXjgRgd7a33eONCe-129">
          <mxGeometry relative="1" as="geometry">
            <Array as="points">
              <mxPoint x="80" y="-130" />
              <mxPoint x="80" y="-130" />
            </Array>
          </mxGeometry>
        </mxCell>
        <mxCell id="mxeymXjgRgd7a33eONCe-81" value="&lt;font style=&quot;font-size: 9px;&quot;&gt;Spark READS S3 (Spark DF API)&lt;/font&gt;&lt;div style=&quot;font-size: 9px;&quot;&gt;&lt;font style=&quot;font-size: 9px;&quot;&gt;HTTPS/TLS 1.2&lt;br&gt;&lt;/font&gt;&lt;/div&gt;&lt;div style=&quot;font-size: 9px;&quot;&gt;&lt;div&gt;&lt;font style=&quot;font-size: 9px;&quot;&gt;AWS IAM&lt;/font&gt;&lt;/div&gt;&lt;/div&gt;" style="edgeLabel;html=1;align=center;verticalAlign=middle;resizable=0;points=[];" vertex="1" connectable="0" parent="mxeymXjgRgd7a33eONCe-80">
          <mxGeometry x="-0.2146" y="1" relative="1" as="geometry">
            <mxPoint y="1" as="offset" />
          </mxGeometry>
        </mxCell>
        <mxCell id="mxeymXjgRgd7a33eONCe-82" style="edgeStyle=orthogonalEdgeStyle;rounded=0;orthogonalLoop=1;jettySize=auto;html=1;entryX=1;entryY=0.75;entryDx=0;entryDy=0;dashed=1;strokeColor=#FF9933;" edge="1" parent="1" target="mxeymXjgRgd7a33eONCe-104">
          <mxGeometry relative="1" as="geometry">
            <mxPoint x="20" y="-225" as="sourcePoint" />
            <mxPoint x="-337" y="-225" as="targetPoint" />
          </mxGeometry>
        </mxCell>
        <mxCell id="mxeymXjgRgd7a33eONCe-83" value="&lt;div style=&quot;font-size: 9px;&quot;&gt;&lt;font style=&quot;font-size: 9px;&quot;&gt;HadoopFS Copy (Spark App Logs)&lt;/font&gt;&lt;/div&gt;&lt;div style=&quot;font-size: 9px;&quot;&gt;&lt;font style=&quot;font-size: 9px;&quot;&gt;HTTPS / TLS 1.2&lt;br&gt;&lt;/font&gt;&lt;/div&gt;&lt;div style=&quot;font-size: 9px;&quot;&gt;&lt;div&gt;&lt;font style=&quot;font-size: 9px;&quot;&gt;AWS IAM&lt;/font&gt;&lt;/div&gt;&lt;/div&gt;" style="edgeLabel;html=1;align=center;verticalAlign=middle;resizable=0;points=[];" vertex="1" connectable="0" parent="mxeymXjgRgd7a33eONCe-82">
          <mxGeometry x="-0.0166" y="-1" relative="1" as="geometry">
            <mxPoint x="-69" y="-1" as="offset" />
          </mxGeometry>
        </mxCell>
        <mxCell id="mxeymXjgRgd7a33eONCe-84" style="edgeStyle=orthogonalEdgeStyle;rounded=1;orthogonalLoop=1;jettySize=auto;html=1;strokeColor=#FF0000;curved=0;" edge="1" parent="1" target="mxeymXjgRgd7a33eONCe-56">
          <mxGeometry relative="1" as="geometry">
            <Array as="points">
              <mxPoint x="490" y="-260" />
              <mxPoint x="490" y="-285" />
            </Array>
            <mxPoint x="420" y="-261" as="sourcePoint" />
            <mxPoint x="685" y="-261" as="targetPoint" />
          </mxGeometry>
        </mxCell>
        <mxCell id="mxeymXjgRgd7a33eONCe-85" style="edgeStyle=orthogonalEdgeStyle;rounded=1;orthogonalLoop=1;jettySize=auto;html=1;entryX=0;entryY=0.5;entryDx=0;entryDy=0;curved=0;strokeColor=#FF9933;dashed=1;" edge="1" parent="1" source="mxeymXjgRgd7a33eONCe-89" target="mxeymXjgRgd7a33eONCe-61">
          <mxGeometry relative="1" as="geometry">
            <Array as="points">
              <mxPoint x="400" y="-150" />
              <mxPoint x="660" y="-150" />
              <mxPoint x="660" y="-198" />
            </Array>
          </mxGeometry>
        </mxCell>
        <mxCell id="mxeymXjgRgd7a33eONCe-86" value="&lt;div style=&quot;font-size: 9px;&quot;&gt;&lt;font style=&quot;font-size: 9px;&quot;&gt;Spark Hive Metadata&lt;/font&gt;&lt;/div&gt;&lt;div style=&quot;font-size: 9px;&quot;&gt;&lt;font style=&quot;font-size: 9px;&quot;&gt;Thrift / TLS 1.2&lt;/font&gt;&lt;/div&gt;&lt;div style=&quot;font-size: 9px;&quot;&gt;&lt;font style=&quot;font-size: 9px;&quot;&gt;Port 9083&lt;/font&gt;&lt;/div&gt;&lt;div style=&quot;font-size: 9px;&quot;&gt;&lt;font style=&quot;font-size: 9px;&quot;&gt;Kerberos&lt;/font&gt;&lt;/div&gt;" style="edgeLabel;html=1;align=center;verticalAlign=middle;resizable=0;points=[];" vertex="1" connectable="0" parent="mxeymXjgRgd7a33eONCe-85">
          <mxGeometry x="-0.1845" y="1" relative="1" as="geometry">
            <mxPoint x="81" y="38" as="offset" />
          </mxGeometry>
        </mxCell>
        <mxCell id="mxeymXjgRgd7a33eONCe-87" style="edgeStyle=orthogonalEdgeStyle;rounded=1;orthogonalLoop=1;jettySize=auto;html=1;curved=0;strokeColor=#FF0000;jumpStyle=line;" edge="1" parent="1" target="mxeymXjgRgd7a33eONCe-100">
          <mxGeometry relative="1" as="geometry">
            <mxPoint x="19.999999999999773" y="-310" as="sourcePoint" />
            <mxPoint x="-337" y="-550" as="targetPoint" />
            <Array as="points">
              <mxPoint x="-80" y="-310" />
              <mxPoint x="-80" y="-580" />
            </Array>
          </mxGeometry>
        </mxCell>
        <mxCell id="mxeymXjgRgd7a33eONCe-88" style="edgeStyle=orthogonalEdgeStyle;rounded=1;orthogonalLoop=1;jettySize=auto;html=1;curved=0;strokeColor=#FF0000;" edge="1" parent="1" source="mxeymXjgRgd7a33eONCe-89" target="mxeymXjgRgd7a33eONCe-135">
          <mxGeometry relative="1" as="geometry">
            <Array as="points">
              <mxPoint x="80" y="-137" />
              <mxPoint x="358" y="-137" />
            </Array>
          </mxGeometry>
        </mxCell>
        <mxCell id="mxeymXjgRgd7a33eONCe-89" value="&lt;font color=&quot;#ff0000&quot;&gt;CDP Data Engineering Service&lt;/font&gt;" style="rounded=0;whiteSpace=wrap;html=1;verticalAlign=top;" vertex="1" parent="1">
          <mxGeometry x="20" y="-340" width="400" height="160" as="geometry" />
        </mxCell>
        <mxCell id="mxeymXjgRgd7a33eONCe-90" value="Leader Nodes x1" style="rounded=0;whiteSpace=wrap;html=1;verticalAlign=bottom;" vertex="1" parent="1">
          <mxGeometry x="2.8100000000000023" y="-714.5" width="133" height="50" as="geometry" />
        </mxCell>
        <mxCell id="mxeymXjgRgd7a33eONCe-91" value="Master Nodes x 2" style="rounded=0;whiteSpace=wrap;html=1;verticalAlign=bottom;" vertex="1" parent="1">
          <mxGeometry x="2.8100000000000023" y="-662" width="210" height="76" as="geometry" />
        </mxCell>
        <mxCell id="mxeymXjgRgd7a33eONCe-92" value="&lt;font style=&quot;font-size: 8px;&quot;&gt;Zookeeper&lt;/font&gt;" style="rounded=0;whiteSpace=wrap;html=1;" vertex="1" parent="1">
          <mxGeometry x="79.06" y="-637" width="61.5" height="26" as="geometry" />
        </mxCell>
        <mxCell id="mxeymXjgRgd7a33eONCe-93" value="&lt;font style=&quot;font-size: 8px;&quot;&gt;HDFS NameNode&lt;/font&gt;" style="rounded=0;whiteSpace=wrap;html=1;" vertex="1" parent="1">
          <mxGeometry x="144.56" y="-637" width="61.5" height="26" as="geometry" />
        </mxCell>
        <mxCell id="mxeymXjgRgd7a33eONCe-94" value="&lt;font style=&quot;font-size: 8px;&quot;&gt;Zookeeper&lt;/font&gt;" style="rounded=0;whiteSpace=wrap;html=1;" vertex="1" parent="1">
          <mxGeometry x="38.56" y="-709.25" width="61.5" height="26" as="geometry" />
        </mxCell>
        <mxCell id="mxeymXjgRgd7a33eONCe-95" value="Worker Nodes x 10" style="rounded=0;whiteSpace=wrap;html=1;verticalAlign=bottom;" vertex="1" parent="1">
          <mxGeometry x="2.8100000000000023" y="-563" width="210" height="76" as="geometry" />
        </mxCell>
        <mxCell id="mxeymXjgRgd7a33eONCe-96" value="&lt;font style=&quot;font-size: 8px;&quot;&gt;Phoenix Query Server&lt;/font&gt;" style="rounded=0;whiteSpace=wrap;html=1;" vertex="1" parent="1">
          <mxGeometry x="9.560000000000002" y="-539.5" width="61.5" height="26" as="geometry" />
        </mxCell>
        <mxCell id="mxeymXjgRgd7a33eONCe-97" value="&lt;font style=&quot;font-size: 8px;&quot;&gt;HBase Region Server&lt;/font&gt;" style="rounded=0;whiteSpace=wrap;html=1;" vertex="1" parent="1">
          <mxGeometry x="79.06000000000003" y="-539.5" width="61.5" height="26" as="geometry" />
        </mxCell>
        <mxCell id="mxeymXjgRgd7a33eONCe-98" value="&lt;font style=&quot;font-size: 8px;&quot;&gt;HDFS Data Node&lt;/font&gt;" style="rounded=0;whiteSpace=wrap;html=1;" vertex="1" parent="1">
          <mxGeometry x="144.56000000000003" y="-539.5" width="61.5" height="26" as="geometry" />
        </mxCell>
        <mxCell id="mxeymXjgRgd7a33eONCe-99" value="" style="group" vertex="1" connectable="0" parent="1">
          <mxGeometry x="-576" y="-664.5" width="167" height="140" as="geometry" />
        </mxCell>
        <mxCell id="mxeymXjgRgd7a33eONCe-100" value="&lt;b&gt;CDP Environment Bucket&lt;/b&gt;&lt;div&gt;&lt;b&gt;Data / Component Logs&lt;/b&gt;&lt;/div&gt;" style="rounded=0;whiteSpace=wrap;html=1;verticalAlign=bottom;" vertex="1" parent="mxeymXjgRgd7a33eONCe-99">
          <mxGeometry width="167" height="140" as="geometry" />
        </mxCell>
        <mxCell id="mxeymXjgRgd7a33eONCe-101" value="" style="sketch=0;outlineConnect=0;fontColor=#232F3E;gradientColor=none;fillColor=#7AA116;strokeColor=none;dashed=0;verticalLabelPosition=bottom;verticalAlign=top;align=center;html=1;fontSize=12;fontStyle=0;aspect=fixed;pointerEvents=1;shape=mxgraph.aws4.bucket;" vertex="1" parent="mxeymXjgRgd7a33eONCe-99">
          <mxGeometry x="24" y="34" width="52.88" height="55" as="geometry" />
        </mxCell>
        <mxCell id="mxeymXjgRgd7a33eONCe-102" value="IAM Roles" style="sketch=0;outlineConnect=0;fontColor=#232F3E;gradientColor=none;fillColor=#DD344C;strokeColor=none;dashed=0;verticalLabelPosition=bottom;verticalAlign=top;align=center;html=1;fontSize=12;fontStyle=0;aspect=fixed;pointerEvents=1;shape=mxgraph.aws4.role;" vertex="1" parent="mxeymXjgRgd7a33eONCe-99">
          <mxGeometry x="110" y="10" width="42.54" height="24" as="geometry" />
        </mxCell>
        <mxCell id="mxeymXjgRgd7a33eONCe-103" value="" style="sketch=0;outlineConnect=0;fontColor=#232F3E;gradientColor=none;fillColor=#7AA116;strokeColor=none;dashed=0;verticalLabelPosition=bottom;verticalAlign=top;align=center;html=1;fontSize=12;fontStyle=0;aspect=fixed;pointerEvents=1;shape=mxgraph.aws4.policy;" vertex="1" parent="mxeymXjgRgd7a33eONCe-99">
          <mxGeometry x="118.73500000000001" y="60" width="43.07" height="37" as="geometry" />
        </mxCell>
        <mxCell id="mxeymXjgRgd7a33eONCe-104" value="&lt;b&gt;CDE Spark App Bucket&lt;/b&gt;&lt;div&gt;&lt;b&gt;Custom Logs&lt;/b&gt;&lt;/div&gt;" style="rounded=0;whiteSpace=wrap;html=1;verticalAlign=bottom;" vertex="1" parent="1">
          <mxGeometry x="-576" y="-330" width="167" height="140" as="geometry" />
        </mxCell>
        <mxCell id="mxeymXjgRgd7a33eONCe-105" value="" style="sketch=0;outlineConnect=0;fontColor=#232F3E;gradientColor=none;fillColor=#7AA116;strokeColor=none;dashed=0;verticalLabelPosition=bottom;verticalAlign=top;align=center;html=1;fontSize=12;fontStyle=0;aspect=fixed;pointerEvents=1;shape=mxgraph.aws4.bucket;" vertex="1" parent="1">
          <mxGeometry x="-552" y="-292.5" width="52.88" height="55" as="geometry" />
        </mxCell>
        <mxCell id="mxeymXjgRgd7a33eONCe-106" value="IAM Roles" style="sketch=0;outlineConnect=0;fontColor=#232F3E;gradientColor=none;fillColor=#DD344C;strokeColor=none;dashed=0;verticalLabelPosition=bottom;verticalAlign=top;align=center;html=1;fontSize=12;fontStyle=0;aspect=fixed;pointerEvents=1;shape=mxgraph.aws4.role;" vertex="1" parent="1">
          <mxGeometry x="-466" y="-316.5" width="42.54" height="24" as="geometry" />
        </mxCell>
        <mxCell id="mxeymXjgRgd7a33eONCe-107" value="" style="sketch=0;outlineConnect=0;fontColor=#232F3E;gradientColor=none;fillColor=#7AA116;strokeColor=none;dashed=0;verticalLabelPosition=bottom;verticalAlign=top;align=center;html=1;fontSize=12;fontStyle=0;aspect=fixed;pointerEvents=1;shape=mxgraph.aws4.policy;" vertex="1" parent="1">
          <mxGeometry x="-457.265" y="-266.5" width="43.07" height="37" as="geometry" />
        </mxCell>
        <mxCell id="mxeymXjgRgd7a33eONCe-108" value="S3" style="shape=datastore;whiteSpace=wrap;html=1;strokeColor=#FF0000;" vertex="1" parent="1">
          <mxGeometry x="-592" y="-678" width="55" height="25" as="geometry" />
        </mxCell>
        <mxCell id="mxeymXjgRgd7a33eONCe-109" value="S3" style="shape=datastore;whiteSpace=wrap;html=1;strokeColor=#FF9933;" vertex="1" parent="1">
          <mxGeometry x="-592" y="-338.5" width="55" height="25" as="geometry" />
        </mxCell>
        <mxCell id="mxeymXjgRgd7a33eONCe-110" value="VPC" style="points=[[0,0],[0.25,0],[0.5,0],[0.75,0],[1,0],[1,0.25],[1,0.5],[1,0.75],[1,1],[0.75,1],[0.5,1],[0.25,1],[0,1],[0,0.75],[0,0.5],[0,0.25]];outlineConnect=0;gradientColor=none;html=1;whiteSpace=wrap;fontSize=12;fontStyle=0;container=1;pointerEvents=0;collapsible=0;recursiveResize=0;shape=mxgraph.aws4.group;grIcon=mxgraph.aws4.group_vpc2;strokeColor=#8C4FFF;fillColor=none;verticalAlign=top;align=left;spacingLeft=30;fontColor=#AAB7B8;dashed=0;" vertex="1" parent="1">
          <mxGeometry x="120" y="129.41" width="200" height="99.18" as="geometry" />
        </mxCell>
        <mxCell id="mxeymXjgRgd7a33eONCe-111" value="BOI Fortigate Firewall" style="image;aspect=fixed;perimeter=ellipsePerimeter;html=1;align=center;shadow=0;dashed=0;spacingTop=3;image=img/lib/active_directory/firewall.svg;" vertex="1" parent="mxeymXjgRgd7a33eONCe-110">
          <mxGeometry x="80.3" y="2.91" width="39.4" height="64.59" as="geometry" />
        </mxCell>
        <mxCell id="mxeymXjgRgd7a33eONCe-112" value="Transit Gateway" style="sketch=0;points=[[0,0,0],[0.25,0,0],[0.5,0,0],[0.75,0,0],[1,0,0],[0,1,0],[0.25,1,0],[0.5,1,0],[0.75,1,0],[1,1,0],[0,0.25,0],[0,0.5,0],[0,0.75,0],[1,0.25,0],[1,0.5,0],[1,0.75,0]];outlineConnect=0;fontColor=#232F3E;fillColor=#8C4FFF;strokeColor=#ffffff;dashed=0;verticalLabelPosition=bottom;verticalAlign=top;align=center;html=1;fontSize=12;fontStyle=0;aspect=fixed;shape=mxgraph.aws4.resourceIcon;resIcon=mxgraph.aws4.transit_gateway;" vertex="1" parent="1">
          <mxGeometry x="385.25" y="155" width="48" height="48" as="geometry" />
        </mxCell>
        <mxCell id="mxeymXjgRgd7a33eONCe-113" value="EC2&amp;nbsp;" style="sketch=0;points=[[0,0,0],[0.25,0,0],[0.5,0,0],[0.75,0,0],[1,0,0],[0,1,0],[0.25,1,0],[0.5,1,0],[0.75,1,0],[1,1,0],[0,0.25,0],[0,0.5,0],[0,0.75,0],[1,0.25,0],[1,0.5,0],[1,0.75,0]];outlineConnect=0;fontColor=#232F3E;fillColor=#ED7100;strokeColor=#ffffff;dashed=0;verticalLabelPosition=bottom;verticalAlign=top;align=center;html=1;fontSize=12;fontStyle=0;aspect=fixed;shape=mxgraph.aws4.resourceIcon;resIcon=mxgraph.aws4.ec2;" vertex="1" parent="1">
          <mxGeometry x="810" y="-719" width="30" height="30" as="geometry" />
        </mxCell>
        <mxCell id="mxeymXjgRgd7a33eONCe-114" value="EKS" style="sketch=0;points=[[0,0,0],[0.25,0,0],[0.5,0,0],[0.75,0,0],[1,0,0],[0,1,0],[0.25,1,0],[0.5,1,0],[0.75,1,0],[1,1,0],[0,0.25,0],[0,0.5,0],[0,0.75,0],[1,0.25,0],[1,0.5,0],[1,0.75,0]];outlineConnect=0;fontColor=#232F3E;fillColor=#ED7100;strokeColor=#ffffff;dashed=0;verticalLabelPosition=bottom;verticalAlign=top;align=center;html=1;fontSize=12;fontStyle=0;aspect=fixed;shape=mxgraph.aws4.resourceIcon;resIcon=mxgraph.aws4.eks;" vertex="1" parent="1">
          <mxGeometry x="390" y="-341" width="30" height="30" as="geometry" />
        </mxCell>
        <mxCell id="mxeymXjgRgd7a33eONCe-115" value="CDE Virtual Cluster" style="rounded=0;whiteSpace=wrap;html=1;verticalAlign=top;" vertex="1" parent="1">
          <mxGeometry x="110" y="-308.5" width="220" height="100" as="geometry" />
        </mxCell>
        <mxCell id="mxeymXjgRgd7a33eONCe-116" value="EC2&amp;nbsp;" style="sketch=0;points=[[0,0,0],[0.25,0,0],[0.5,0,0],[0.75,0,0],[1,0,0],[0,1,0],[0.25,1,0],[0.5,1,0],[0.75,1,0],[1,1,0],[0,0.25,0],[0,0.5,0],[0,0.75,0],[1,0.25,0],[1,0.5,0],[1,0.75,0]];outlineConnect=0;fontColor=#232F3E;fillColor=#ED7100;strokeColor=#ffffff;dashed=0;verticalLabelPosition=bottom;verticalAlign=top;align=center;html=1;fontSize=12;fontStyle=0;aspect=fixed;shape=mxgraph.aws4.resourceIcon;resIcon=mxgraph.aws4.ec2;" vertex="1" parent="1">
          <mxGeometry x="419" y="-719" width="30" height="30" as="geometry" />
        </mxCell>
        <mxCell id="mxeymXjgRgd7a33eONCe-117" value="Edge Nodes x2" style="rounded=0;whiteSpace=wrap;html=1;verticalAlign=bottom;" vertex="1" parent="1">
          <mxGeometry x="270.56" y="-564.75" width="133" height="76.5" as="geometry" />
        </mxCell>
        <mxCell id="mxeymXjgRgd7a33eONCe-118" value="&lt;font style=&quot;font-size: 8px;&quot;&gt;Airflow&lt;/font&gt;" style="rounded=0;whiteSpace=wrap;html=1;" vertex="1" parent="1">
          <mxGeometry x="118.58000000000004" y="-271" width="61.5" height="26" as="geometry" />
        </mxCell>
        <mxCell id="mxeymXjgRgd7a33eONCe-119" value="&lt;font style=&quot;font-size: 8px;&quot;&gt;UI&lt;/font&gt;" style="rounded=0;whiteSpace=wrap;html=1;" vertex="1" parent="1">
          <mxGeometry x="190.77000000000004" y="-271" width="61.5" height="26" as="geometry" />
        </mxCell>
        <mxCell id="mxeymXjgRgd7a33eONCe-120" value="&lt;font style=&quot;font-size: 8px;&quot;&gt;Spark history Server&lt;/font&gt;" style="rounded=0;whiteSpace=wrap;html=1;" vertex="1" parent="1">
          <mxGeometry x="260" y="-240" width="61.5" height="26" as="geometry" />
        </mxCell>
        <mxCell id="mxeymXjgRgd7a33eONCe-121" value="&lt;font style=&quot;font-size: 8px;&quot;&gt;Spark Jobs&lt;/font&gt;" style="rounded=0;whiteSpace=wrap;html=1;" vertex="1" parent="1">
          <mxGeometry x="190.77000000000004" y="-240" width="61.5" height="26" as="geometry" />
        </mxCell>
        <mxCell id="mxeymXjgRgd7a33eONCe-122" value="CDE Config / EFS" style="shape=datastore;whiteSpace=wrap;html=1;strokeColor=#FF9933;" vertex="1" parent="1">
          <mxGeometry x="69.31" y="-303.11" width="75.25" height="25.86" as="geometry" />
        </mxCell>
        <mxCell id="mxeymXjgRgd7a33eONCe-123" value="&lt;font style=&quot;font-size: 8px;&quot;&gt;Control-M Agent&lt;/font&gt;&lt;div&gt;&lt;font style=&quot;font-size: 8px;&quot;&gt;v9.0.20&lt;/font&gt;&lt;/div&gt;" style="rounded=0;whiteSpace=wrap;html=1;" vertex="1" parent="1">
          <mxGeometry x="273.56" y="-541.5" width="61.5" height="26" as="geometry" />
        </mxCell>
        <mxCell id="mxeymXjgRgd7a33eONCe-124" value="&lt;font style=&quot;font-size: 8px;&quot;&gt;Client Libraries&lt;/font&gt;" style="rounded=0;whiteSpace=wrap;html=1;" vertex="1" parent="1">
          <mxGeometry x="339.06" y="-541.5" width="61.5" height="26" as="geometry" />
        </mxCell>
        <mxCell id="mxeymXjgRgd7a33eONCe-125" value="&lt;font style=&quot;font-size: 8px;&quot;&gt;HBase Master&lt;/font&gt;" style="rounded=0;whiteSpace=wrap;html=1;" vertex="1" parent="1">
          <mxGeometry x="9.560000000000002" y="-636.75" width="61.5" height="26" as="geometry" />
        </mxCell>
        <mxCell id="mxeymXjgRgd7a33eONCe-126" value="EC2&amp;nbsp;" style="sketch=0;points=[[0,0,0],[0.25,0,0],[0.5,0,0],[0.75,0,0],[1,0,0],[0,1,0],[0.25,1,0],[0.5,1,0],[0.75,1,0],[1,1,0],[0,0.25,0],[0,0.5,0],[0,0.75,0],[1,0.25,0],[1,0.5,0],[1,0.75,0]];outlineConnect=0;fontColor=#232F3E;fillColor=#ED7100;strokeColor=#ffffff;dashed=0;verticalLabelPosition=bottom;verticalAlign=top;align=center;html=1;fontSize=12;fontStyle=0;aspect=fixed;shape=mxgraph.aws4.resourceIcon;resIcon=mxgraph.aws4.ec2;" vertex="1" parent="1">
          <mxGeometry x="807.81" y="-389" width="32" height="32" as="geometry" />
        </mxCell>
        <mxCell id="mxeymXjgRgd7a33eONCe-127" style="edgeStyle=orthogonalEdgeStyle;rounded=1;orthogonalLoop=1;jettySize=auto;html=1;curved=0;strokeColor=#FF0000;" edge="1" parent="1" source="mxeymXjgRgd7a33eONCe-153" target="mxeymXjgRgd7a33eONCe-37">
          <mxGeometry relative="1" as="geometry" />
        </mxCell>
        <mxCell id="mxeymXjgRgd7a33eONCe-128" value="&lt;div&gt;MFT S3 Connection Profile&lt;/div&gt;&lt;div&gt;HTTPS TLS 1.2&lt;/div&gt;&lt;div&gt;Port 443&lt;/div&gt;&lt;div&gt;AWS Access Key / Secret Access Key&lt;br&gt;&lt;/div&gt;" style="edgeLabel;html=1;align=center;verticalAlign=middle;resizable=0;points=[];" vertex="1" connectable="0" parent="mxeymXjgRgd7a33eONCe-127">
          <mxGeometry x="-0.0673" y="1" relative="1" as="geometry">
            <mxPoint x="29" y="15" as="offset" />
          </mxGeometry>
        </mxCell>
        <mxCell id="mxeymXjgRgd7a33eONCe-129" value="&lt;b&gt;REFD Bulk File Storage&lt;/b&gt;" style="rounded=0;whiteSpace=wrap;html=1;verticalAlign=bottom;" vertex="1" parent="1">
          <mxGeometry x="14.5" y="-93" width="167" height="130" as="geometry" />
        </mxCell>
        <mxCell id="mxeymXjgRgd7a33eONCe-130" value="" style="sketch=0;outlineConnect=0;fontColor=#232F3E;gradientColor=none;fillColor=#7AA116;strokeColor=none;dashed=0;verticalLabelPosition=bottom;verticalAlign=top;align=center;html=1;fontSize=12;fontStyle=0;aspect=fixed;pointerEvents=1;shape=mxgraph.aws4.bucket;" vertex="1" parent="1">
          <mxGeometry x="38.5" y="-64" width="52.88" height="55" as="geometry" />
        </mxCell>
        <mxCell id="mxeymXjgRgd7a33eONCe-131" value="IAM Roles" style="sketch=0;outlineConnect=0;fontColor=#232F3E;gradientColor=none;fillColor=#DD344C;strokeColor=none;dashed=0;verticalLabelPosition=bottom;verticalAlign=top;align=center;html=1;fontSize=12;fontStyle=0;aspect=fixed;pointerEvents=1;shape=mxgraph.aws4.role;" vertex="1" parent="1">
          <mxGeometry x="124.5" y="-88" width="42.54" height="24" as="geometry" />
        </mxCell>
        <mxCell id="mxeymXjgRgd7a33eONCe-132" value="" style="sketch=0;outlineConnect=0;fontColor=#232F3E;gradientColor=none;fillColor=#7AA116;strokeColor=none;dashed=0;verticalLabelPosition=bottom;verticalAlign=top;align=center;html=1;fontSize=12;fontStyle=0;aspect=fixed;pointerEvents=1;shape=mxgraph.aws4.policy;" vertex="1" parent="1">
          <mxGeometry x="133.23500000000013" y="-38" width="43.07" height="37" as="geometry" />
        </mxCell>
        <mxCell id="mxeymXjgRgd7a33eONCe-133" value="S3" style="shape=datastore;whiteSpace=wrap;html=1;strokeColor=#FF9933;" vertex="1" parent="1">
          <mxGeometry x="-1.5" y="-100" width="55" height="25" as="geometry" />
        </mxCell>
        <mxCell id="mxeymXjgRgd7a33eONCe-134" style="edgeStyle=orthogonalEdgeStyle;rounded=1;orthogonalLoop=1;jettySize=auto;html=1;curved=0;strokeColor=#FF0000;" edge="1" parent="1" source="mxeymXjgRgd7a33eONCe-135" target="mxeymXjgRgd7a33eONCe-56">
          <mxGeometry relative="1" as="geometry">
            <Array as="points">
              <mxPoint x="490" y="-28" />
              <mxPoint x="490" y="-285" />
            </Array>
          </mxGeometry>
        </mxCell>
        <mxCell id="mxeymXjgRgd7a33eONCe-135" value="&lt;b&gt;EDW Customer/Account Bulk File Storage&lt;/b&gt;" style="rounded=0;whiteSpace=wrap;html=1;verticalAlign=bottom;" vertex="1" parent="1">
          <mxGeometry x="274.5" y="-93" width="167" height="130" as="geometry" />
        </mxCell>
        <mxCell id="mxeymXjgRgd7a33eONCe-136" value="" style="sketch=0;outlineConnect=0;fontColor=#232F3E;gradientColor=none;fillColor=#7AA116;strokeColor=none;dashed=0;verticalLabelPosition=bottom;verticalAlign=top;align=center;html=1;fontSize=12;fontStyle=0;aspect=fixed;pointerEvents=1;shape=mxgraph.aws4.bucket;" vertex="1" parent="1">
          <mxGeometry x="298.5" y="-64" width="52.88" height="55" as="geometry" />
        </mxCell>
        <mxCell id="mxeymXjgRgd7a33eONCe-137" value="IAM Roles" style="sketch=0;outlineConnect=0;fontColor=#232F3E;gradientColor=none;fillColor=#DD344C;strokeColor=none;dashed=0;verticalLabelPosition=bottom;verticalAlign=top;align=center;html=1;fontSize=12;fontStyle=0;aspect=fixed;pointerEvents=1;shape=mxgraph.aws4.role;" vertex="1" parent="1">
          <mxGeometry x="384.5" y="-88" width="42.54" height="24" as="geometry" />
        </mxCell>
        <mxCell id="mxeymXjgRgd7a33eONCe-138" value="" style="sketch=0;outlineConnect=0;fontColor=#232F3E;gradientColor=none;fillColor=#7AA116;strokeColor=none;dashed=0;verticalLabelPosition=bottom;verticalAlign=top;align=center;html=1;fontSize=12;fontStyle=0;aspect=fixed;pointerEvents=1;shape=mxgraph.aws4.policy;" vertex="1" parent="1">
          <mxGeometry x="393.2350000000001" y="-38" width="43.07" height="37" as="geometry" />
        </mxCell>
        <mxCell id="mxeymXjgRgd7a33eONCe-139" value="S3" style="shape=datastore;whiteSpace=wrap;html=1;strokeColor=#FF0000;" vertex="1" parent="1">
          <mxGeometry x="258.5" y="-100" width="55" height="25" as="geometry" />
        </mxCell>
        <mxCell id="mxeymXjgRgd7a33eONCe-140" style="edgeStyle=orthogonalEdgeStyle;rounded=1;orthogonalLoop=1;jettySize=auto;html=1;entryX=0.5;entryY=1;entryDx=0;entryDy=0;curved=0;strokeColor=#FF0000;" edge="1" parent="1" source="mxeymXjgRgd7a33eONCe-37" target="mxeymXjgRgd7a33eONCe-135">
          <mxGeometry relative="1" as="geometry">
            <Array as="points">
              <mxPoint x="220" y="60" />
              <mxPoint x="358" y="60" />
            </Array>
          </mxGeometry>
        </mxCell>
        <mxCell id="mxeymXjgRgd7a33eONCe-141" value="BOI Tenant" style="points=[[0,0],[0.25,0],[0.5,0],[0.75,0],[1,0],[1,0.25],[1,0.5],[1,0.75],[1,1],[0.75,1],[0.5,1],[0.25,1],[0,1],[0,0.75],[0,0.5],[0,0.25]];outlineConnect=0;gradientColor=none;html=1;whiteSpace=wrap;fontSize=12;fontStyle=0;container=0;pointerEvents=0;collapsible=0;recursiveResize=0;shape=mxgraph.aws4.group;grIcon=mxgraph.aws4.group_account;strokeColor=#CD2264;fillColor=none;verticalAlign=top;align=left;spacingLeft=30;fontColor=#CD2264;dashed=0;" vertex="1" parent="1">
          <mxGeometry x="1325.5" y="-340.41" width="160" height="360" as="geometry" />
        </mxCell>
        <mxCell id="mxeymXjgRgd7a33eONCe-142" value="Cloudera Management Console" style="rounded=0;whiteSpace=wrap;html=1;container=0;" vertex="1" parent="1">
          <mxGeometry x="1345.5" y="-110.45499999999998" width="120" height="60" as="geometry" />
        </mxCell>
        <mxCell id="mxeymXjgRgd7a33eONCe-143" value="Cloudera UMS" style="shape=datastore;whiteSpace=wrap;html=1;container=0;strokeColor=#FF0000;" vertex="1" parent="1">
          <mxGeometry x="1375.5" y="-192.95499999999998" width="60" height="60" as="geometry" />
        </mxCell>
        <mxCell id="mxeymXjgRgd7a33eONCe-144" value="Cloudera Data Catalog" style="shape=datastore;whiteSpace=wrap;html=1;container=0;strokeColor=#FF0000;" vertex="1" parent="1">
          <mxGeometry x="1375.5" y="-270.36499999999995" width="60" height="60" as="geometry" />
        </mxCell>
        <mxCell id="mxeymXjgRgd7a33eONCe-145" style="edgeStyle=orthogonalEdgeStyle;rounded=1;orthogonalLoop=1;jettySize=auto;html=1;curved=0;strokeColor=#FF0000;exitX=0.5;exitY=1;exitDx=0;exitDy=0;jumpStyle=line;" edge="1" parent="1" source="mxeymXjgRgd7a33eONCe-33" target="mxeymXjgRgd7a33eONCe-46">
          <mxGeometry relative="1" as="geometry">
            <Array as="points">
              <mxPoint x="220" y="-860" />
              <mxPoint x="810" y="-860" />
            </Array>
            <mxPoint x="642" y="-750" as="targetPoint" />
            <mxPoint x="260" y="-1130" as="sourcePoint" />
          </mxGeometry>
        </mxCell>
        <mxCell id="mxeymXjgRgd7a33eONCe-146" value="&lt;font style=&quot;font-size: 9px;&quot;&gt;Mulesoft to&amp;nbsp;&amp;nbsp;&lt;/font&gt;&lt;div&gt;&lt;span style=&quot;font-size: 9px;&quot;&gt;Kerberos KDC (TGS)&lt;/span&gt;&lt;div style=&quot;font-size: 9px;&quot;&gt;&lt;font style=&quot;font-size: 9px;&quot;&gt;UDP Port 88&lt;/font&gt;&lt;/div&gt;&lt;div style=&quot;font-size: 9px;&quot;&gt;&lt;font style=&quot;font-size: 9px;&quot;&gt;Keytab&lt;/font&gt;&lt;/div&gt;&lt;/div&gt;" style="edgeLabel;html=1;align=center;verticalAlign=middle;resizable=0;points=[];container=0;" vertex="1" connectable="0" parent="mxeymXjgRgd7a33eONCe-145">
          <mxGeometry x="0.04" y="1" relative="1" as="geometry">
            <mxPoint x="439" y="-18" as="offset" />
          </mxGeometry>
        </mxCell>
        <mxCell id="mxeymXjgRgd7a33eONCe-147" value="&lt;font style=&quot;font-size: 10px;&quot;&gt;CCM&lt;/font&gt;" style="rounded=0;whiteSpace=wrap;html=1;" vertex="1" parent="1">
          <mxGeometry x="722.5" y="-533" width="80" height="30" as="geometry" />
        </mxCell>
        <mxCell id="mxeymXjgRgd7a33eONCe-148" value="&lt;b&gt;RDS for Hive Metastore/Ranger/Cloudera Manager&lt;/b&gt;" style="rounded=0;whiteSpace=wrap;html=1;verticalAlign=bottom;" vertex="1" parent="1">
          <mxGeometry x="679" y="-76" width="167" height="140" as="geometry" />
        </mxCell>
        <mxCell id="mxeymXjgRgd7a33eONCe-149" value="IAM Roles" style="sketch=0;outlineConnect=0;fontColor=#232F3E;gradientColor=none;fillColor=#DD344C;strokeColor=none;dashed=0;verticalLabelPosition=bottom;verticalAlign=top;align=center;html=1;fontSize=12;fontStyle=0;aspect=fixed;pointerEvents=1;shape=mxgraph.aws4.role;" vertex="1" parent="1">
          <mxGeometry x="788" y="-61" width="42.54" height="24" as="geometry" />
        </mxCell>
        <mxCell id="mxeymXjgRgd7a33eONCe-150" value="" style="sketch=0;outlineConnect=0;fontColor=#232F3E;gradientColor=none;fillColor=#7AA116;strokeColor=none;dashed=0;verticalLabelPosition=bottom;verticalAlign=top;align=center;html=1;fontSize=12;fontStyle=0;aspect=fixed;pointerEvents=1;shape=mxgraph.aws4.policy;" vertex="1" parent="1">
          <mxGeometry x="796.735" y="-11" width="43.07" height="37" as="geometry" />
        </mxCell>
        <mxCell id="mxeymXjgRgd7a33eONCe-151" value="RDS" style="shape=datastore;whiteSpace=wrap;html=1;strokeColor=#FF9933;" vertex="1" parent="1">
          <mxGeometry x="662" y="-86" width="55" height="25" as="geometry" />
        </mxCell>
        <mxCell id="mxeymXjgRgd7a33eONCe-152" value="" style="outlineConnect=0;dashed=0;verticalLabelPosition=bottom;verticalAlign=top;align=center;html=1;shape=mxgraph.aws3.rds;fillColor=#2E73B8;gradientColor=none;" vertex="1" parent="1">
          <mxGeometry x="695" y="-53" width="50" height="52.5" as="geometry" />
        </mxCell>
        <mxCell id="mxeymXjgRgd7a33eONCe-153" value="Bluefile Integration Hub" style="rounded=0;whiteSpace=wrap;html=1;verticalAlign=bottom;" vertex="1" parent="1">
          <mxGeometry x="-156" y="446" width="290" height="240" as="geometry" />
        </mxCell>
        <mxCell id="mxeymXjgRgd7a33eONCe-154" value="Managed File Transfer (MFT)" style="rounded=0;whiteSpace=wrap;html=1;verticalAlign=bottom;" vertex="1" parent="1">
          <mxGeometry x="-136" y="466" width="180" height="200" as="geometry" />
        </mxCell>
        <mxCell id="mxeymXjgRgd7a33eONCe-155" value="SFTP Server" style="shape=process;whiteSpace=wrap;html=1;backgroundOutline=1;" vertex="1" parent="1">
          <mxGeometry x="-106" y="596" width="120" height="40" as="geometry" />
        </mxCell>
        <mxCell id="mxeymXjgRgd7a33eONCe-156" value="MFT S3 Connection Profile" style="shape=process;whiteSpace=wrap;html=1;backgroundOutline=1;" vertex="1" parent="1">
          <mxGeometry x="-106" y="476" width="120" height="40" as="geometry" />
        </mxCell>
        <mxCell id="mxeymXjgRgd7a33eONCe-157" value="Control-M MFT Agent&lt;div&gt;(v9.0.20)&lt;/div&gt;" style="rounded=0;whiteSpace=wrap;html=1;" vertex="1" parent="1">
          <mxGeometry x="-106" y="536" width="120" height="40" as="geometry" />
        </mxCell>
        <mxCell id="mxeymXjgRgd7a33eONCe-158" value="NFS Share" style="shape=datastore;whiteSpace=wrap;html=1;strokeColor=#FF0000;" vertex="1" parent="1">
          <mxGeometry x="51.25" y="536" width="60" height="60" as="geometry" />
        </mxCell>
        <mxCell id="mxeymXjgRgd7a33eONCe-159" style="edgeStyle=orthogonalEdgeStyle;rounded=1;orthogonalLoop=1;jettySize=auto;html=1;curved=0;strokeColor=#FF0000;" edge="1" parent="1" source="mxeymXjgRgd7a33eONCe-22" target="mxeymXjgRgd7a33eONCe-158">
          <mxGeometry relative="1" as="geometry">
            <Array as="points">
              <mxPoint x="190" y="516" />
              <mxPoint x="190" y="566" />
            </Array>
          </mxGeometry>
        </mxCell>
        <mxCell id="mxeymXjgRgd7a33eONCe-160" value="GCFR&lt;div&gt;SFTP&amp;nbsp;&lt;/div&gt;&lt;div&gt;Port 1222&lt;/div&gt;" style="edgeLabel;html=1;align=center;verticalAlign=middle;resizable=0;points=[];" vertex="1" connectable="0" parent="mxeymXjgRgd7a33eONCe-159">
          <mxGeometry x="0.232" relative="1" as="geometry">
            <mxPoint x="-5" y="5" as="offset" />
          </mxGeometry>
        </mxCell>
        <mxCell id="mxeymXjgRgd7a33eONCe-161" style="edgeStyle=orthogonalEdgeStyle;rounded=1;orthogonalLoop=1;jettySize=auto;html=1;entryX=0;entryY=0.5;entryDx=0;entryDy=0;curved=0;strokeColor=#FF0000;" edge="1" parent="1" source="mxeymXjgRgd7a33eONCe-165" target="mxeymXjgRgd7a33eONCe-142">
          <mxGeometry relative="1" as="geometry">
            <Array as="points">
              <mxPoint x="1070" y="586" />
              <mxPoint x="1070" y="-81" />
            </Array>
          </mxGeometry>
        </mxCell>
        <mxCell id="mxeymXjgRgd7a33eONCe-162" value="&lt;font style=&quot;font-size: 9px;&quot;&gt;Admin Access to Mgmt Console&lt;/font&gt;&lt;div style=&quot;font-size: 9px;&quot;&gt;&lt;font style=&quot;font-size: 9px;&quot;&gt;HTTPS/TLS 1.2&lt;/font&gt;&lt;/div&gt;&lt;div style=&quot;font-size: 9px;&quot;&gt;&lt;font style=&quot;font-size: 9px;&quot;&gt;Active Directory&lt;/font&gt;&lt;/div&gt;" style="edgeLabel;html=1;align=center;verticalAlign=middle;resizable=0;points=[];" vertex="1" connectable="0" parent="mxeymXjgRgd7a33eONCe-161">
          <mxGeometry x="-0.0552" y="1" relative="1" as="geometry">
            <mxPoint x="131" y="-338" as="offset" />
          </mxGeometry>
        </mxCell>
        <mxCell id="mxeymXjgRgd7a33eONCe-163" style="edgeStyle=orthogonalEdgeStyle;rounded=1;orthogonalLoop=1;jettySize=auto;html=1;curved=0;strokeColor=#FF0000;" edge="1" parent="1" source="mxeymXjgRgd7a33eONCe-165">
          <mxGeometry relative="1" as="geometry">
            <mxPoint x="880" y="-220" as="targetPoint" />
            <Array as="points">
              <mxPoint x="814" y="560" />
              <mxPoint x="970" y="560" />
              <mxPoint x="970" y="-220" />
            </Array>
          </mxGeometry>
        </mxCell>
        <mxCell id="mxeymXjgRgd7a33eONCe-164" value="&lt;div style=&quot;font-size: 9px;&quot;&gt;&lt;div&gt;UI Access to Data Lake Service&lt;/div&gt;&lt;div&gt;via Knox GW&lt;/div&gt;&lt;div&gt;HTTPS / TLS 1.2&lt;/div&gt;&lt;div&gt;Port 443&lt;/div&gt;&lt;div&gt;Knox SSO / AD&lt;/div&gt;&lt;/div&gt;" style="edgeLabel;html=1;align=center;verticalAlign=middle;resizable=0;points=[];" vertex="1" connectable="0" parent="mxeymXjgRgd7a33eONCe-163">
          <mxGeometry x="0.1311" y="2" relative="1" as="geometry">
            <mxPoint x="-18" y="-6" as="offset" />
          </mxGeometry>
        </mxCell>
        <mxCell id="mxeymXjgRgd7a33eONCe-165" value="BOI&amp;nbsp;&lt;span style=&quot;background-color: initial;&quot;&gt;CDP&amp;nbsp;&lt;/span&gt;&lt;div&gt;&lt;span style=&quot;background-color: initial;&quot;&gt;Operations&lt;/span&gt;&lt;/div&gt;" style="verticalLabelPosition=bottom;html=1;verticalAlign=top;align=center;strokeColor=none;fillColor=#00BEF2;shape=mxgraph.azure.user;" vertex="1" parent="1">
          <mxGeometry x="790" y="561" width="47.5" height="50" as="geometry" />
        </mxCell>
        <mxCell id="mxeymXjgRgd7a33eONCe-166" value="Gateway Nodes x1" style="rounded=0;whiteSpace=wrap;html=1;verticalAlign=bottom;" vertex="1" parent="1">
          <mxGeometry x="226.31" y="-662" width="210" height="76" as="geometry" />
        </mxCell>
        <mxCell id="mxeymXjgRgd7a33eONCe-167" value="&lt;font style=&quot;font-size: 8px;&quot;&gt;HUE&lt;/font&gt;" style="rounded=0;whiteSpace=wrap;html=1;" vertex="1" parent="1">
          <mxGeometry x="233.06" y="-637" width="61.5" height="26" as="geometry" />
        </mxCell>
        <mxCell id="mxeymXjgRgd7a33eONCe-168" value="&lt;font style=&quot;font-size: 8px;&quot;&gt;Knox Gateway&lt;/font&gt;" style="rounded=0;whiteSpace=wrap;html=1;" vertex="1" parent="1">
          <mxGeometry x="302.56" y="-637" width="61.5" height="26" as="geometry" />
        </mxCell>
        <mxCell id="mxeymXjgRgd7a33eONCe-169" value="&lt;font style=&quot;font-size: 8px;&quot;&gt;Cloudera Manager&lt;/font&gt;" style="rounded=0;whiteSpace=wrap;html=1;" vertex="1" parent="1">
          <mxGeometry x="368.06" y="-637" width="61.5" height="26" as="geometry" />
        </mxCell>
        <mxCell id="mxeymXjgRgd7a33eONCe-170" value="&lt;font style=&quot;font-size: 10px;&quot;&gt;HBase Wal&lt;/font&gt;&lt;div style=&quot;font-size: 10px;&quot;&gt;&lt;font style=&quot;font-size: 10px;&quot;&gt;HDFS / EBS&lt;/font&gt;&lt;/div&gt;" style="shape=datastore;whiteSpace=wrap;html=1;strokeColor=#FF0000;" vertex="1" parent="1">
          <mxGeometry x="185" y="-530" width="70" height="44.5" as="geometry" />
        </mxCell>
        <mxCell id="mxeymXjgRgd7a33eONCe-171" style="edgeStyle=orthogonalEdgeStyle;rounded=1;orthogonalLoop=1;jettySize=auto;html=1;entryX=1.003;entryY=0.434;entryDx=0;entryDy=0;entryPerimeter=0;dashed=1;curved=0;strokeColor=#FF9933;" edge="1" parent="1" source="mxeymXjgRgd7a33eONCe-46" target="mxeymXjgRgd7a33eONCe-77">
          <mxGeometry relative="1" as="geometry">
            <Array as="points">
              <mxPoint x="508" y="-610" />
            </Array>
          </mxGeometry>
        </mxCell>
        <mxCell id="mxeymXjgRgd7a33eONCe-172" value="&lt;div style=&quot;font-size: 9px;&quot;&gt;&lt;font style=&quot;font-size: 9px;&quot;&gt;CCM&lt;/font&gt;&lt;/div&gt;&lt;font style=&quot;font-size: 9px;&quot;&gt;&lt;font style=&quot;font-size: 9px;&quot;&gt;HTTPS /&amp;nbsp;&lt;/font&gt;TLS 1.2&lt;/font&gt;&lt;div&gt;&lt;font style=&quot;font-size: 9px;&quot;&gt;Port 443&lt;/font&gt;&lt;/div&gt;" style="edgeLabel;html=1;align=center;verticalAlign=middle;resizable=0;points=[];" vertex="1" connectable="0" parent="mxeymXjgRgd7a33eONCe-171">
          <mxGeometry x="0.5176" relative="1" as="geometry">
            <mxPoint x="12" as="offset" />
          </mxGeometry>
        </mxCell>
        <mxCell id="mxeymXjgRgd7a33eONCe-173" value="&lt;font style=&quot;font-size: 8px;&quot;&gt;Knox GW&lt;/font&gt;" style="rounded=0;whiteSpace=wrap;html=1;" vertex="1" parent="1">
          <mxGeometry x="260.00000000000006" y="-271.25" width="61.5" height="26" as="geometry" />
        </mxCell>
        <mxCell id="mxeymXjgRgd7a33eONCe-174" style="edgeStyle=orthogonalEdgeStyle;rounded=1;orthogonalLoop=1;jettySize=auto;html=1;strokeColor=#FF0000;curved=0;" edge="1" parent="1" source="mxeymXjgRgd7a33eONCe-77">
          <mxGeometry relative="1" as="geometry">
            <Array as="points">
              <mxPoint x="-409" y="-580" />
            </Array>
            <mxPoint x="-409" y="-580" as="targetPoint" />
          </mxGeometry>
        </mxCell>
        <mxCell id="mxeymXjgRgd7a33eONCe-175" value="&lt;font style=&quot;font-size: 9px;&quot;&gt;CDP Component Logs(Fluentd)&lt;/font&gt;&lt;div&gt;&lt;font style=&quot;font-size: 9px;&quot;&gt;HTTPS / TLS 1.2&lt;/font&gt;&lt;/div&gt;&lt;div&gt;&lt;font style=&quot;font-size: 9px;&quot;&gt;AWS IAM&lt;/font&gt;&lt;/div&gt;" style="edgeLabel;html=1;align=center;verticalAlign=middle;resizable=0;points=[];" vertex="1" connectable="0" parent="mxeymXjgRgd7a33eONCe-174">
          <mxGeometry x="0.1382" y="-1" relative="1" as="geometry">
            <mxPoint x="-23" y="8" as="offset" />
          </mxGeometry>
        </mxCell>
        <mxCell id="mxeymXjgRgd7a33eONCe-176" value="&lt;font style=&quot;font-size: 10px;&quot;&gt;Knox GW&lt;/font&gt;" style="rounded=0;whiteSpace=wrap;html=1;" vertex="1" parent="1">
          <mxGeometry x="722.5" y="-365" width="80" height="30" as="geometry" />
        </mxCell>
        <mxCell id="mxeymXjgRgd7a33eONCe-177" value="&lt;font style=&quot;font-size: 10px;&quot;&gt;HDFS / EBS&lt;/font&gt;" style="shape=datastore;whiteSpace=wrap;html=1;strokeColor=#FF0000;" vertex="1" parent="1">
          <mxGeometry x="790" y="-283.38" width="70" height="27.75" as="geometry" />
        </mxCell>
        <mxCell id="mxeymXjgRgd7a33eONCe-178" value="&lt;font style=&quot;font-size: 10px;&quot;&gt;LDAP / EBS&lt;/font&gt;" style="shape=datastore;whiteSpace=wrap;html=1;strokeColor=#FF0000;" vertex="1" parent="1">
          <mxGeometry x="790" y="-489.87" width="70" height="27.75" as="geometry" />
        </mxCell>
        <mxCell id="mxeymXjgRgd7a33eONCe-179" value="User Sync (Red Data)&lt;div&gt;Control Signals&lt;/div&gt;&lt;div&gt;Heartbeats&lt;/div&gt;&lt;div&gt;Workload stats&lt;/div&gt;&lt;div&gt;Health metrics&lt;/div&gt;&lt;div&gt;Ranger / Atlas Metadata&lt;/div&gt;" style="shape=note;strokeWidth=2;fontSize=14;size=20;whiteSpace=wrap;html=1;fillColor=#fff2cc;strokeColor=#d6b656;fontColor=#666600;" vertex="1" parent="1">
          <mxGeometry x="1303" y="-678" width="230" height="102" as="geometry" />
        </mxCell>
        <mxCell id="mxeymXjgRgd7a33eONCe-180" style="edgeStyle=orthogonalEdgeStyle;rounded=1;orthogonalLoop=1;jettySize=auto;html=1;strokeColor=#FF0000;curved=0;jumpStyle=line;entryX=0.75;entryY=0;entryDx=0;entryDy=0;" edge="1" parent="1" source="mxeymXjgRgd7a33eONCe-181" target="mxeymXjgRgd7a33eONCe-77">
          <mxGeometry relative="1" as="geometry">
            <mxPoint x="450" y="-690" as="targetPoint" />
            <Array as="points">
              <mxPoint x="483" y="-940" />
              <mxPoint x="483" y="-800" />
              <mxPoint x="335" y="-800" />
            </Array>
          </mxGeometry>
        </mxCell>
        <mxCell id="mxeymXjgRgd7a33eONCe-181" value="AWS Session&amp;nbsp;&lt;div&gt;Manager&lt;/div&gt;" style="sketch=0;outlineConnect=0;fontColor=#232F3E;gradientColor=none;fillColor=#E7157B;strokeColor=none;dashed=0;verticalLabelPosition=bottom;verticalAlign=top;align=center;html=1;fontSize=12;fontStyle=0;aspect=fixed;pointerEvents=1;shape=mxgraph.aws4.systems_manager_session_manager;" vertex="1" parent="1">
          <mxGeometry x="515" y="-979" width="78" height="78" as="geometry" />
        </mxCell>
        <mxCell id="mxeymXjgRgd7a33eONCe-182" value="Showing example of access Data Lake UIs via Knox Gateway. This is repeated for access to COD and CDE and any additional Cloudera Service" style="shape=note;strokeWidth=2;fontSize=14;size=20;whiteSpace=wrap;html=1;fillColor=#fff2cc;strokeColor=#d6b656;fontColor=#666600;" vertex="1" parent="1">
          <mxGeometry x="730" y="164" width="222.5" height="75" as="geometry" />
        </mxCell>
        <mxCell id="mxeymXjgRgd7a33eONCe-183" value="&lt;b&gt;&lt;font color=&quot;#ff0000&quot;&gt;LEGEND&lt;/font&gt;&lt;/b&gt;&lt;div&gt;&lt;br&gt;&lt;/div&gt;&lt;div&gt;&lt;span style=&quot;color: rgba(0, 0, 0, 0); font-family: monospace; font-size: 0px; text-wrap: nowrap;&quot;&gt;%3CmxGraphModel%3E%3Croot%3E%3CmxCell%20id%3D%220%22%2F%3E%3CmxCell%20id%3D%221%22%20parent%3D%220%22%2F%3E%3CmxCell%20id%3D%222%22%20value%3D%22S3%22%20style%3D%22shape%3Ddatastore%3BwhiteSpace%3Dwrap%3Bhtml%3D1%3BstrokeColor%3D%23FF0000%3B%22%20vertex%3D%221%22%20parent%3D%221%22%3E%3CmxGeometry%20x%3D%22-520%22%20y%3D%22-678%22%20width%3D%2255%22%20height%3D%2225%22%20as%3D%22geometry%22%2F%3E%3C%2FmxCell%3E%3C%2Froot%3E%3C%2FmxGraphModel%3E&lt;/span&gt;&lt;br&gt;&lt;/div&gt;" style="rounded=0;whiteSpace=wrap;html=1;verticalAlign=top;align=left;" vertex="1" parent="1">
          <mxGeometry x="-680" y="760" width="1110" height="120" as="geometry" />
        </mxCell>
        <mxCell id="mxeymXjgRgd7a33eONCe-184" value="RED Data At Rest" style="shape=datastore;whiteSpace=wrap;html=1;strokeColor=#FF0000;" vertex="1" parent="1">
          <mxGeometry x="-670" y="780" width="70" height="45" as="geometry" />
        </mxCell>
        <mxCell id="mxeymXjgRgd7a33eONCe-185" value="" style="endArrow=none;html=1;rounded=0;entryX=0.706;entryY=0.545;entryDx=0;entryDy=0;entryPerimeter=0;strokeColor=#FF0000;" edge="1" parent="1">
          <mxGeometry width="50" height="50" relative="1" as="geometry">
            <mxPoint x="-590" y="802.37" as="sourcePoint" />
            <mxPoint x="-445.96000000000004" y="802.3200000000003" as="targetPoint" />
          </mxGeometry>
        </mxCell>
        <mxCell id="mxeymXjgRgd7a33eONCe-186" value="Red Data in Transit" style="edgeLabel;html=1;align=center;verticalAlign=middle;resizable=0;points=[];" vertex="1" connectable="0" parent="mxeymXjgRgd7a33eONCe-185">
          <mxGeometry x="-0.1899" relative="1" as="geometry">
            <mxPoint x="12" as="offset" />
          </mxGeometry>
        </mxCell>
        <mxCell id="mxeymXjgRgd7a33eONCe-187" value="" style="endArrow=none;html=1;rounded=0;entryX=0.706;entryY=0.545;entryDx=0;entryDy=0;entryPerimeter=0;strokeColor=#FF9933;dashed=1;" edge="1" parent="1">
          <mxGeometry width="50" height="50" relative="1" as="geometry">
            <mxPoint x="-590" y="852.37" as="sourcePoint" />
            <mxPoint x="-445.96000000000004" y="852.3200000000003" as="targetPoint" />
          </mxGeometry>
        </mxCell>
        <mxCell id="mxeymXjgRgd7a33eONCe-188" value="Amber Data in Transit" style="edgeLabel;html=1;align=center;verticalAlign=middle;resizable=0;points=[];" vertex="1" connectable="0" parent="mxeymXjgRgd7a33eONCe-187">
          <mxGeometry x="-0.0893" relative="1" as="geometry">
            <mxPoint x="4" as="offset" />
          </mxGeometry>
        </mxCell>
        <mxCell id="mxeymXjgRgd7a33eONCe-189" value="Amber Data At Rest" style="shape=datastore;whiteSpace=wrap;html=1;strokeColor=#FF9933;" vertex="1" parent="1">
          <mxGeometry x="-670" y="830" width="70" height="45" as="geometry" />
        </mxCell>
        <mxCell id="mxeymXjgRgd7a33eONCe-190" style="edgeStyle=orthogonalEdgeStyle;rounded=1;orthogonalLoop=1;jettySize=auto;html=1;entryX=0.955;entryY=0;entryDx=0;entryDy=0;entryPerimeter=0;dashed=1;curved=0;strokeColor=#FF9933;" edge="1" parent="1" source="mxeymXjgRgd7a33eONCe-77" target="mxeymXjgRgd7a33eONCe-129">
          <mxGeometry relative="1" as="geometry">
            <Array as="points">
              <mxPoint x="430" y="-120" />
              <mxPoint x="174" y="-120" />
            </Array>
          </mxGeometry>
        </mxCell>
        <mxCell id="mxeymXjgRgd7a33eONCe-191" value="&lt;font style=&quot;font-size: 10px;&quot;&gt;Spark Shuffle / EBS&lt;/font&gt;" style="shape=datastore;whiteSpace=wrap;html=1;strokeColor=#FF0000;" vertex="1" parent="1">
          <mxGeometry x="124.5" y="-234.36" width="75.25" height="25.86" as="geometry" />
        </mxCell>
        <mxCell id="mxeymXjgRgd7a33eONCe-192" style="edgeStyle=orthogonalEdgeStyle;rounded=1;orthogonalLoop=1;jettySize=auto;html=1;curved=0;strokeColor=#FF0000;jumpStyle=line;" edge="1" parent="1">
          <mxGeometry relative="1" as="geometry">
            <Array as="points">
              <mxPoint x="490" y="-234" />
              <mxPoint x="490" y="-234" />
            </Array>
            <mxPoint x="685" y="-234" as="targetPoint" />
            <mxPoint x="420" y="-234" as="sourcePoint" />
          </mxGeometry>
        </mxCell>
        <mxCell id="mxeymXjgRgd7a33eONCe-193" value="&lt;font style=&quot;font-size: 9px;&quot;&gt;Ranger&amp;nbsp; Audit to&amp;nbsp;Solr&lt;/font&gt;&lt;div&gt;&lt;span style=&quot;font-size: 9px;&quot;&gt;HTTPS / TLS 1.2&lt;/span&gt;&lt;div style=&quot;font-size: 9px;&quot;&gt;Port 8985&lt;/div&gt;&lt;/div&gt;&lt;div style=&quot;font-size: 9px;&quot;&gt;Kerberos&lt;/div&gt;" style="edgeLabel;html=1;align=center;verticalAlign=middle;resizable=0;points=[];" vertex="1" connectable="0" parent="mxeymXjgRgd7a33eONCe-192">
          <mxGeometry x="-0.0809" y="-1" relative="1" as="geometry">
            <mxPoint x="62" y="24" as="offset" />
          </mxGeometry>
        </mxCell>
        <mxCell id="mxeymXjgRgd7a33eONCe-194" style="edgeStyle=orthogonalEdgeStyle;rounded=1;orthogonalLoop=1;jettySize=auto;html=1;curved=0;strokeColor=#FF0000;jumpStyle=line;" edge="1" parent="1" source="mxeymXjgRgd7a33eONCe-89" target="mxeymXjgRgd7a33eONCe-46">
          <mxGeometry relative="1" as="geometry">
            <Array as="points">
              <mxPoint x="360" y="-410" />
              <mxPoint x="670" y="-410" />
              <mxPoint x="670" y="-584" />
            </Array>
          </mxGeometry>
        </mxCell>
        <mxCell id="mxeymXjgRgd7a33eONCe-195" value="&lt;font style=&quot;font-size: 9px;&quot;&gt;SSSD/PAM&lt;/font&gt;&lt;div style=&quot;font-size: 9px;&quot;&gt;LDAPs / TLS 1.2&lt;/div&gt;&lt;div style=&quot;font-size: 9px;&quot;&gt;Port 636&lt;/div&gt;&lt;div style=&quot;font-size: 9px;&quot;&gt;Kerberos&lt;/div&gt;" style="edgeLabel;html=1;align=center;verticalAlign=middle;resizable=0;points=[];" vertex="1" connectable="0" parent="mxeymXjgRgd7a33eONCe-194">
          <mxGeometry x="-0.5798" y="2" relative="1" as="geometry">
            <mxPoint x="-5" y="22" as="offset" />
          </mxGeometry>
        </mxCell>
        <mxCell id="mxeymXjgRgd7a33eONCe-196" value="" style="group" vertex="1" connectable="0" parent="1">
          <mxGeometry x="-248" y="-1000.5" width="167" height="140" as="geometry" />
        </mxCell>
        <mxCell id="mxeymXjgRgd7a33eONCe-197" value="&lt;b&gt;Centralised CSSP Logging&lt;/b&gt;" style="rounded=0;whiteSpace=wrap;html=1;verticalAlign=bottom;" vertex="1" parent="mxeymXjgRgd7a33eONCe-196">
          <mxGeometry width="167" height="140" as="geometry" />
        </mxCell>
        <mxCell id="mxeymXjgRgd7a33eONCe-198" value="" style="sketch=0;outlineConnect=0;fontColor=#232F3E;gradientColor=none;fillColor=#7AA116;strokeColor=none;dashed=0;verticalLabelPosition=bottom;verticalAlign=top;align=center;html=1;fontSize=12;fontStyle=0;aspect=fixed;pointerEvents=1;shape=mxgraph.aws4.bucket;" vertex="1" parent="mxeymXjgRgd7a33eONCe-196">
          <mxGeometry x="24" y="34" width="52.88" height="55" as="geometry" />
        </mxCell>
        <mxCell id="mxeymXjgRgd7a33eONCe-199" value="IAM Roles" style="sketch=0;outlineConnect=0;fontColor=#232F3E;gradientColor=none;fillColor=#DD344C;strokeColor=none;dashed=0;verticalLabelPosition=bottom;verticalAlign=top;align=center;html=1;fontSize=12;fontStyle=0;aspect=fixed;pointerEvents=1;shape=mxgraph.aws4.role;" vertex="1" parent="mxeymXjgRgd7a33eONCe-196">
          <mxGeometry x="110" y="10" width="42.54" height="24" as="geometry" />
        </mxCell>
        <mxCell id="mxeymXjgRgd7a33eONCe-200" value="" style="sketch=0;outlineConnect=0;fontColor=#232F3E;gradientColor=none;fillColor=#7AA116;strokeColor=none;dashed=0;verticalLabelPosition=bottom;verticalAlign=top;align=center;html=1;fontSize=12;fontStyle=0;aspect=fixed;pointerEvents=1;shape=mxgraph.aws4.policy;" vertex="1" parent="mxeymXjgRgd7a33eONCe-196">
          <mxGeometry x="118.73500000000001" y="60" width="43.07" height="37" as="geometry" />
        </mxCell>
        <mxCell id="mxeymXjgRgd7a33eONCe-201" value="S3" style="shape=datastore;whiteSpace=wrap;html=1;strokeColor=#FF0000;" vertex="1" parent="1">
          <mxGeometry x="-264" y="-1016" width="55" height="25" as="geometry" />
        </mxCell>
        <mxCell id="mxeymXjgRgd7a33eONCe-202" value="CSSP Cloud Trail" style="sketch=0;points=[[0,0,0],[0.25,0,0],[0.5,0,0],[0.75,0,0],[1,0,0],[0,1,0],[0.25,1,0],[0.5,1,0],[0.75,1,0],[1,1,0],[0,0.25,0],[0,0.5,0],[0,0.75,0],[1,0.25,0],[1,0.5,0],[1,0.75,0]];points=[[0,0,0],[0.25,0,0],[0.5,0,0],[0.75,0,0],[1,0,0],[0,1,0],[0.25,1,0],[0.5,1,0],[0.75,1,0],[1,1,0],[0,0.25,0],[0,0.5,0],[0,0.75,0],[1,0.25,0],[1,0.5,0],[1,0.75,0]];outlineConnect=0;fontColor=#232F3E;fillColor=#E7157B;strokeColor=#ffffff;dashed=0;verticalLabelPosition=bottom;verticalAlign=top;align=center;html=1;fontSize=12;fontStyle=0;aspect=fixed;shape=mxgraph.aws4.resourceIcon;resIcon=mxgraph.aws4.cloudtrail;" vertex="1" parent="1">
          <mxGeometry x="-310" y="-1280" width="41" height="41" as="geometry" />
        </mxCell>
        <mxCell id="mxeymXjgRgd7a33eONCe-203" value="" style="group" vertex="1" connectable="0" parent="1">
          <mxGeometry x="100" y="-1300" width="62" height="40" as="geometry" />
        </mxCell>
        <mxCell id="mxeymXjgRgd7a33eONCe-204" style="vsdxID=21;edgeStyle=none;startArrow=none;endArrow=none;startSize=3;endSize=3;strokeColor=#000000;spacingTop=-3;spacingBottom=-3;spacingLeft=-3;spacingRight=-3;verticalAlign=middle;html=1;labelBackgroundColor=#ffffff;rounded=0;" edge="1" parent="mxeymXjgRgd7a33eONCe-203">
          <mxGeometry relative="1" as="geometry">
            <mxPoint x="-1" as="offset" />
            <Array as="points" />
            <mxPoint x="30" y="20" as="sourcePoint" />
            <mxPoint x="62" y="20" as="targetPoint" />
          </mxGeometry>
        </mxCell>
        <mxCell id="mxeymXjgRgd7a33eONCe-205" value="P-01" style="ellipse;whiteSpace=wrap;html=1;aspect=fixed;fillColor=#FF0000;strokeColor=#ae4132;fontSize=11;" vertex="1" parent="mxeymXjgRgd7a33eONCe-203">
          <mxGeometry width="40" height="40" as="geometry" />
        </mxCell>
        <mxCell id="mxeymXjgRgd7a33eONCe-206" value="" style="group" vertex="1" connectable="0" parent="1">
          <mxGeometry x="160" y="-860" width="62" height="40" as="geometry" />
        </mxCell>
        <mxCell id="mxeymXjgRgd7a33eONCe-207" style="vsdxID=21;edgeStyle=none;startArrow=none;endArrow=none;startSize=3;endSize=3;strokeColor=#000000;spacingTop=-3;spacingBottom=-3;spacingLeft=-3;spacingRight=-3;verticalAlign=middle;html=1;labelBackgroundColor=#ffffff;rounded=0;" edge="1" parent="mxeymXjgRgd7a33eONCe-206">
          <mxGeometry relative="1" as="geometry">
            <mxPoint x="-1" as="offset" />
            <Array as="points" />
            <mxPoint x="30" y="20" as="sourcePoint" />
            <mxPoint x="62" y="20" as="targetPoint" />
          </mxGeometry>
        </mxCell>
        <mxCell id="mxeymXjgRgd7a33eONCe-208" value="T-01" style="ellipse;whiteSpace=wrap;html=1;aspect=fixed;fillColor=#00CC00;strokeColor=#ae4132;fontSize=11;" vertex="1" parent="mxeymXjgRgd7a33eONCe-206">
          <mxGeometry width="40" height="40" as="geometry" />
        </mxCell>
        <mxCell id="mxeymXjgRgd7a33eONCe-209" value="" style="group" vertex="1" connectable="0" parent="1">
          <mxGeometry x="770" y="-925" width="40" height="65" as="geometry" />
        </mxCell>
        <mxCell id="mxeymXjgRgd7a33eONCe-210" style="vsdxID=21;edgeStyle=none;startArrow=none;endArrow=none;startSize=3;endSize=3;strokeColor=#000000;spacingTop=-3;spacingBottom=-3;spacingLeft=-3;spacingRight=-3;verticalAlign=middle;html=1;labelBackgroundColor=#ffffff;rounded=0;" edge="1" parent="mxeymXjgRgd7a33eONCe-209">
          <mxGeometry relative="1" as="geometry">
            <mxPoint x="-1" as="offset" />
            <Array as="points" />
            <mxPoint x="20" y="32" as="sourcePoint" />
            <mxPoint x="20" y="65" as="targetPoint" />
          </mxGeometry>
        </mxCell>
        <mxCell id="mxeymXjgRgd7a33eONCe-211" value="T-02" style="ellipse;whiteSpace=wrap;html=1;aspect=fixed;fillColor=#00CC00;strokeColor=#ae4132;fontSize=11;" vertex="1" parent="mxeymXjgRgd7a33eONCe-209">
          <mxGeometry width="40" height="40" as="geometry" />
        </mxCell>
        <mxCell id="mxeymXjgRgd7a33eONCe-212" value="" style="group" vertex="1" connectable="0" parent="1">
          <mxGeometry x="640" y="-870" width="40" height="65" as="geometry" />
        </mxCell>
        <mxCell id="mxeymXjgRgd7a33eONCe-213" style="vsdxID=21;edgeStyle=none;startArrow=none;endArrow=none;startSize=3;endSize=3;strokeColor=#000000;spacingTop=-3;spacingBottom=-3;spacingLeft=-3;spacingRight=-3;verticalAlign=middle;html=1;labelBackgroundColor=#ffffff;rounded=0;" edge="1" parent="mxeymXjgRgd7a33eONCe-212">
          <mxGeometry relative="1" as="geometry">
            <mxPoint x="-1" as="offset" />
            <Array as="points" />
            <mxPoint x="20" y="32" as="sourcePoint" />
            <mxPoint x="20" y="65" as="targetPoint" />
          </mxGeometry>
        </mxCell>
        <mxCell id="mxeymXjgRgd7a33eONCe-214" value="T-03" style="ellipse;whiteSpace=wrap;html=1;aspect=fixed;fillColor=#00CC00;strokeColor=#ae4132;fontSize=11;" vertex="1" parent="mxeymXjgRgd7a33eONCe-212">
          <mxGeometry width="40" height="40" as="geometry" />
        </mxCell>
        <mxCell id="mxeymXjgRgd7a33eONCe-215" value="" style="group" vertex="1" connectable="0" parent="1">
          <mxGeometry x="730" y="458.5" width="65" height="40" as="geometry" />
        </mxCell>
        <mxCell id="mxeymXjgRgd7a33eONCe-216" style="vsdxID=21;edgeStyle=none;startArrow=none;endArrow=none;startSize=3;endSize=3;strokeColor=#000000;spacingTop=-3;spacingBottom=-3;spacingLeft=-3;spacingRight=-3;verticalAlign=middle;html=1;labelBackgroundColor=#ffffff;rounded=0;" edge="1" parent="mxeymXjgRgd7a33eONCe-215">
          <mxGeometry relative="1" as="geometry">
            <mxPoint x="-1" as="offset" />
            <Array as="points" />
            <mxPoint y="20" as="sourcePoint" />
            <mxPoint x="32" y="20" as="targetPoint" />
          </mxGeometry>
        </mxCell>
        <mxCell id="mxeymXjgRgd7a33eONCe-217" value="PS-01" style="ellipse;whiteSpace=wrap;html=1;aspect=fixed;fillColor=#7FB5C1;strokeColor=#ae4132;fontSize=11;" vertex="1" parent="mxeymXjgRgd7a33eONCe-215">
          <mxGeometry x="25" width="40" height="40" as="geometry" />
        </mxCell>
        <mxCell id="mxeymXjgRgd7a33eONCe-218" value="" style="group" vertex="1" connectable="0" parent="1">
          <mxGeometry x="-220" y="540" width="62" height="40" as="geometry" />
        </mxCell>
        <mxCell id="mxeymXjgRgd7a33eONCe-219" style="vsdxID=21;edgeStyle=none;startArrow=none;endArrow=none;startSize=3;endSize=3;strokeColor=#000000;spacingTop=-3;spacingBottom=-3;spacingLeft=-3;spacingRight=-3;verticalAlign=middle;html=1;labelBackgroundColor=#ffffff;rounded=0;" edge="1" parent="mxeymXjgRgd7a33eONCe-218">
          <mxGeometry relative="1" as="geometry">
            <mxPoint x="-1" as="offset" />
            <Array as="points" />
            <mxPoint x="30" y="20" as="sourcePoint" />
            <mxPoint x="62" y="20" as="targetPoint" />
          </mxGeometry>
        </mxCell>
        <mxCell id="mxeymXjgRgd7a33eONCe-220" value="S-01" style="ellipse;whiteSpace=wrap;html=1;aspect=fixed;fillColor=#FFC000;strokeColor=#ae4132;fontSize=11;" vertex="1" parent="mxeymXjgRgd7a33eONCe-218">
          <mxGeometry width="40" height="40" as="geometry" />
        </mxCell>
        <mxCell id="mxeymXjgRgd7a33eONCe-221" value="" style="group" vertex="1" connectable="0" parent="1">
          <mxGeometry x="190" y="450" width="40" height="65" as="geometry" />
        </mxCell>
        <mxCell id="mxeymXjgRgd7a33eONCe-222" style="vsdxID=21;edgeStyle=none;startArrow=none;endArrow=none;startSize=3;endSize=3;strokeColor=#000000;spacingTop=-3;spacingBottom=-3;spacingLeft=-3;spacingRight=-3;verticalAlign=middle;html=1;labelBackgroundColor=#ffffff;rounded=0;" edge="1" parent="mxeymXjgRgd7a33eONCe-221">
          <mxGeometry relative="1" as="geometry">
            <mxPoint x="-1" as="offset" />
            <Array as="points" />
            <mxPoint x="20" y="32" as="sourcePoint" />
            <mxPoint x="20" y="65" as="targetPoint" />
          </mxGeometry>
        </mxCell>
        <mxCell id="mxeymXjgRgd7a33eONCe-223" value="T-04" style="ellipse;whiteSpace=wrap;html=1;aspect=fixed;fillColor=#00CC00;strokeColor=#ae4132;fontSize=11;" vertex="1" parent="mxeymXjgRgd7a33eONCe-221">
          <mxGeometry width="40" height="40" as="geometry" />
        </mxCell>
        <mxCell id="mxeymXjgRgd7a33eONCe-224" value="" style="group" vertex="1" connectable="0" parent="1">
          <mxGeometry x="-70" y="340" width="62" height="40" as="geometry" />
        </mxCell>
        <mxCell id="mxeymXjgRgd7a33eONCe-225" style="vsdxID=21;edgeStyle=none;startArrow=none;endArrow=none;startSize=3;endSize=3;strokeColor=#000000;spacingTop=-3;spacingBottom=-3;spacingLeft=-3;spacingRight=-3;verticalAlign=middle;html=1;labelBackgroundColor=#ffffff;rounded=0;" edge="1" parent="mxeymXjgRgd7a33eONCe-224">
          <mxGeometry relative="1" as="geometry">
            <mxPoint x="-1" as="offset" />
            <Array as="points" />
            <mxPoint x="30" y="20" as="sourcePoint" />
            <mxPoint x="62" y="20" as="targetPoint" />
          </mxGeometry>
        </mxCell>
        <mxCell id="mxeymXjgRgd7a33eONCe-226" value="T-05" style="ellipse;whiteSpace=wrap;html=1;aspect=fixed;fillColor=#00CC00;strokeColor=#ae4132;fontSize=11;" vertex="1" parent="mxeymXjgRgd7a33eONCe-224">
          <mxGeometry width="40" height="40" as="geometry" />
        </mxCell>
        <mxCell id="mxeymXjgRgd7a33eONCe-227" value="" style="group" vertex="1" connectable="0" parent="1">
          <mxGeometry x="440" width="49" height="53" as="geometry" />
        </mxCell>
        <mxCell id="mxeymXjgRgd7a33eONCe-228" style="vsdxID=21;edgeStyle=none;startArrow=none;endArrow=none;startSize=3;endSize=3;strokeColor=#000000;spacingTop=-3;spacingBottom=-3;spacingLeft=-3;spacingRight=-3;verticalAlign=middle;html=1;labelBackgroundColor=#ffffff;rounded=0;" edge="1" parent="mxeymXjgRgd7a33eONCe-227">
          <mxGeometry relative="1" as="geometry">
            <mxPoint x="-1" as="offset" />
            <Array as="points" />
            <mxPoint as="sourcePoint" />
            <mxPoint x="29" y="33" as="targetPoint" />
          </mxGeometry>
        </mxCell>
        <mxCell id="mxeymXjgRgd7a33eONCe-229" value="S-02" style="ellipse;whiteSpace=wrap;html=1;aspect=fixed;fillColor=#FFC000;strokeColor=#ae4132;fontSize=11;" vertex="1" parent="mxeymXjgRgd7a33eONCe-227">
          <mxGeometry x="9" y="13" width="40" height="40" as="geometry" />
        </mxCell>
        <mxCell id="mxeymXjgRgd7a33eONCe-230" value="" style="group" vertex="1" connectable="0" parent="1">
          <mxGeometry x="280" y="-200" width="40" height="65" as="geometry" />
        </mxCell>
        <mxCell id="mxeymXjgRgd7a33eONCe-231" style="vsdxID=21;edgeStyle=none;startArrow=none;endArrow=none;startSize=3;endSize=3;strokeColor=#000000;spacingTop=-3;spacingBottom=-3;spacingLeft=-3;spacingRight=-3;verticalAlign=middle;html=1;labelBackgroundColor=#ffffff;rounded=0;" edge="1" parent="mxeymXjgRgd7a33eONCe-230">
          <mxGeometry relative="1" as="geometry">
            <mxPoint x="-1" as="offset" />
            <Array as="points" />
            <mxPoint x="20" y="32" as="sourcePoint" />
            <mxPoint x="20" y="65" as="targetPoint" />
          </mxGeometry>
        </mxCell>
        <mxCell id="mxeymXjgRgd7a33eONCe-232" value="T-06.1" style="ellipse;whiteSpace=wrap;html=1;aspect=fixed;fillColor=#00CC00;strokeColor=#ae4132;fontSize=11;" vertex="1" parent="mxeymXjgRgd7a33eONCe-230">
          <mxGeometry width="40" height="40" as="geometry" />
        </mxCell>
        <mxCell id="mxeymXjgRgd7a33eONCe-233" value="" style="group" vertex="1" connectable="0" parent="1">
          <mxGeometry x="20" y="-140" width="62" height="40" as="geometry" />
        </mxCell>
        <mxCell id="mxeymXjgRgd7a33eONCe-234" style="vsdxID=21;edgeStyle=none;startArrow=none;endArrow=none;startSize=3;endSize=3;strokeColor=#000000;spacingTop=-3;spacingBottom=-3;spacingLeft=-3;spacingRight=-3;verticalAlign=middle;html=1;labelBackgroundColor=#ffffff;rounded=0;" edge="1" parent="mxeymXjgRgd7a33eONCe-233">
          <mxGeometry relative="1" as="geometry">
            <mxPoint x="-1" as="offset" />
            <Array as="points" />
            <mxPoint x="30" y="20" as="sourcePoint" />
            <mxPoint x="62" y="20" as="targetPoint" />
          </mxGeometry>
        </mxCell>
        <mxCell id="mxeymXjgRgd7a33eONCe-235" value="T-06.2" style="ellipse;whiteSpace=wrap;html=1;aspect=fixed;fillColor=#00CC00;strokeColor=#ae4132;fontSize=11;" vertex="1" parent="mxeymXjgRgd7a33eONCe-233">
          <mxGeometry width="40" height="40" as="geometry" />
        </mxCell>
        <mxCell id="mxeymXjgRgd7a33eONCe-236" value="" style="group" vertex="1" connectable="0" parent="1">
          <mxGeometry x="-40" width="52" height="53" as="geometry" />
        </mxCell>
        <mxCell id="mxeymXjgRgd7a33eONCe-237" style="vsdxID=21;edgeStyle=none;startArrow=none;endArrow=none;startSize=3;endSize=3;strokeColor=#000000;spacingTop=-3;spacingBottom=-3;spacingLeft=-3;spacingRight=-3;verticalAlign=middle;html=1;labelBackgroundColor=#ffffff;rounded=0;" edge="1" parent="mxeymXjgRgd7a33eONCe-236">
          <mxGeometry relative="1" as="geometry">
            <mxPoint x="-1" as="offset" />
            <Array as="points" />
            <mxPoint x="52" as="sourcePoint" />
            <mxPoint x="20" y="33" as="targetPoint" />
          </mxGeometry>
        </mxCell>
        <mxCell id="mxeymXjgRgd7a33eONCe-238" value="S-03" style="ellipse;whiteSpace=wrap;html=1;aspect=fixed;fillColor=#FFC000;strokeColor=#ae4132;fontSize=11;" vertex="1" parent="mxeymXjgRgd7a33eONCe-236">
          <mxGeometry y="13" width="40" height="40" as="geometry" />
        </mxCell>
        <mxCell id="mxeymXjgRgd7a33eONCe-239" value="" style="group" vertex="1" connectable="0" parent="1">
          <mxGeometry x="30" y="-280" width="52" height="53" as="geometry" />
        </mxCell>
        <mxCell id="mxeymXjgRgd7a33eONCe-240" style="vsdxID=21;edgeStyle=none;startArrow=none;endArrow=none;startSize=3;endSize=3;strokeColor=#000000;spacingTop=-3;spacingBottom=-3;spacingLeft=-3;spacingRight=-3;verticalAlign=middle;html=1;labelBackgroundColor=#ffffff;rounded=0;" edge="1" parent="mxeymXjgRgd7a33eONCe-239">
          <mxGeometry relative="1" as="geometry">
            <mxPoint x="-1" as="offset" />
            <Array as="points" />
            <mxPoint x="52" as="sourcePoint" />
            <mxPoint x="20" y="33" as="targetPoint" />
          </mxGeometry>
        </mxCell>
        <mxCell id="mxeymXjgRgd7a33eONCe-241" value="S-04" style="ellipse;whiteSpace=wrap;html=1;aspect=fixed;fillColor=#FFC000;strokeColor=#ae4132;fontSize=11;" vertex="1" parent="mxeymXjgRgd7a33eONCe-239">
          <mxGeometry y="13" width="40" height="40" as="geometry" />
        </mxCell>
        <mxCell id="mxeymXjgRgd7a33eONCe-242" value="" style="group" vertex="1" connectable="0" parent="1">
          <mxGeometry x="-480" y="-400" width="40" height="65" as="geometry" />
        </mxCell>
        <mxCell id="mxeymXjgRgd7a33eONCe-243" style="vsdxID=21;edgeStyle=none;startArrow=none;endArrow=none;startSize=3;endSize=3;strokeColor=#000000;spacingTop=-3;spacingBottom=-3;spacingLeft=-3;spacingRight=-3;verticalAlign=middle;html=1;labelBackgroundColor=#ffffff;rounded=0;" edge="1" parent="mxeymXjgRgd7a33eONCe-242">
          <mxGeometry relative="1" as="geometry">
            <mxPoint x="-1" as="offset" />
            <Array as="points" />
            <mxPoint x="20" y="32" as="sourcePoint" />
            <mxPoint x="20" y="65" as="targetPoint" />
          </mxGeometry>
        </mxCell>
        <mxCell id="mxeymXjgRgd7a33eONCe-244" value="S-05" style="ellipse;whiteSpace=wrap;html=1;aspect=fixed;fillColor=#FFC000;strokeColor=#ae4132;fontSize=11;" vertex="1" parent="mxeymXjgRgd7a33eONCe-242">
          <mxGeometry width="40" height="40" as="geometry" />
        </mxCell>
        <mxCell id="mxeymXjgRgd7a33eONCe-245" value="" style="group" vertex="1" connectable="0" parent="1">
          <mxGeometry x="330" y="-280" width="65" height="40" as="geometry" />
        </mxCell>
        <mxCell id="mxeymXjgRgd7a33eONCe-246" style="vsdxID=21;edgeStyle=none;startArrow=none;endArrow=none;startSize=3;endSize=3;strokeColor=#000000;spacingTop=-3;spacingBottom=-3;spacingLeft=-3;spacingRight=-3;verticalAlign=middle;html=1;labelBackgroundColor=#ffffff;rounded=0;" edge="1" parent="mxeymXjgRgd7a33eONCe-245">
          <mxGeometry relative="1" as="geometry">
            <mxPoint x="-1" as="offset" />
            <Array as="points" />
            <mxPoint y="20" as="sourcePoint" />
            <mxPoint x="32" y="20" as="targetPoint" />
          </mxGeometry>
        </mxCell>
        <mxCell id="mxeymXjgRgd7a33eONCe-247" value="P-02" style="ellipse;whiteSpace=wrap;html=1;aspect=fixed;fillColor=#FF0000;strokeColor=#ae4132;fontSize=11;" vertex="1" parent="mxeymXjgRgd7a33eONCe-245">
          <mxGeometry x="25" width="40" height="40" as="geometry" />
        </mxCell>
        <mxCell id="mxeymXjgRgd7a33eONCe-248" value="" style="group" vertex="1" connectable="0" parent="1">
          <mxGeometry x="30" y="-380" width="62" height="40" as="geometry" />
        </mxCell>
        <mxCell id="mxeymXjgRgd7a33eONCe-249" style="vsdxID=21;edgeStyle=none;startArrow=none;endArrow=none;startSize=3;endSize=3;strokeColor=#000000;spacingTop=-3;spacingBottom=-3;spacingLeft=-3;spacingRight=-3;verticalAlign=middle;html=1;labelBackgroundColor=#ffffff;rounded=0;" edge="1" parent="mxeymXjgRgd7a33eONCe-248">
          <mxGeometry relative="1" as="geometry">
            <mxPoint x="-1" as="offset" />
            <Array as="points" />
            <mxPoint x="30" y="20" as="sourcePoint" />
            <mxPoint x="62" y="20" as="targetPoint" />
          </mxGeometry>
        </mxCell>
        <mxCell id="mxeymXjgRgd7a33eONCe-250" value="T-07" style="ellipse;whiteSpace=wrap;html=1;aspect=fixed;fillColor=#00CC00;strokeColor=#ae4132;fontSize=11;" vertex="1" parent="mxeymXjgRgd7a33eONCe-248">
          <mxGeometry width="40" height="40" as="geometry" />
        </mxCell>
        <mxCell id="mxeymXjgRgd7a33eONCe-251" value="" style="group" vertex="1" connectable="0" parent="1">
          <mxGeometry x="160" y="-490" width="52" height="53" as="geometry" />
        </mxCell>
        <mxCell id="mxeymXjgRgd7a33eONCe-252" style="vsdxID=21;edgeStyle=none;startArrow=none;endArrow=none;startSize=3;endSize=3;strokeColor=#000000;spacingTop=-3;spacingBottom=-3;spacingLeft=-3;spacingRight=-3;verticalAlign=middle;html=1;labelBackgroundColor=#ffffff;rounded=0;" edge="1" parent="mxeymXjgRgd7a33eONCe-251">
          <mxGeometry relative="1" as="geometry">
            <mxPoint x="-1" as="offset" />
            <Array as="points" />
            <mxPoint x="52" as="sourcePoint" />
            <mxPoint x="20" y="33" as="targetPoint" />
          </mxGeometry>
        </mxCell>
        <mxCell id="mxeymXjgRgd7a33eONCe-253" value="PS-02" style="ellipse;whiteSpace=wrap;html=1;aspect=fixed;fillColor=#7FB5C1;strokeColor=#ae4132;fontSize=11;" vertex="1" parent="mxeymXjgRgd7a33eONCe-251">
          <mxGeometry y="13" width="40" height="40" as="geometry" />
        </mxCell>
        <mxCell id="mxeymXjgRgd7a33eONCe-254" value="" style="group" vertex="1" connectable="0" parent="1">
          <mxGeometry x="-140" y="-710" width="40" height="65" as="geometry" />
        </mxCell>
        <mxCell id="mxeymXjgRgd7a33eONCe-255" style="vsdxID=21;edgeStyle=none;startArrow=none;endArrow=none;startSize=3;endSize=3;strokeColor=#000000;spacingTop=-3;spacingBottom=-3;spacingLeft=-3;spacingRight=-3;verticalAlign=middle;html=1;labelBackgroundColor=#ffffff;rounded=0;" edge="1" parent="mxeymXjgRgd7a33eONCe-254">
          <mxGeometry relative="1" as="geometry">
            <mxPoint x="-1" as="offset" />
            <Array as="points" />
            <mxPoint x="20" y="32" as="sourcePoint" />
            <mxPoint x="20" y="65" as="targetPoint" />
          </mxGeometry>
        </mxCell>
        <mxCell id="mxeymXjgRgd7a33eONCe-256" value="T-08.1" style="ellipse;whiteSpace=wrap;html=1;aspect=fixed;fillColor=#00CC00;strokeColor=#ae4132;fontSize=11;" vertex="1" parent="mxeymXjgRgd7a33eONCe-254">
          <mxGeometry width="40" height="40" as="geometry" />
        </mxCell>
        <mxCell id="mxeymXjgRgd7a33eONCe-257" value="" style="group" vertex="1" connectable="0" parent="1">
          <mxGeometry x="-60" y="-580" width="40" height="65" as="geometry" />
        </mxCell>
        <mxCell id="mxeymXjgRgd7a33eONCe-258" style="vsdxID=21;edgeStyle=none;startArrow=none;endArrow=none;startSize=3;endSize=3;strokeColor=#000000;spacingTop=-3;spacingBottom=-3;spacingLeft=-3;spacingRight=-3;verticalAlign=middle;html=1;labelBackgroundColor=#ffffff;rounded=0;" edge="1" parent="mxeymXjgRgd7a33eONCe-257">
          <mxGeometry relative="1" as="geometry">
            <mxPoint x="-1" as="offset" />
            <Array as="points" />
            <mxPoint x="20" as="sourcePoint" />
            <mxPoint x="20" y="33" as="targetPoint" />
          </mxGeometry>
        </mxCell>
        <mxCell id="mxeymXjgRgd7a33eONCe-259" value="T-08.2" style="ellipse;whiteSpace=wrap;html=1;aspect=fixed;fillColor=#00CC00;strokeColor=#ae4132;fontSize=11;" vertex="1" parent="mxeymXjgRgd7a33eONCe-257">
          <mxGeometry y="25" width="40" height="40" as="geometry" />
        </mxCell>
        <mxCell id="mxeymXjgRgd7a33eONCe-260" value="" style="group" vertex="1" connectable="0" parent="1">
          <mxGeometry x="-80" y="-420" width="65" height="40" as="geometry" />
        </mxCell>
        <mxCell id="mxeymXjgRgd7a33eONCe-261" style="vsdxID=21;edgeStyle=none;startArrow=none;endArrow=none;startSize=3;endSize=3;strokeColor=#000000;spacingTop=-3;spacingBottom=-3;spacingLeft=-3;spacingRight=-3;verticalAlign=middle;html=1;labelBackgroundColor=#ffffff;rounded=0;" edge="1" parent="mxeymXjgRgd7a33eONCe-260">
          <mxGeometry relative="1" as="geometry">
            <mxPoint x="-1" as="offset" />
            <Array as="points" />
            <mxPoint y="20" as="sourcePoint" />
            <mxPoint x="32" y="20" as="targetPoint" />
          </mxGeometry>
        </mxCell>
        <mxCell id="mxeymXjgRgd7a33eONCe-262" value="T-08.3" style="ellipse;whiteSpace=wrap;html=1;aspect=fixed;fillColor=#00CC00;strokeColor=#ae4132;fontSize=11;" vertex="1" parent="mxeymXjgRgd7a33eONCe-260">
          <mxGeometry x="25" width="40" height="40" as="geometry" />
        </mxCell>
        <mxCell id="mxeymXjgRgd7a33eONCe-263" value="" style="group" vertex="1" connectable="0" parent="1">
          <mxGeometry x="-550" y="-520" width="40" height="65" as="geometry" />
        </mxCell>
        <mxCell id="mxeymXjgRgd7a33eONCe-264" style="vsdxID=21;edgeStyle=none;startArrow=none;endArrow=none;startSize=3;endSize=3;strokeColor=#000000;spacingTop=-3;spacingBottom=-3;spacingLeft=-3;spacingRight=-3;verticalAlign=middle;html=1;labelBackgroundColor=#ffffff;rounded=0;" edge="1" parent="mxeymXjgRgd7a33eONCe-263">
          <mxGeometry relative="1" as="geometry">
            <mxPoint x="-1" as="offset" />
            <Array as="points" />
            <mxPoint x="20" as="sourcePoint" />
            <mxPoint x="20" y="33" as="targetPoint" />
          </mxGeometry>
        </mxCell>
        <mxCell id="mxeymXjgRgd7a33eONCe-265" value="S-06" style="ellipse;whiteSpace=wrap;html=1;aspect=fixed;fillColor=#FFC000;strokeColor=#ae4132;fontSize=11;" vertex="1" parent="mxeymXjgRgd7a33eONCe-263">
          <mxGeometry y="25" width="40" height="40" as="geometry" />
        </mxCell>
        <mxCell id="mxeymXjgRgd7a33eONCe-266" value="" style="group" vertex="1" connectable="0" parent="1">
          <mxGeometry x="-180" y="-470" width="62" height="40" as="geometry" />
        </mxCell>
        <mxCell id="mxeymXjgRgd7a33eONCe-267" style="vsdxID=21;edgeStyle=none;startArrow=none;endArrow=none;startSize=3;endSize=3;strokeColor=#000000;spacingTop=-3;spacingBottom=-3;spacingLeft=-3;spacingRight=-3;verticalAlign=middle;html=1;labelBackgroundColor=#ffffff;rounded=0;" edge="1" parent="mxeymXjgRgd7a33eONCe-266">
          <mxGeometry relative="1" as="geometry">
            <mxPoint x="-1" as="offset" />
            <Array as="points" />
            <mxPoint x="30" y="20" as="sourcePoint" />
            <mxPoint x="62" y="20" as="targetPoint" />
          </mxGeometry>
        </mxCell>
        <mxCell id="mxeymXjgRgd7a33eONCe-268" value="T-09.2" style="ellipse;whiteSpace=wrap;html=1;aspect=fixed;fillColor=#00CC00;strokeColor=#ae4132;fontSize=11;" vertex="1" parent="mxeymXjgRgd7a33eONCe-266">
          <mxGeometry width="40" height="40" as="geometry" />
        </mxCell>
        <mxCell id="mxeymXjgRgd7a33eONCe-269" value="" style="group" vertex="1" connectable="0" parent="1">
          <mxGeometry x="-110" y="-290" width="40" height="65" as="geometry" />
        </mxCell>
        <mxCell id="mxeymXjgRgd7a33eONCe-270" style="vsdxID=21;edgeStyle=none;startArrow=none;endArrow=none;startSize=3;endSize=3;strokeColor=#000000;spacingTop=-3;spacingBottom=-3;spacingLeft=-3;spacingRight=-3;verticalAlign=middle;html=1;labelBackgroundColor=#ffffff;rounded=0;" edge="1" parent="mxeymXjgRgd7a33eONCe-269">
          <mxGeometry relative="1" as="geometry">
            <mxPoint x="-1" as="offset" />
            <Array as="points" />
            <mxPoint x="20" y="32" as="sourcePoint" />
            <mxPoint x="20" y="65" as="targetPoint" />
          </mxGeometry>
        </mxCell>
        <mxCell id="mxeymXjgRgd7a33eONCe-271" value="T-09.1" style="ellipse;whiteSpace=wrap;html=1;aspect=fixed;fillColor=#00CC00;strokeColor=#ae4132;fontSize=11;" vertex="1" parent="mxeymXjgRgd7a33eONCe-269">
          <mxGeometry width="40" height="40" as="geometry" />
        </mxCell>
        <mxCell id="mxeymXjgRgd7a33eONCe-272" value="" style="group" vertex="1" connectable="0" parent="1">
          <mxGeometry x="220" y="-400" width="62" height="40" as="geometry" />
        </mxCell>
        <mxCell id="mxeymXjgRgd7a33eONCe-273" style="vsdxID=21;edgeStyle=none;startArrow=none;endArrow=none;startSize=3;endSize=3;strokeColor=#000000;spacingTop=-3;spacingBottom=-3;spacingLeft=-3;spacingRight=-3;verticalAlign=middle;html=1;labelBackgroundColor=#ffffff;rounded=0;" edge="1" parent="mxeymXjgRgd7a33eONCe-272">
          <mxGeometry relative="1" as="geometry">
            <mxPoint x="-1" as="offset" />
            <Array as="points" />
            <mxPoint x="30" y="20" as="sourcePoint" />
            <mxPoint x="62" y="20" as="targetPoint" />
          </mxGeometry>
        </mxCell>
        <mxCell id="mxeymXjgRgd7a33eONCe-274" value="T-10" style="ellipse;whiteSpace=wrap;html=1;aspect=fixed;fillColor=#00CC00;strokeColor=#ae4132;fontSize=11;" vertex="1" parent="mxeymXjgRgd7a33eONCe-272">
          <mxGeometry width="40" height="40" as="geometry" />
        </mxCell>
        <mxCell id="mxeymXjgRgd7a33eONCe-275" value="" style="group" vertex="1" connectable="0" parent="1">
          <mxGeometry x="400" y="-532" width="49" height="53" as="geometry" />
        </mxCell>
        <mxCell id="mxeymXjgRgd7a33eONCe-276" style="vsdxID=21;edgeStyle=none;startArrow=none;endArrow=none;startSize=3;endSize=3;strokeColor=#000000;spacingTop=-3;spacingBottom=-3;spacingLeft=-3;spacingRight=-3;verticalAlign=middle;html=1;labelBackgroundColor=#ffffff;rounded=0;" edge="1" parent="mxeymXjgRgd7a33eONCe-275">
          <mxGeometry relative="1" as="geometry">
            <mxPoint x="-1" as="offset" />
            <Array as="points" />
            <mxPoint as="sourcePoint" />
            <mxPoint x="29" y="33" as="targetPoint" />
          </mxGeometry>
        </mxCell>
        <mxCell id="mxeymXjgRgd7a33eONCe-277" value="P-03" style="ellipse;whiteSpace=wrap;html=1;aspect=fixed;fillColor=#FF0000;strokeColor=#ae4132;fontSize=11;" vertex="1" parent="mxeymXjgRgd7a33eONCe-275">
          <mxGeometry x="9" y="13" width="40" height="40" as="geometry" />
        </mxCell>
        <mxCell id="mxeymXjgRgd7a33eONCe-278" value="" style="group" vertex="1" connectable="0" parent="1">
          <mxGeometry x="360" y="-460" width="62" height="40" as="geometry" />
        </mxCell>
        <mxCell id="mxeymXjgRgd7a33eONCe-279" style="vsdxID=21;edgeStyle=none;startArrow=none;endArrow=none;startSize=3;endSize=3;strokeColor=#000000;spacingTop=-3;spacingBottom=-3;spacingLeft=-3;spacingRight=-3;verticalAlign=middle;html=1;labelBackgroundColor=#ffffff;rounded=0;" edge="1" parent="mxeymXjgRgd7a33eONCe-278">
          <mxGeometry relative="1" as="geometry">
            <mxPoint x="-1" as="offset" />
            <Array as="points" />
            <mxPoint x="30" y="20" as="sourcePoint" />
            <mxPoint x="62" y="20" as="targetPoint" />
          </mxGeometry>
        </mxCell>
        <mxCell id="mxeymXjgRgd7a33eONCe-280" value="T-11" style="ellipse;whiteSpace=wrap;html=1;aspect=fixed;fillColor=#00CC00;strokeColor=#ae4132;fontSize=11;" vertex="1" parent="mxeymXjgRgd7a33eONCe-278">
          <mxGeometry width="40" height="40" as="geometry" />
        </mxCell>
        <mxCell id="mxeymXjgRgd7a33eONCe-281" value="" style="group" vertex="1" connectable="0" parent="1">
          <mxGeometry x="543" y="-150" width="40" height="65" as="geometry" />
        </mxCell>
        <mxCell id="mxeymXjgRgd7a33eONCe-282" style="vsdxID=21;edgeStyle=none;startArrow=none;endArrow=none;startSize=3;endSize=3;strokeColor=#000000;spacingTop=-3;spacingBottom=-3;spacingLeft=-3;spacingRight=-3;verticalAlign=middle;html=1;labelBackgroundColor=#ffffff;rounded=0;" edge="1" parent="mxeymXjgRgd7a33eONCe-281">
          <mxGeometry relative="1" as="geometry">
            <mxPoint x="-1" as="offset" />
            <Array as="points" />
            <mxPoint x="20" as="sourcePoint" />
            <mxPoint x="20" y="33" as="targetPoint" />
          </mxGeometry>
        </mxCell>
        <mxCell id="mxeymXjgRgd7a33eONCe-283" value="T-12" style="ellipse;whiteSpace=wrap;html=1;aspect=fixed;fillColor=#00CC00;strokeColor=#ae4132;fontSize=11;" vertex="1" parent="mxeymXjgRgd7a33eONCe-281">
          <mxGeometry y="25" width="40" height="40" as="geometry" />
        </mxCell>
        <mxCell id="mxeymXjgRgd7a33eONCe-284" value="" style="group" vertex="1" connectable="0" parent="1">
          <mxGeometry x="526" y="-233" width="40" height="65" as="geometry" />
        </mxCell>
        <mxCell id="mxeymXjgRgd7a33eONCe-285" style="vsdxID=21;edgeStyle=none;startArrow=none;endArrow=none;startSize=3;endSize=3;strokeColor=#000000;spacingTop=-3;spacingBottom=-3;spacingLeft=-3;spacingRight=-3;verticalAlign=middle;html=1;labelBackgroundColor=#ffffff;rounded=0;" edge="1" parent="mxeymXjgRgd7a33eONCe-284">
          <mxGeometry relative="1" as="geometry">
            <mxPoint x="-1" as="offset" />
            <Array as="points" />
            <mxPoint x="20" as="sourcePoint" />
            <mxPoint x="20" y="33" as="targetPoint" />
          </mxGeometry>
        </mxCell>
        <mxCell id="mxeymXjgRgd7a33eONCe-286" value="T-13.1" style="ellipse;whiteSpace=wrap;html=1;aspect=fixed;fillColor=#00CC00;strokeColor=#ae4132;fontSize=11;" vertex="1" parent="mxeymXjgRgd7a33eONCe-284">
          <mxGeometry y="25" width="40" height="40" as="geometry" />
        </mxCell>
        <mxCell id="mxeymXjgRgd7a33eONCe-287" value="" style="group" vertex="1" connectable="0" parent="1">
          <mxGeometry x="670" y="-190" width="52" height="53" as="geometry" />
        </mxCell>
        <mxCell id="mxeymXjgRgd7a33eONCe-288" style="vsdxID=21;edgeStyle=none;startArrow=none;endArrow=none;startSize=3;endSize=3;strokeColor=#000000;spacingTop=-3;spacingBottom=-3;spacingLeft=-3;spacingRight=-3;verticalAlign=middle;html=1;labelBackgroundColor=#ffffff;rounded=0;" edge="1" parent="mxeymXjgRgd7a33eONCe-287">
          <mxGeometry relative="1" as="geometry">
            <mxPoint x="-1" as="offset" />
            <Array as="points" />
            <mxPoint x="52" as="sourcePoint" />
            <mxPoint x="20" y="33" as="targetPoint" />
          </mxGeometry>
        </mxCell>
        <mxCell id="mxeymXjgRgd7a33eONCe-289" value="PS-03" style="ellipse;whiteSpace=wrap;html=1;aspect=fixed;fillColor=#7FB5C1;strokeColor=#ae4132;fontSize=11;" vertex="1" parent="mxeymXjgRgd7a33eONCe-287">
          <mxGeometry y="13" width="40" height="40" as="geometry" />
        </mxCell>
        <mxCell id="mxeymXjgRgd7a33eONCe-290" value="" style="group" vertex="1" connectable="0" parent="1">
          <mxGeometry x="620" y="-20" width="62" height="40" as="geometry" />
        </mxCell>
        <mxCell id="mxeymXjgRgd7a33eONCe-291" style="vsdxID=21;edgeStyle=none;startArrow=none;endArrow=none;startSize=3;endSize=3;strokeColor=#000000;spacingTop=-3;spacingBottom=-3;spacingLeft=-3;spacingRight=-3;verticalAlign=middle;html=1;labelBackgroundColor=#ffffff;rounded=0;" edge="1" parent="mxeymXjgRgd7a33eONCe-290">
          <mxGeometry relative="1" as="geometry">
            <mxPoint x="-1" as="offset" />
            <Array as="points" />
            <mxPoint x="30" y="20" as="sourcePoint" />
            <mxPoint x="62" y="20" as="targetPoint" />
          </mxGeometry>
        </mxCell>
        <mxCell id="mxeymXjgRgd7a33eONCe-292" value="S-08" style="ellipse;whiteSpace=wrap;html=1;aspect=fixed;fillColor=#ffc000;strokeColor=#ae4132;fontSize=11;" vertex="1" parent="mxeymXjgRgd7a33eONCe-290">
          <mxGeometry width="40" height="40" as="geometry" />
        </mxCell>
        <mxCell id="mxeymXjgRgd7a33eONCe-293" value="" style="group" vertex="1" connectable="0" parent="1">
          <mxGeometry x="790" y="-150" width="65" height="40" as="geometry" />
        </mxCell>
        <mxCell id="mxeymXjgRgd7a33eONCe-294" style="vsdxID=21;edgeStyle=none;startArrow=none;endArrow=none;startSize=3;endSize=3;strokeColor=#000000;spacingTop=-3;spacingBottom=-3;spacingLeft=-3;spacingRight=-3;verticalAlign=middle;html=1;labelBackgroundColor=#ffffff;rounded=0;" edge="1" parent="mxeymXjgRgd7a33eONCe-293">
          <mxGeometry relative="1" as="geometry">
            <mxPoint x="-1" as="offset" />
            <Array as="points" />
            <mxPoint y="20" as="sourcePoint" />
            <mxPoint x="32" y="20" as="targetPoint" />
          </mxGeometry>
        </mxCell>
        <mxCell id="mxeymXjgRgd7a33eONCe-295" value="T-14" style="ellipse;whiteSpace=wrap;html=1;aspect=fixed;fillColor=#00CC00;strokeColor=#ae4132;fontSize=11;" vertex="1" parent="mxeymXjgRgd7a33eONCe-293">
          <mxGeometry x="25" width="40" height="40" as="geometry" />
        </mxCell>
        <mxCell id="mxeymXjgRgd7a33eONCe-296" value="" style="group" vertex="1" connectable="0" parent="1">
          <mxGeometry x="574" y="-541" width="40" height="65" as="geometry" />
        </mxCell>
        <mxCell id="mxeymXjgRgd7a33eONCe-297" style="vsdxID=21;edgeStyle=none;startArrow=none;endArrow=none;startSize=3;endSize=3;strokeColor=#000000;spacingTop=-3;spacingBottom=-3;spacingLeft=-3;spacingRight=-3;verticalAlign=middle;html=1;labelBackgroundColor=#ffffff;rounded=0;" edge="1" parent="mxeymXjgRgd7a33eONCe-296">
          <mxGeometry relative="1" as="geometry">
            <mxPoint x="-1" as="offset" />
            <Array as="points" />
            <mxPoint x="20" as="sourcePoint" />
            <mxPoint x="20" y="33" as="targetPoint" />
          </mxGeometry>
        </mxCell>
        <mxCell id="mxeymXjgRgd7a33eONCe-298" value="T-13.2" style="ellipse;whiteSpace=wrap;html=1;aspect=fixed;fillColor=#00CC00;strokeColor=#ae4132;fontSize=11;" vertex="1" parent="mxeymXjgRgd7a33eONCe-296">
          <mxGeometry y="25" width="40" height="40" as="geometry" />
        </mxCell>
        <mxCell id="mxeymXjgRgd7a33eONCe-299" value="" style="group" vertex="1" connectable="0" parent="1">
          <mxGeometry x="900" y="-460" width="62" height="40" as="geometry" />
        </mxCell>
        <mxCell id="mxeymXjgRgd7a33eONCe-300" style="vsdxID=21;edgeStyle=none;startArrow=none;endArrow=none;startSize=3;endSize=3;strokeColor=#000000;spacingTop=-3;spacingBottom=-3;spacingLeft=-3;spacingRight=-3;verticalAlign=middle;html=1;labelBackgroundColor=#ffffff;rounded=0;" edge="1" parent="mxeymXjgRgd7a33eONCe-299">
          <mxGeometry relative="1" as="geometry">
            <mxPoint x="-1" as="offset" />
            <Array as="points" />
            <mxPoint x="30" y="20" as="sourcePoint" />
            <mxPoint x="62" y="20" as="targetPoint" />
          </mxGeometry>
        </mxCell>
        <mxCell id="mxeymXjgRgd7a33eONCe-301" value="T-08.4" style="ellipse;whiteSpace=wrap;html=1;aspect=fixed;fillColor=#00CC00;strokeColor=#ae4132;fontSize=11;" vertex="1" parent="mxeymXjgRgd7a33eONCe-299">
          <mxGeometry width="40" height="40" as="geometry" />
        </mxCell>
        <mxCell id="mxeymXjgRgd7a33eONCe-302" value="" style="group" vertex="1" connectable="0" parent="1">
          <mxGeometry x="490" y="-70" width="65" height="40" as="geometry" />
        </mxCell>
        <mxCell id="mxeymXjgRgd7a33eONCe-303" style="vsdxID=21;edgeStyle=none;startArrow=none;endArrow=none;startSize=3;endSize=3;strokeColor=#000000;spacingTop=-3;spacingBottom=-3;spacingLeft=-3;spacingRight=-3;verticalAlign=middle;html=1;labelBackgroundColor=#ffffff;rounded=0;" edge="1" parent="mxeymXjgRgd7a33eONCe-302">
          <mxGeometry relative="1" as="geometry">
            <mxPoint x="-1" as="offset" />
            <Array as="points" />
            <mxPoint y="20" as="sourcePoint" />
            <mxPoint x="32" y="20" as="targetPoint" />
          </mxGeometry>
        </mxCell>
        <mxCell id="mxeymXjgRgd7a33eONCe-304" value="T-15.3" style="ellipse;whiteSpace=wrap;html=1;aspect=fixed;fillColor=#00CC00;strokeColor=#ae4132;fontSize=11;" vertex="1" parent="mxeymXjgRgd7a33eONCe-302">
          <mxGeometry x="25" width="40" height="40" as="geometry" />
        </mxCell>
        <mxCell id="mxeymXjgRgd7a33eONCe-305" value="" style="group" vertex="1" connectable="0" parent="1">
          <mxGeometry x="440" y="-330" width="40" height="65" as="geometry" />
        </mxCell>
        <mxCell id="mxeymXjgRgd7a33eONCe-306" style="vsdxID=21;edgeStyle=none;startArrow=none;endArrow=none;startSize=3;endSize=3;strokeColor=#000000;spacingTop=-3;spacingBottom=-3;spacingLeft=-3;spacingRight=-3;verticalAlign=middle;html=1;labelBackgroundColor=#ffffff;rounded=0;" edge="1" parent="mxeymXjgRgd7a33eONCe-305">
          <mxGeometry relative="1" as="geometry">
            <mxPoint x="-1" as="offset" />
            <Array as="points" />
            <mxPoint x="20" y="32" as="sourcePoint" />
            <mxPoint x="20" y="65" as="targetPoint" />
          </mxGeometry>
        </mxCell>
        <mxCell id="mxeymXjgRgd7a33eONCe-307" value="T-15.2" style="ellipse;whiteSpace=wrap;html=1;aspect=fixed;fillColor=#00CC00;strokeColor=#ae4132;fontSize=11;" vertex="1" parent="mxeymXjgRgd7a33eONCe-305">
          <mxGeometry width="40" height="40" as="geometry" />
        </mxCell>
        <mxCell id="mxeymXjgRgd7a33eONCe-308" value="" style="group" vertex="1" connectable="0" parent="1">
          <mxGeometry x="490" y="-460" width="65" height="40" as="geometry" />
        </mxCell>
        <mxCell id="mxeymXjgRgd7a33eONCe-309" style="vsdxID=21;edgeStyle=none;startArrow=none;endArrow=none;startSize=3;endSize=3;strokeColor=#000000;spacingTop=-3;spacingBottom=-3;spacingLeft=-3;spacingRight=-3;verticalAlign=middle;html=1;labelBackgroundColor=#ffffff;rounded=0;" edge="1" parent="mxeymXjgRgd7a33eONCe-308">
          <mxGeometry relative="1" as="geometry">
            <mxPoint x="-1" as="offset" />
            <Array as="points" />
            <mxPoint y="20" as="sourcePoint" />
            <mxPoint x="32" y="20" as="targetPoint" />
          </mxGeometry>
        </mxCell>
        <mxCell id="mxeymXjgRgd7a33eONCe-310" value="T-15.1" style="ellipse;whiteSpace=wrap;html=1;aspect=fixed;fillColor=#00CC00;strokeColor=#ae4132;fontSize=11;" vertex="1" parent="mxeymXjgRgd7a33eONCe-308">
          <mxGeometry x="25" width="40" height="40" as="geometry" />
        </mxCell>
        <mxCell id="mxeymXjgRgd7a33eONCe-311" value="" style="group" vertex="1" connectable="0" parent="1">
          <mxGeometry x="530" y="-400" width="40" height="65" as="geometry" />
        </mxCell>
        <mxCell id="mxeymXjgRgd7a33eONCe-312" style="vsdxID=21;edgeStyle=none;startArrow=none;endArrow=none;startSize=3;endSize=3;strokeColor=#000000;spacingTop=-3;spacingBottom=-3;spacingLeft=-3;spacingRight=-3;verticalAlign=middle;html=1;labelBackgroundColor=#ffffff;rounded=0;" edge="1" parent="mxeymXjgRgd7a33eONCe-311">
          <mxGeometry relative="1" as="geometry">
            <mxPoint x="-1" as="offset" />
            <Array as="points" />
            <mxPoint x="20" as="sourcePoint" />
            <mxPoint x="20" y="33" as="targetPoint" />
          </mxGeometry>
        </mxCell>
        <mxCell id="mxeymXjgRgd7a33eONCe-313" value="T-16.1" style="ellipse;whiteSpace=wrap;html=1;aspect=fixed;fillColor=#00CC00;strokeColor=#ae4132;fontSize=11;" vertex="1" parent="mxeymXjgRgd7a33eONCe-311">
          <mxGeometry y="25" width="40" height="40" as="geometry" />
        </mxCell>
        <mxCell id="mxeymXjgRgd7a33eONCe-314" value="" style="group" vertex="1" connectable="0" parent="1">
          <mxGeometry x="610" y="-610" width="40" height="65" as="geometry" />
        </mxCell>
        <mxCell id="mxeymXjgRgd7a33eONCe-315" style="vsdxID=21;edgeStyle=none;startArrow=none;endArrow=none;startSize=3;endSize=3;strokeColor=#000000;spacingTop=-3;spacingBottom=-3;spacingLeft=-3;spacingRight=-3;verticalAlign=middle;html=1;labelBackgroundColor=#ffffff;rounded=0;" edge="1" parent="mxeymXjgRgd7a33eONCe-314">
          <mxGeometry relative="1" as="geometry">
            <mxPoint x="-1" as="offset" />
            <Array as="points" />
            <mxPoint x="20" as="sourcePoint" />
            <mxPoint x="20" y="33" as="targetPoint" />
          </mxGeometry>
        </mxCell>
        <mxCell id="mxeymXjgRgd7a33eONCe-316" value="T-16.2" style="ellipse;whiteSpace=wrap;html=1;aspect=fixed;fillColor=#00CC00;strokeColor=#ae4132;fontSize=11;" vertex="1" parent="mxeymXjgRgd7a33eONCe-314">
          <mxGeometry y="25" width="40" height="40" as="geometry" />
        </mxCell>
        <mxCell id="mxeymXjgRgd7a33eONCe-317" value="" style="group" vertex="1" connectable="0" parent="1">
          <mxGeometry x="1210" y="-630" width="40" height="65" as="geometry" />
        </mxCell>
        <mxCell id="mxeymXjgRgd7a33eONCe-318" style="vsdxID=21;edgeStyle=none;startArrow=none;endArrow=none;startSize=3;endSize=3;strokeColor=#000000;spacingTop=-3;spacingBottom=-3;spacingLeft=-3;spacingRight=-3;verticalAlign=middle;html=1;labelBackgroundColor=#ffffff;rounded=0;" edge="1" parent="mxeymXjgRgd7a33eONCe-317">
          <mxGeometry relative="1" as="geometry">
            <mxPoint x="-1" as="offset" />
            <Array as="points" />
            <mxPoint x="20" y="32" as="sourcePoint" />
            <mxPoint x="20" y="65" as="targetPoint" />
          </mxGeometry>
        </mxCell>
        <mxCell id="mxeymXjgRgd7a33eONCe-319" value="T-17" style="ellipse;whiteSpace=wrap;html=1;aspect=fixed;fillColor=#00CC00;strokeColor=#ae4132;fontSize=11;" vertex="1" parent="mxeymXjgRgd7a33eONCe-317">
          <mxGeometry width="40" height="40" as="geometry" />
        </mxCell>
        <mxCell id="mxeymXjgRgd7a33eONCe-320" value="" style="group" vertex="1" connectable="0" parent="1">
          <mxGeometry x="720" y="-430" width="65" height="40" as="geometry" />
        </mxCell>
        <mxCell id="mxeymXjgRgd7a33eONCe-321" style="vsdxID=21;edgeStyle=none;startArrow=none;endArrow=none;startSize=3;endSize=3;strokeColor=#000000;spacingTop=-3;spacingBottom=-3;spacingLeft=-3;spacingRight=-3;verticalAlign=middle;html=1;labelBackgroundColor=#ffffff;rounded=0;" edge="1" parent="mxeymXjgRgd7a33eONCe-320">
          <mxGeometry relative="1" as="geometry">
            <mxPoint x="-1" as="offset" />
            <Array as="points" />
            <mxPoint y="20" as="sourcePoint" />
            <mxPoint x="32" y="20" as="targetPoint" />
          </mxGeometry>
        </mxCell>
        <mxCell id="mxeymXjgRgd7a33eONCe-322" value="T-16.3" style="ellipse;whiteSpace=wrap;html=1;aspect=fixed;fillColor=#00CC00;strokeColor=#ae4132;fontSize=11;" vertex="1" parent="mxeymXjgRgd7a33eONCe-320">
          <mxGeometry x="30" width="40" height="40" as="geometry" />
        </mxCell>
        <mxCell id="mxeymXjgRgd7a33eONCe-323" value="" style="group" vertex="1" connectable="0" parent="1">
          <mxGeometry x="830.54" y="-406.5" width="49" height="53" as="geometry" />
        </mxCell>
        <mxCell id="mxeymXjgRgd7a33eONCe-324" style="vsdxID=21;edgeStyle=none;startArrow=none;endArrow=none;startSize=3;endSize=3;strokeColor=#000000;spacingTop=-3;spacingBottom=-3;spacingLeft=-3;spacingRight=-3;verticalAlign=middle;html=1;labelBackgroundColor=#ffffff;rounded=0;" edge="1" parent="mxeymXjgRgd7a33eONCe-323">
          <mxGeometry relative="1" as="geometry">
            <mxPoint x="-1" as="offset" />
            <Array as="points" />
            <mxPoint as="sourcePoint" />
            <mxPoint x="29" y="33" as="targetPoint" />
          </mxGeometry>
        </mxCell>
        <mxCell id="mxeymXjgRgd7a33eONCe-325" value="T-18.1" style="ellipse;whiteSpace=wrap;html=1;aspect=fixed;fillColor=#00CC00;strokeColor=#ae4132;fontSize=11;" vertex="1" parent="mxeymXjgRgd7a33eONCe-323">
          <mxGeometry x="9" y="13" width="40" height="40" as="geometry" />
        </mxCell>
        <mxCell id="mxeymXjgRgd7a33eONCe-326" value="" style="group" vertex="1" connectable="0" parent="1">
          <mxGeometry x="300" y="-380" width="62" height="40" as="geometry" />
        </mxCell>
        <mxCell id="mxeymXjgRgd7a33eONCe-327" style="vsdxID=21;edgeStyle=none;startArrow=none;endArrow=none;startSize=3;endSize=3;strokeColor=#000000;spacingTop=-3;spacingBottom=-3;spacingLeft=-3;spacingRight=-3;verticalAlign=middle;html=1;labelBackgroundColor=#ffffff;rounded=0;" edge="1" parent="mxeymXjgRgd7a33eONCe-326">
          <mxGeometry relative="1" as="geometry">
            <mxPoint x="-1" as="offset" />
            <Array as="points" />
            <mxPoint x="30" y="20" as="sourcePoint" />
            <mxPoint x="62" y="20" as="targetPoint" />
          </mxGeometry>
        </mxCell>
        <mxCell id="mxeymXjgRgd7a33eONCe-328" value="T-18.2" style="ellipse;whiteSpace=wrap;html=1;aspect=fixed;fillColor=#00CC00;strokeColor=#ae4132;fontSize=11;" vertex="1" parent="mxeymXjgRgd7a33eONCe-326">
          <mxGeometry width="40" height="40" as="geometry" />
        </mxCell>
        <mxCell id="mxeymXjgRgd7a33eONCe-329" value="" style="group" vertex="1" connectable="0" parent="1">
          <mxGeometry x="560" y="-726" width="40" height="65" as="geometry" />
        </mxCell>
        <mxCell id="mxeymXjgRgd7a33eONCe-330" style="vsdxID=21;edgeStyle=none;startArrow=none;endArrow=none;startSize=3;endSize=3;strokeColor=#000000;spacingTop=-3;spacingBottom=-3;spacingLeft=-3;spacingRight=-3;verticalAlign=middle;html=1;labelBackgroundColor=#ffffff;rounded=0;" edge="1" parent="mxeymXjgRgd7a33eONCe-329">
          <mxGeometry relative="1" as="geometry">
            <mxPoint x="-1" as="offset" />
            <Array as="points" />
            <mxPoint x="20" y="32" as="sourcePoint" />
            <mxPoint x="20" y="65" as="targetPoint" />
          </mxGeometry>
        </mxCell>
        <mxCell id="mxeymXjgRgd7a33eONCe-331" value="T-18.3" style="ellipse;whiteSpace=wrap;html=1;aspect=fixed;fillColor=#00CC00;strokeColor=#ae4132;fontSize=11;" vertex="1" parent="mxeymXjgRgd7a33eONCe-329">
          <mxGeometry width="40" height="40" as="geometry" />
        </mxCell>
        <mxCell id="mxeymXjgRgd7a33eONCe-332" value="" style="group" vertex="1" connectable="0" parent="1">
          <mxGeometry x="980" y="470" width="49" height="54" as="geometry" />
        </mxCell>
        <mxCell id="mxeymXjgRgd7a33eONCe-333" style="vsdxID=21;edgeStyle=none;startArrow=none;endArrow=none;startSize=3;endSize=3;strokeColor=#000000;spacingTop=-3;spacingBottom=-3;spacingLeft=-3;spacingRight=-3;verticalAlign=middle;html=1;labelBackgroundColor=#ffffff;rounded=0;" edge="1" parent="mxeymXjgRgd7a33eONCe-332">
          <mxGeometry relative="1" as="geometry">
            <mxPoint x="-1" as="offset" />
            <Array as="points" />
            <mxPoint x="20" y="21" as="sourcePoint" />
            <mxPoint x="49" y="54" as="targetPoint" />
          </mxGeometry>
        </mxCell>
        <mxCell id="mxeymXjgRgd7a33eONCe-334" value="T-19" style="ellipse;whiteSpace=wrap;html=1;aspect=fixed;fillColor=#00CC00;strokeColor=#ae4132;fontSize=11;" vertex="1" parent="mxeymXjgRgd7a33eONCe-332">
          <mxGeometry width="40" height="40" as="geometry" />
        </mxCell>
        <mxCell id="mxeymXjgRgd7a33eONCe-335" value="" style="group" vertex="1" connectable="0" parent="1">
          <mxGeometry x="1140" y="-78" width="40" height="65" as="geometry" />
        </mxCell>
        <mxCell id="mxeymXjgRgd7a33eONCe-336" style="vsdxID=21;edgeStyle=none;startArrow=none;endArrow=none;startSize=3;endSize=3;strokeColor=#000000;spacingTop=-3;spacingBottom=-3;spacingLeft=-3;spacingRight=-3;verticalAlign=middle;html=1;labelBackgroundColor=#ffffff;rounded=0;" edge="1" parent="mxeymXjgRgd7a33eONCe-335">
          <mxGeometry relative="1" as="geometry">
            <mxPoint x="-1" as="offset" />
            <Array as="points" />
            <mxPoint x="20" as="sourcePoint" />
            <mxPoint x="20" y="33" as="targetPoint" />
          </mxGeometry>
        </mxCell>
        <mxCell id="mxeymXjgRgd7a33eONCe-337" value="T-20" style="ellipse;whiteSpace=wrap;html=1;aspect=fixed;fillColor=#00CC00;strokeColor=#ae4132;fontSize=11;" vertex="1" parent="mxeymXjgRgd7a33eONCe-335">
          <mxGeometry y="25" width="40" height="40" as="geometry" />
        </mxCell>
        <mxCell id="mxeymXjgRgd7a33eONCe-338" value="" style="group" vertex="1" connectable="0" parent="1">
          <mxGeometry x="909" y="440" width="62" height="40" as="geometry" />
        </mxCell>
        <mxCell id="mxeymXjgRgd7a33eONCe-339" style="vsdxID=21;edgeStyle=none;startArrow=none;endArrow=none;startSize=3;endSize=3;strokeColor=#000000;spacingTop=-3;spacingBottom=-3;spacingLeft=-3;spacingRight=-3;verticalAlign=middle;html=1;labelBackgroundColor=#ffffff;rounded=0;" edge="1" parent="mxeymXjgRgd7a33eONCe-338">
          <mxGeometry relative="1" as="geometry">
            <mxPoint x="-1" as="offset" />
            <Array as="points" />
            <mxPoint x="30" y="20" as="sourcePoint" />
            <mxPoint x="62" y="20" as="targetPoint" />
          </mxGeometry>
        </mxCell>
        <mxCell id="mxeymXjgRgd7a33eONCe-340" value="T-21" style="ellipse;whiteSpace=wrap;html=1;aspect=fixed;fillColor=#00CC00;strokeColor=#ae4132;fontSize=11;" vertex="1" parent="mxeymXjgRgd7a33eONCe-338">
          <mxGeometry width="40" height="40" as="geometry" />
        </mxCell>
        <mxCell id="mxeymXjgRgd7a33eONCe-341" value="" style="group" vertex="1" connectable="0" parent="1">
          <mxGeometry x="1343" y="240" width="62" height="40" as="geometry" />
        </mxCell>
        <mxCell id="mxeymXjgRgd7a33eONCe-342" style="vsdxID=21;edgeStyle=none;startArrow=none;endArrow=none;startSize=3;endSize=3;strokeColor=#000000;spacingTop=-3;spacingBottom=-3;spacingLeft=-3;spacingRight=-3;verticalAlign=middle;html=1;labelBackgroundColor=#ffffff;rounded=0;" edge="1" parent="mxeymXjgRgd7a33eONCe-341">
          <mxGeometry relative="1" as="geometry">
            <mxPoint x="-1" as="offset" />
            <Array as="points" />
            <mxPoint x="30" y="20" as="sourcePoint" />
            <mxPoint x="62" y="20" as="targetPoint" />
          </mxGeometry>
        </mxCell>
        <mxCell id="mxeymXjgRgd7a33eONCe-343" value="T-22" style="ellipse;whiteSpace=wrap;html=1;aspect=fixed;fillColor=#00CC00;strokeColor=#ae4132;fontSize=11;" vertex="1" parent="mxeymXjgRgd7a33eONCe-341">
          <mxGeometry width="40" height="40" as="geometry" />
        </mxCell>
        <mxCell id="mxeymXjgRgd7a33eONCe-344" value="DevOps Account" style="points=[[0,0],[0.25,0],[0.5,0],[0.75,0],[1,0],[1,0.25],[1,0.5],[1,0.75],[1,1],[0.75,1],[0.5,1],[0.25,1],[0,1],[0,0.75],[0,0.5],[0,0.25]];outlineConnect=0;gradientColor=none;html=1;whiteSpace=wrap;fontSize=12;fontStyle=0;container=0;pointerEvents=0;collapsible=0;recursiveResize=0;shape=mxgraph.aws4.group;grIcon=mxgraph.aws4.group_account;strokeColor=#CD2264;fillColor=none;verticalAlign=top;align=left;spacingLeft=30;fontColor=#CD2264;dashed=0;" vertex="1" parent="1">
          <mxGeometry x="-390" y="-996" width="89" height="120" as="geometry" />
        </mxCell>
        <mxCell id="mxeymXjgRgd7a33eONCe-345" value="" style="image;html=1;image=img/lib/atlassian/Bitbucket_Logo.svg;" vertex="1" parent="1">
          <mxGeometry x="-367" y="-949" width="46" height="43" as="geometry" />
        </mxCell>
        <mxCell id="mxeymXjgRgd7a33eONCe-346" style="edgeStyle=orthogonalEdgeStyle;rounded=1;orthogonalLoop=1;jettySize=auto;html=1;entryX=0.15;entryY=0.05;entryDx=0;entryDy=0;dashed=1;curved=0;strokeColor=#FF9933;jumpStyle=line;entryPerimeter=0;" edge="1" parent="1" source="mxeymXjgRgd7a33eONCe-344" target="mxeymXjgRgd7a33eONCe-122">
          <mxGeometry relative="1" as="geometry">
            <Array as="points">
              <mxPoint x="-300" y="-936" />
              <mxPoint x="-300" y="-330" />
              <mxPoint x="81" y="-330" />
            </Array>
            <mxPoint x="-74" y="-632" as="sourcePoint" />
            <mxPoint x="-473" y="-437" as="targetPoint" />
          </mxGeometry>
        </mxCell>
        <mxCell id="mxeymXjgRgd7a33eONCe-347" value="&lt;div style=&quot;font-size: 9px;&quot;&gt;&lt;div&gt;&lt;div&gt;&lt;font style=&quot;font-size: 9px;&quot;&gt;CI/CD &lt;br&gt;HTTPS / TLS 1.2&lt;/font&gt;&lt;/div&gt;&lt;div&gt;&lt;font style=&quot;font-size: 9px;&quot;&gt;AWS IAM&amp;nbsp;&lt;/font&gt;&lt;/div&gt;&lt;/div&gt;&lt;/div&gt;" style="edgeLabel;html=1;align=center;verticalAlign=middle;resizable=0;points=[];" vertex="1" connectable="0" parent="mxeymXjgRgd7a33eONCe-346">
          <mxGeometry x="0.6705" relative="1" as="geometry">
            <mxPoint x="-251" y="-520" as="offset" />
          </mxGeometry>
        </mxCell>
        <mxCell id="mxeymXjgRgd7a33eONCe-348" value="" style="group" vertex="1" connectable="0" parent="1">
          <mxGeometry x="-360" y="-830" width="62" height="40" as="geometry" />
        </mxCell>
        <mxCell id="mxeymXjgRgd7a33eONCe-349" style="vsdxID=21;edgeStyle=none;startArrow=none;endArrow=none;startSize=3;endSize=3;strokeColor=#000000;spacingTop=-3;spacingBottom=-3;spacingLeft=-3;spacingRight=-3;verticalAlign=middle;html=1;labelBackgroundColor=#ffffff;rounded=0;" edge="1" parent="mxeymXjgRgd7a33eONCe-348">
          <mxGeometry relative="1" as="geometry">
            <mxPoint x="-1" as="offset" />
            <Array as="points" />
            <mxPoint x="30" y="20" as="sourcePoint" />
            <mxPoint x="62" y="20" as="targetPoint" />
          </mxGeometry>
        </mxCell>
        <mxCell id="mxeymXjgRgd7a33eONCe-350" value="T-23" style="ellipse;whiteSpace=wrap;html=1;aspect=fixed;fillColor=#00CC00;strokeColor=#ae4132;fontSize=11;" vertex="1" parent="mxeymXjgRgd7a33eONCe-348">
          <mxGeometry width="40" height="40" as="geometry" />
        </mxCell>
        <mxCell id="mxeymXjgRgd7a33eONCe-351" value="" style="group" vertex="1" connectable="0" parent="1">
          <mxGeometry x="-440" y="-930" width="52" height="53" as="geometry" />
        </mxCell>
        <mxCell id="mxeymXjgRgd7a33eONCe-352" style="vsdxID=21;edgeStyle=none;startArrow=none;endArrow=none;startSize=3;endSize=3;strokeColor=#000000;spacingTop=-3;spacingBottom=-3;spacingLeft=-3;spacingRight=-3;verticalAlign=middle;html=1;labelBackgroundColor=#ffffff;rounded=0;" edge="1" parent="mxeymXjgRgd7a33eONCe-351">
          <mxGeometry relative="1" as="geometry">
            <mxPoint x="-1" as="offset" />
            <Array as="points" />
            <mxPoint x="52" as="sourcePoint" />
            <mxPoint x="20" y="33" as="targetPoint" />
          </mxGeometry>
        </mxCell>
        <mxCell id="mxeymXjgRgd7a33eONCe-353" value="S-07" style="ellipse;whiteSpace=wrap;html=1;aspect=fixed;fillColor=#FFC000;strokeColor=#ae4132;fontSize=11;" vertex="1" parent="mxeymXjgRgd7a33eONCe-351">
          <mxGeometry y="13" width="40" height="40" as="geometry" />
        </mxCell>
        <mxCell id="mxeymXjgRgd7a33eONCe-354" value="&lt;font style=&quot;font-size: 10px;&quot;&gt;Knox ID Broker&lt;/font&gt;" style="rounded=0;whiteSpace=wrap;html=1;" vertex="1" parent="1">
          <mxGeometry x="722.5" y="-322.5" width="80" height="30" as="geometry" />
        </mxCell>
        <mxCell id="mxeymXjgRgd7a33eONCe-355" value="" style="group" vertex="1" connectable="0" parent="1">
          <mxGeometry x="660" y="-280" width="62" height="40" as="geometry" />
        </mxCell>
        <mxCell id="mxeymXjgRgd7a33eONCe-356" style="vsdxID=21;edgeStyle=none;startArrow=none;endArrow=none;startSize=3;endSize=3;strokeColor=#000000;spacingTop=-3;spacingBottom=-3;spacingLeft=-3;spacingRight=-3;verticalAlign=middle;html=1;labelBackgroundColor=#ffffff;rounded=0;" edge="1" parent="mxeymXjgRgd7a33eONCe-355">
          <mxGeometry relative="1" as="geometry">
            <mxPoint x="-1" as="offset" />
            <Array as="points" />
            <mxPoint x="30" y="20" as="sourcePoint" />
            <mxPoint x="62" y="20" as="targetPoint" />
          </mxGeometry>
        </mxCell>
        <mxCell id="mxeymXjgRgd7a33eONCe-357" value="PS-05" style="ellipse;whiteSpace=wrap;html=1;aspect=fixed;fillColor=#7FB5C1;strokeColor=#ae4132;fontSize=11;" vertex="1" parent="mxeymXjgRgd7a33eONCe-355">
          <mxGeometry width="40" height="40" as="geometry" />
        </mxCell>
        <mxCell id="mxeymXjgRgd7a33eONCe-358" value="Cloudera Data Platform - Solution Overview&amp;nbsp;" style="text;html=1;align=center;verticalAlign=middle;whiteSpace=wrap;rounded=0;fontSize=68;fontStyle=1" vertex="1" parent="1">
          <mxGeometry x="-400" y="-1500" width="1720" height="30" as="geometry" />
        </mxCell>
        <mxCell id="mxeymXjgRgd7a33eONCe-359" value="&lt;p style=&quot;align:left;margin-left:0;margin-right:0;margin-top:0px;margin-bottom:0px;text-indent:0;valign:middle;direction:ltr;&quot;&gt;&lt;font style=&quot;font-size:14px;font-family:Arial;color:#4d1e1a;direction:ltr;letter-spacing:0px;line-height:120%;opacity:1&quot;&gt;Node – processing &amp;amp; storing&lt;br/&gt;&lt;/font&gt;&lt;/p&gt;" style="verticalAlign=middle;align=left;vsdxID=6;fillColor=none;gradientColor=none;shape=stencil(nZBLDoAgDERP0z3SIyjew0SURgSD+Lu9kMZoXLhwN9O+tukAlrNpJg1SzDH4QW/URgNYgZTkjA4UkwJUgGXng+6DX1zLfmoymdXo17xh5zmRJ6Q42BWCfc2oJfdAr+Yv+AP9Cb7OJ3H/2JG1HNGz/84klThPVCc=);strokeColor=none;labelBackgroundColor=none;rounded=0;html=1;whiteSpace=wrap;" vertex="1" parent="1">
          <mxGeometry x="-304" y="825" width="175" height="30" as="geometry" />
        </mxCell>
        <mxCell id="mxeymXjgRgd7a33eONCe-360" value="&lt;p style=&quot;align:left;margin-left:0;margin-right:0;margin-top:0px;margin-bottom:0px;text-indent:0;valign:middle;direction:ltr;&quot;&gt;&lt;font style=&quot;font-size:14px;font-family:Arial;color:#4d1e1a;direction:ltr;letter-spacing:0px;line-height:120%;opacity:1&quot;&gt;Node –  storing&lt;br/&gt;&lt;/font&gt;&lt;/p&gt;" style="verticalAlign=middle;align=left;vsdxID=7;fillColor=none;gradientColor=none;shape=stencil(nZBLDoAgDERP0z3SIyjew0SURgSD+Lu9kMZoXLhwN9O+tukAlrNpJg1SzDH4QW/URgNYgZTkjA4UkwJUgGXng+6DX1zLfmoymdXo17xh5zmRJ6Q42BWCfc2oJfdAr+Yv+AP9Cb7OJ3H/2JG1HNGz/84klThPVCc=);strokeColor=none;labelBackgroundColor=none;rounded=0;html=1;whiteSpace=wrap;" vertex="1" parent="1">
          <mxGeometry x="-43" y="785" width="108" height="30" as="geometry" />
        </mxCell>
        <mxCell id="mxeymXjgRgd7a33eONCe-361" value="&lt;p style=&quot;align:left;margin-left:0;margin-right:0;margin-top:0px;margin-bottom:0px;text-indent:0;valign:middle;direction:ltr;&quot;&gt;&lt;font style=&quot;font-size:14px;font-family:Arial;color:#4d1e1a;direction:ltr;letter-spacing:0px;line-height:120%;opacity:1&quot;&gt;Transit&lt;br/&gt;&lt;/font&gt;&lt;/p&gt;" style="verticalAlign=middle;align=left;vsdxID=8;fillColor=none;gradientColor=none;shape=stencil(nZBLDoAgDERP0z3SIyjew0SURgSD+Lu9kMZoXLhwN9O+tukAlrNpJg1SzDH4QW/URgNYgZTkjA4UkwJUgGXng+6DX1zLfmoymdXo17xh5zmRJ6Q42BWCfc2oJfdAr+Yv+AP9Cb7OJ3H/2JG1HNGz/84klThPVCc=);strokeColor=none;labelBackgroundColor=none;rounded=0;html=1;whiteSpace=wrap;" vertex="1" parent="1">
          <mxGeometry x="-43" y="825" width="105" height="30" as="geometry" />
        </mxCell>
        <mxCell id="mxeymXjgRgd7a33eONCe-362" value="&lt;p style=&quot;align:left;margin-left:0;margin-right:0;margin-top:0px;margin-bottom:0px;text-indent:0;valign:middle;direction:ltr;&quot;&gt;&lt;font style=&quot;font-size:14px;font-family:Arial;color:#4d1e1a;direction:ltr;letter-spacing:0px;line-height:120%;opacity:1&quot;&gt;Node – processing&lt;br/&gt;&lt;/font&gt;&lt;/p&gt;" style="verticalAlign=middle;align=left;vsdxID=15;fillColor=none;gradientColor=none;shape=stencil(nZBLDoAgDERP0z3SIyjew0SURgSD+Lu9kMZoXLhwN9O+tukAlrNpJg1SzDH4QW/URgNYgZTkjA4UkwJUgGXng+6DX1zLfmoymdXo17xh5zmRJ6Q42BWCfc2oJfdAr+Yv+AP9Cb7OJ3H/2JG1HNGz/84klThPVCc=);strokeColor=none;labelBackgroundColor=none;rounded=0;html=1;whiteSpace=wrap;" vertex="1" parent="1">
          <mxGeometry x="-304" y="782" width="175" height="28" as="geometry" />
        </mxCell>
        <mxCell id="mxeymXjgRgd7a33eONCe-363" value="" style="group" vertex="1" connectable="0" parent="1">
          <mxGeometry x="-120" y="825" width="62" height="40" as="geometry" />
        </mxCell>
        <mxCell id="mxeymXjgRgd7a33eONCe-364" style="vsdxID=21;edgeStyle=none;startArrow=none;endArrow=none;startSize=3;endSize=3;strokeColor=#000000;spacingTop=-3;spacingBottom=-3;spacingLeft=-3;spacingRight=-3;verticalAlign=middle;html=1;labelBackgroundColor=#ffffff;rounded=0;" edge="1" parent="mxeymXjgRgd7a33eONCe-363">
          <mxGeometry relative="1" as="geometry">
            <mxPoint x="-1" as="offset" />
            <Array as="points" />
            <mxPoint x="30" y="20" as="sourcePoint" />
            <mxPoint x="62" y="20" as="targetPoint" />
          </mxGeometry>
        </mxCell>
        <mxCell id="mxeymXjgRgd7a33eONCe-365" value="T-00" style="ellipse;whiteSpace=wrap;html=1;aspect=fixed;fillColor=#00CC00;strokeColor=#ae4132;fontSize=11;" vertex="1" parent="mxeymXjgRgd7a33eONCe-363">
          <mxGeometry width="40" height="40" as="geometry" />
        </mxCell>
        <mxCell id="mxeymXjgRgd7a33eONCe-366" value="" style="group" vertex="1" connectable="0" parent="1">
          <mxGeometry x="-369" y="780" width="62" height="40" as="geometry" />
        </mxCell>
        <mxCell id="mxeymXjgRgd7a33eONCe-367" style="vsdxID=21;edgeStyle=none;startArrow=none;endArrow=none;startSize=3;endSize=3;strokeColor=#000000;spacingTop=-3;spacingBottom=-3;spacingLeft=-3;spacingRight=-3;verticalAlign=middle;html=1;labelBackgroundColor=#ffffff;rounded=0;" edge="1" parent="mxeymXjgRgd7a33eONCe-366">
          <mxGeometry relative="1" as="geometry">
            <mxPoint x="-1" as="offset" />
            <Array as="points" />
            <mxPoint x="30" y="20" as="sourcePoint" />
            <mxPoint x="62" y="20" as="targetPoint" />
          </mxGeometry>
        </mxCell>
        <mxCell id="mxeymXjgRgd7a33eONCe-368" value="P-00" style="ellipse;whiteSpace=wrap;html=1;aspect=fixed;fillColor=#FF0000;strokeColor=#ae4132;fontSize=11;" vertex="1" parent="mxeymXjgRgd7a33eONCe-366">
          <mxGeometry width="40" height="40" as="geometry" />
        </mxCell>
        <mxCell id="mxeymXjgRgd7a33eONCe-369" value="" style="group" vertex="1" connectable="0" parent="1">
          <mxGeometry x="-120" y="782" width="62" height="40" as="geometry" />
        </mxCell>
        <mxCell id="mxeymXjgRgd7a33eONCe-370" style="vsdxID=21;edgeStyle=none;startArrow=none;endArrow=none;startSize=3;endSize=3;strokeColor=#000000;spacingTop=-3;spacingBottom=-3;spacingLeft=-3;spacingRight=-3;verticalAlign=middle;html=1;labelBackgroundColor=#ffffff;rounded=0;" edge="1" parent="mxeymXjgRgd7a33eONCe-369">
          <mxGeometry relative="1" as="geometry">
            <mxPoint x="-1" as="offset" />
            <Array as="points" />
            <mxPoint x="30" y="20" as="sourcePoint" />
            <mxPoint x="62" y="20" as="targetPoint" />
          </mxGeometry>
        </mxCell>
        <mxCell id="mxeymXjgRgd7a33eONCe-371" value="S-00" style="ellipse;whiteSpace=wrap;html=1;aspect=fixed;fillColor=#FFC000;strokeColor=#ae4132;fontSize=11;" vertex="1" parent="mxeymXjgRgd7a33eONCe-369">
          <mxGeometry width="40" height="40" as="geometry" />
        </mxCell>
        <mxCell id="mxeymXjgRgd7a33eONCe-372" value="" style="group" vertex="1" connectable="0" parent="1">
          <mxGeometry x="-370" y="825" width="62" height="40" as="geometry" />
        </mxCell>
        <mxCell id="mxeymXjgRgd7a33eONCe-373" style="vsdxID=21;edgeStyle=none;startArrow=none;endArrow=none;startSize=3;endSize=3;strokeColor=#000000;spacingTop=-3;spacingBottom=-3;spacingLeft=-3;spacingRight=-3;verticalAlign=middle;html=1;labelBackgroundColor=#ffffff;rounded=0;" edge="1" parent="mxeymXjgRgd7a33eONCe-372">
          <mxGeometry relative="1" as="geometry">
            <mxPoint x="-1" as="offset" />
            <Array as="points" />
            <mxPoint x="30" y="20" as="sourcePoint" />
            <mxPoint x="62" y="20" as="targetPoint" />
          </mxGeometry>
        </mxCell>
        <mxCell id="mxeymXjgRgd7a33eONCe-374" value="PS-00" style="ellipse;whiteSpace=wrap;html=1;aspect=fixed;fillColor=#7FB5C1;strokeColor=#ae4132;fontSize=11;" vertex="1" parent="mxeymXjgRgd7a33eONCe-372">
          <mxGeometry width="40" height="40" as="geometry" />
        </mxCell>
        <mxCell id="mxeymXjgRgd7a33eONCe-375" value="BOI Bluezone DMZ" style="points=[[0,0],[0.25,0],[0.5,0],[0.75,0],[1,0],[1,0.25],[1,0.5],[1,0.75],[1,1],[0.75,1],[0.5,1],[0.25,1],[0,1],[0,0.75],[0,0.5],[0,0.25]];outlineConnect=0;html=1;whiteSpace=wrap;fontSize=12;fontStyle=0;container=0;pointerEvents=0;collapsible=0;recursiveResize=0;shape=mxgraph.aws4.group;grIcon=mxgraph.aws4.group_corporate_data_center;strokeColor=#23445d;fillColor=#bac8d3;verticalAlign=top;align=left;spacingLeft=30;dashed=0;opacity=30;" vertex="1" parent="1">
          <mxGeometry x="-680" y="386" width="1800" height="330" as="geometry" />
        </mxCell>
        <mxCell id="mxeymXjgRgd7a33eONCe-376" style="edgeStyle=orthogonalEdgeStyle;rounded=0;orthogonalLoop=1;jettySize=auto;html=1;endArrow=none;endFill=0;strokeColor=#FF00FF;" edge="1" parent="1" source="mxeymXjgRgd7a33eONCe-377" target="mxeymXjgRgd7a33eONCe-7">
          <mxGeometry relative="1" as="geometry">
            <Array as="points">
              <mxPoint x="1560" y="-380" />
              <mxPoint x="1560" y="-380" />
            </Array>
          </mxGeometry>
        </mxCell>
        <mxCell id="mxeymXjgRgd7a33eONCe-377" value="04.04.01" style="rounded=1;whiteSpace=wrap;html=1;fillColor=#FF00FF;fontColor=#FFFFFF;strokeColor=none;" vertex="1" parent="1">
          <mxGeometry x="1640" y="-392.5" width="120" height="25" as="geometry" />
        </mxCell>
        <mxCell id="mxeymXjgRgd7a33eONCe-378" value="04.05.01.01" style="rounded=1;whiteSpace=wrap;html=1;fillColor=#FF00FF;fontColor=#FFFFFF;strokeColor=none;" vertex="1" parent="1">
          <mxGeometry x="1630" y="537.5" width="120" height="25" as="geometry" />
        </mxCell>
        <mxCell id="mxeymXjgRgd7a33eONCe-379" style="edgeStyle=orthogonalEdgeStyle;rounded=0;orthogonalLoop=1;jettySize=auto;html=1;endArrow=none;endFill=0;strokeColor=#FF00FF;entryX=1;entryY=0.5;entryDx=0;entryDy=0;exitX=0;exitY=0.5;exitDx=0;exitDy=0;dashed=1;" edge="1" parent="1" source="mxeymXjgRgd7a33eONCe-378" target="mxeymXjgRgd7a33eONCe-2">
          <mxGeometry relative="1" as="geometry">
            <mxPoint x="1800" y="370" as="sourcePoint" />
            <mxPoint x="1686" y="370" as="targetPoint" />
            <Array as="points">
              <mxPoint x="1630" y="550" />
              <mxPoint x="1553" y="550" />
            </Array>
          </mxGeometry>
        </mxCell>
        <mxCell id="mxeymXjgRgd7a33eONCe-380" value="04.03.01" style="rounded=1;whiteSpace=wrap;html=1;fillColor=#FF00FF;fontColor=#FFFFFF;strokeColor=none;" vertex="1" parent="1">
          <mxGeometry x="-830" y="167" width="120" height="25" as="geometry" />
        </mxCell>
        <mxCell id="mxeymXjgRgd7a33eONCe-381" style="edgeStyle=orthogonalEdgeStyle;rounded=0;orthogonalLoop=1;jettySize=auto;html=1;endArrow=none;endFill=0;strokeColor=#FF00FF;entryX=1;entryY=0.5;entryDx=0;entryDy=0;dashed=1;" edge="1" parent="1" source="mxeymXjgRgd7a33eONCe-37" target="mxeymXjgRgd7a33eONCe-380">
          <mxGeometry relative="1" as="geometry">
            <mxPoint x="-660" y="22.5" as="sourcePoint" />
            <mxPoint x="-907" y="203.5" as="targetPoint" />
            <Array as="points" />
          </mxGeometry>
        </mxCell>
        <mxCell id="mxeymXjgRgd7a33eONCe-382" value="04.08.07" style="rounded=1;whiteSpace=wrap;html=1;fillColor=#FF00FF;fontColor=#FFFFFF;strokeColor=none;" vertex="1" parent="1">
          <mxGeometry x="-830" y="-20" width="120" height="25" as="geometry" />
        </mxCell>
        <mxCell id="mxeymXjgRgd7a33eONCe-383" style="edgeStyle=orthogonalEdgeStyle;rounded=1;orthogonalLoop=1;jettySize=auto;html=1;endArrow=none;endFill=0;strokeColor=#FF00FF;entryX=1;entryY=0.5;entryDx=0;entryDy=0;exitX=0.015;exitY=0.666;exitDx=0;exitDy=0;exitPerimeter=0;curved=0;dashed=1;" edge="1" parent="1" source="mxeymXjgRgd7a33eONCe-129" target="mxeymXjgRgd7a33eONCe-382">
          <mxGeometry relative="1" as="geometry">
            <mxPoint x="-25" y="-8" as="sourcePoint" />
            <mxPoint x="-907" y="16.5" as="targetPoint" />
            <Array as="points" />
          </mxGeometry>
        </mxCell>
        <mxCell id="mxeymXjgRgd7a33eONCe-384" style="edgeStyle=orthogonalEdgeStyle;rounded=1;orthogonalLoop=1;jettySize=auto;html=1;endArrow=none;endFill=0;strokeColor=#FF00FF;entryX=1;entryY=0.75;entryDx=0;entryDy=0;curved=0;jumpStyle=line;dashed=1;" edge="1" parent="1" source="mxeymXjgRgd7a33eONCe-135" target="mxeymXjgRgd7a33eONCe-382">
          <mxGeometry relative="1" as="geometry">
            <mxPoint x="27" y="4" as="sourcePoint" />
            <mxPoint x="-700" y="3" as="targetPoint" />
            <Array as="points">
              <mxPoint x="240" y="-28" />
              <mxPoint x="240" y="70" />
              <mxPoint x="-218" y="70" />
              <mxPoint x="-218" y="-1" />
            </Array>
          </mxGeometry>
        </mxCell>
        <mxCell id="mxeymXjgRgd7a33eONCe-385" style="edgeStyle=orthogonalEdgeStyle;rounded=1;orthogonalLoop=1;jettySize=auto;html=1;endArrow=none;endFill=0;strokeColor=#FF00FF;entryX=1;entryY=0.25;entryDx=0;entryDy=0;exitX=0.5;exitY=1;exitDx=0;exitDy=0;curved=0;dashed=1;" edge="1" parent="1" source="mxeymXjgRgd7a33eONCe-104" target="mxeymXjgRgd7a33eONCe-382">
          <mxGeometry relative="1" as="geometry">
            <mxPoint x="27" y="4" as="sourcePoint" />
            <mxPoint x="-700" y="3" as="targetPoint" />
            <Array as="points" />
          </mxGeometry>
        </mxCell>
        <mxCell id="mxeymXjgRgd7a33eONCe-386" style="edgeStyle=orthogonalEdgeStyle;rounded=1;orthogonalLoop=1;jettySize=auto;html=1;endArrow=none;endFill=0;strokeColor=#FF00FF;entryX=1;entryY=0;entryDx=0;entryDy=0;exitX=0;exitY=0.75;exitDx=0;exitDy=0;curved=0;dashed=1;jumpStyle=line;" edge="1" parent="1" source="mxeymXjgRgd7a33eONCe-100" target="mxeymXjgRgd7a33eONCe-382">
          <mxGeometry relative="1" as="geometry">
            <mxPoint x="-482" y="-180" as="sourcePoint" />
            <mxPoint x="-700" y="-4" as="targetPoint" />
            <Array as="points">
              <mxPoint x="-590" y="-559" />
              <mxPoint x="-590" y="-20" />
            </Array>
          </mxGeometry>
        </mxCell>
        <mxCell id="mxeymXjgRgd7a33eONCe-387" value="04.04.04, 04.08.05.06" style="rounded=1;whiteSpace=wrap;html=1;fillColor=#FF00FF;fontColor=#FFFFFF;strokeColor=none;" vertex="1" parent="1">
          <mxGeometry x="-830" y="-157.95" width="120" height="25" as="geometry" />
        </mxCell>
        <mxCell id="mxeymXjgRgd7a33eONCe-388" style="edgeStyle=orthogonalEdgeStyle;rounded=1;orthogonalLoop=1;jettySize=auto;html=1;endArrow=none;endFill=0;strokeColor=#FF00FF;entryX=1;entryY=0.75;entryDx=0;entryDy=0;exitX=0.006;exitY=0.873;exitDx=0;exitDy=0;curved=0;dashed=1;exitPerimeter=0;jumpStyle=line;" edge="1" parent="1" source="mxeymXjgRgd7a33eONCe-89" target="mxeymXjgRgd7a33eONCe-387">
          <mxGeometry relative="1" as="geometry">
            <mxPoint x="-482" y="-180" as="sourcePoint" />
            <mxPoint x="-700" y="-4" as="targetPoint" />
            <Array as="points">
              <mxPoint x="-160" y="-200" />
              <mxPoint x="-160" y="-139" />
            </Array>
          </mxGeometry>
        </mxCell>
        <mxCell id="mxeymXjgRgd7a33eONCe-389" value="04.04.04|04.08.05.06" style="rounded=1;whiteSpace=wrap;html=1;fillColor=#FF00FF;fontColor=#FFFFFF;strokeColor=none;" vertex="1" parent="1">
          <mxGeometry x="-830" y="-455" width="120" height="25" as="geometry" />
        </mxCell>
        <mxCell id="mxeymXjgRgd7a33eONCe-390" style="edgeStyle=orthogonalEdgeStyle;rounded=1;orthogonalLoop=1;jettySize=auto;html=1;endArrow=none;endFill=0;strokeColor=#FF00FF;entryX=0.991;entryY=0.618;entryDx=0;entryDy=0;exitX=0.001;exitY=0.806;exitDx=0;exitDy=0;curved=0;dashed=1;exitPerimeter=0;jumpStyle=line;entryPerimeter=0;" edge="1" parent="1" source="mxeymXjgRgd7a33eONCe-77" target="mxeymXjgRgd7a33eONCe-389">
          <mxGeometry relative="1" as="geometry">
            <mxPoint x="12" y="-522.05" as="sourcePoint" />
            <mxPoint x="-710" y="-326.05" as="targetPoint" />
            <Array as="points">
              <mxPoint x="-10" y="-510" />
              <mxPoint x="-260" y="-510" />
              <mxPoint x="-260" y="-440" />
              <mxPoint x="-710" y="-440" />
            </Array>
          </mxGeometry>
        </mxCell>
        <mxCell id="mxeymXjgRgd7a33eONCe-391" value="04.03.02| 04.05.04" style="rounded=1;whiteSpace=wrap;html=1;fillColor=#FF00FF;fontColor=#FFFFFF;strokeColor=none;" vertex="1" parent="1">
          <mxGeometry x="-830" y="-880" width="120" height="25" as="geometry" />
        </mxCell>
        <mxCell id="mxeymXjgRgd7a33eONCe-392" style="edgeStyle=orthogonalEdgeStyle;rounded=1;orthogonalLoop=1;jettySize=auto;html=1;endArrow=none;endFill=0;strokeColor=#FF00FF;entryX=1;entryY=0.5;entryDx=0;entryDy=0;curved=0;dashed=1;jumpStyle=line;" edge="1" parent="1" target="mxeymXjgRgd7a33eONCe-391">
          <mxGeometry relative="1" as="geometry">
            <mxPoint x="-248" y="-870" as="sourcePoint" />
            <mxPoint x="-1480" y="-860" as="targetPoint" />
            <Array as="points">
              <mxPoint x="-530" y="-870" />
              <mxPoint x="-530" y="-868" />
              <mxPoint x="-714" y="-868" />
            </Array>
          </mxGeometry>
        </mxCell>
        <mxCell id="mxeymXjgRgd7a33eONCe-393" value="04.03.02|04.05.05" style="rounded=1;whiteSpace=wrap;html=1;fillColor=#FF00FF;fontColor=#FFFFFF;strokeColor=none;" vertex="1" parent="1">
          <mxGeometry x="-830" y="-930" width="120" height="25" as="geometry" />
        </mxCell>
        <mxCell id="mxeymXjgRgd7a33eONCe-394" style="edgeStyle=orthogonalEdgeStyle;rounded=1;orthogonalLoop=1;jettySize=auto;html=1;endArrow=none;endFill=0;strokeColor=#FF00FF;entryX=1;entryY=0.5;entryDx=0;entryDy=0;curved=0;dashed=1;jumpStyle=line;exitX=0;exitY=0.25;exitDx=0;exitDy=0;" edge="1" parent="1" source="mxeymXjgRgd7a33eONCe-344" target="mxeymXjgRgd7a33eONCe-393">
          <mxGeometry relative="1" as="geometry">
            <mxPoint x="-244" y="-919" as="sourcePoint" />
            <mxPoint x="-1476" y="-909" as="targetPoint" />
            <Array as="points">
              <mxPoint x="-570" y="-966" />
              <mxPoint x="-570" y="-919" />
              <mxPoint x="-580" y="-919" />
              <mxPoint x="-580" y="-917" />
            </Array>
          </mxGeometry>
        </mxCell>
        <mxCell id="mxeymXjgRgd7a33eONCe-395" value="04.03.02" style="rounded=1;whiteSpace=wrap;html=1;fillColor=#FF00FF;fontColor=#FFFFFF;strokeColor=none;" vertex="1" parent="1">
          <mxGeometry x="-828" y="-1094" width="120" height="25" as="geometry" />
        </mxCell>
        <mxCell id="mxeymXjgRgd7a33eONCe-396" style="edgeStyle=orthogonalEdgeStyle;rounded=1;orthogonalLoop=1;jettySize=auto;html=1;endArrow=none;endFill=0;strokeColor=#FF00FF;entryX=1;entryY=0.5;entryDx=0;entryDy=0;curved=0;dashed=1;jumpStyle=line;exitX=0.25;exitY=0;exitDx=0;exitDy=0;" edge="1" parent="1" source="mxeymXjgRgd7a33eONCe-41" target="mxeymXjgRgd7a33eONCe-395">
          <mxGeometry relative="1" as="geometry">
            <mxPoint x="-388" y="-1130" as="sourcePoint" />
            <mxPoint x="-1474" y="-1073" as="targetPoint" />
            <Array as="points">
              <mxPoint x="98" y="-1080" />
              <mxPoint x="-568" y="-1080" />
              <mxPoint x="-568" y="-1083" />
              <mxPoint x="-578" y="-1083" />
              <mxPoint x="-578" y="-1082" />
            </Array>
          </mxGeometry>
        </mxCell>
        <mxCell id="mxeymXjgRgd7a33eONCe-397" value="&lt;div&gt;&lt;span style=&quot;background-color: initial;&quot;&gt;04.06.01.02&lt;/span&gt;&lt;/div&gt;" style="rounded=1;whiteSpace=wrap;html=1;fillColor=#FF00FF;fontColor=#FFFFFF;strokeColor=none;" vertex="1" parent="1">
          <mxGeometry x="1640" y="-1041" width="120" height="25" as="geometry" />
        </mxCell>
        <mxCell id="mxeymXjgRgd7a33eONCe-398" style="edgeStyle=orthogonalEdgeStyle;rounded=1;orthogonalLoop=1;jettySize=auto;html=1;endArrow=none;endFill=0;strokeColor=#FF00FF;entryX=0;entryY=0.5;entryDx=0;entryDy=0;curved=0;dashed=1;jumpStyle=line;" edge="1" parent="1" source="mxeymXjgRgd7a33eONCe-181" target="mxeymXjgRgd7a33eONCe-397">
          <mxGeometry relative="1" as="geometry">
            <mxPoint x="2566" y="-820" as="sourcePoint" />
            <mxPoint x="994" y="-893" as="targetPoint" />
            <Array as="points">
              <mxPoint x="554" y="-1080" />
              <mxPoint x="1270" y="-1080" />
              <mxPoint x="1270" y="-1029" />
            </Array>
          </mxGeometry>
        </mxCell>
        <mxCell id="mxeymXjgRgd7a33eONCe-399" value="04.04.02|04.08.05.01" style="rounded=1;whiteSpace=wrap;html=1;fillColor=#FF00FF;fontColor=#FFFFFF;strokeColor=none;" vertex="1" parent="1">
          <mxGeometry x="1640" y="-790" width="120" height="25" as="geometry" />
        </mxCell>
        <mxCell id="mxeymXjgRgd7a33eONCe-400" style="edgeStyle=orthogonalEdgeStyle;rounded=1;orthogonalLoop=1;jettySize=auto;html=1;endArrow=none;endFill=0;strokeColor=#FF00FF;entryX=0;entryY=0.5;entryDx=0;entryDy=0;curved=0;dashed=1;jumpStyle=line;exitX=1;exitY=0.25;exitDx=0;exitDy=0;" edge="1" parent="1" source="mxeymXjgRgd7a33eONCe-46" target="mxeymXjgRgd7a33eONCe-399">
          <mxGeometry relative="1" as="geometry">
            <mxPoint x="564" y="-969" as="sourcePoint" />
            <mxPoint x="1004" y="-883" as="targetPoint" />
            <Array as="points">
              <mxPoint x="1170" y="-652" />
              <mxPoint x="1170" y="-778" />
            </Array>
          </mxGeometry>
        </mxCell>
        <mxCell id="mxeymXjgRgd7a33eONCe-401" value="04.04.02|04.08.05.02" style="rounded=1;whiteSpace=wrap;html=1;fillColor=#FF00FF;fontColor=#FFFFFF;strokeColor=none;" vertex="1" parent="1">
          <mxGeometry x="1640" y="-714.5" width="120" height="25" as="geometry" />
        </mxCell>
        <mxCell id="mxeymXjgRgd7a33eONCe-402" style="edgeStyle=orthogonalEdgeStyle;rounded=1;orthogonalLoop=1;jettySize=auto;html=1;endArrow=none;endFill=0;strokeColor=#FF00FF;entryX=0;entryY=0.5;entryDx=0;entryDy=0;curved=0;dashed=1;jumpStyle=line;exitX=0.987;exitY=0.356;exitDx=0;exitDy=0;exitPerimeter=0;" edge="1" parent="1" source="mxeymXjgRgd7a33eONCe-56" target="mxeymXjgRgd7a33eONCe-401">
          <mxGeometry relative="1" as="geometry">
            <mxPoint x="850" y="-581" as="sourcePoint" />
            <mxPoint x="1014" y="-812" as="targetPoint" />
            <Array as="points">
              <mxPoint x="1180" y="-315" />
              <mxPoint x="1180" y="-707" />
              <mxPoint x="1640" y="-707" />
            </Array>
          </mxGeometry>
        </mxCell>
        <mxCell id="mxeymXjgRgd7a33eONCe-403" value="04.04.02|04.08.05.02" style="rounded=1;whiteSpace=wrap;html=1;fillColor=#FF00FF;fontColor=#FFFFFF;strokeColor=none;" vertex="1" parent="1">
          <mxGeometry x="1648" y="99" width="120" height="25" as="geometry" />
        </mxCell>
        <mxCell id="mxeymXjgRgd7a33eONCe-404" style="edgeStyle=orthogonalEdgeStyle;rounded=1;orthogonalLoop=1;jettySize=auto;html=1;endArrow=none;endFill=0;strokeColor=#FF00FF;entryX=0;entryY=0.5;entryDx=0;entryDy=0;curved=0;dashed=1;jumpStyle=line;" edge="1" parent="1" target="mxeymXjgRgd7a33eONCe-403">
          <mxGeometry relative="1" as="geometry">
            <mxPoint x="846" y="-6" as="sourcePoint" />
            <mxPoint x="1022" y="1.5" as="targetPoint" />
            <Array as="points">
              <mxPoint x="846" />
              <mxPoint x="1188" />
              <mxPoint x="1188" y="107" />
              <mxPoint x="1648" y="107" />
            </Array>
          </mxGeometry>
        </mxCell>
        <mxCell id="mxeymXjgRgd7a33eONCe-405" style="edgeStyle=orthogonalEdgeStyle;rounded=0;orthogonalLoop=1;jettySize=auto;html=1;endArrow=none;endFill=0;strokeColor=#FF00FF;entryX=1;entryY=0.5;entryDx=0;entryDy=0;dashed=1;" edge="1" parent="1" target="mxeymXjgRgd7a33eONCe-406">
          <mxGeometry relative="1" as="geometry">
            <mxPoint x="230" y="800" as="sourcePoint" />
            <mxPoint x="2.0600000000000023" y="801" as="targetPoint" />
            <Array as="points">
              <mxPoint x="220" y="798" />
              <mxPoint x="220" y="800" />
            </Array>
          </mxGeometry>
        </mxCell>
        <mxCell id="mxeymXjgRgd7a33eONCe-406" value="04.05.01.01" style="rounded=1;whiteSpace=wrap;html=1;fillColor=#FF00FF;fontColor=#FFFFFF;strokeColor=none;" vertex="1" parent="1">
          <mxGeometry x="79.06" y="787.5" width="120" height="25" as="geometry" />
        </mxCell>
        <mxCell id="mxeymXjgRgd7a33eONCe-407" value="&lt;p style=&quot;align:left;margin-left:0;margin-right:0;margin-top:0px;margin-bottom:0px;text-indent:0;valign:middle;direction:ltr;&quot;&gt;&lt;font style=&quot;font-size:14px;font-family:Arial;color:#4d1e1a;direction:ltr;letter-spacing:0px;line-height:120%;opacity:1&quot;&gt;HLD Sections&lt;br&gt;&lt;/font&gt;&lt;/p&gt;" style="verticalAlign=middle;align=left;vsdxID=7;fillColor=none;gradientColor=none;shape=stencil(nZBLDoAgDERP0z3SIyjew0SURgSD+Lu9kMZoXLhwN9O+tukAlrNpJg1SzDH4QW/URgNYgZTkjA4UkwJUgGXng+6DX1zLfmoymdXo17xh5zmRJ6Q42BWCfc2oJfdAr+Yv+AP9Cb7OJ3H/2JG1HNGz/84klThPVCc=);strokeColor=none;labelBackgroundColor=none;rounded=0;html=1;whiteSpace=wrap;" vertex="1" parent="1">
          <mxGeometry x="239.7" y="787.5" width="140.3" height="30" as="geometry" />
        </mxCell>
      </root>
    </mxGraphModel>
  </diagram>
</mxfile>
